<svg xmlns="http://www.w3.org/2000/svg" width="349.645" height="282.013" viewBox="0 0 349.645 282.013">
  <defs>
    <style>
      .cls-1 {
        fill: #ef3742;
      }

      .cls-2 {
        fill: #1852cc;
      }
    </style>
  </defs>
  <g id="carrefour-logo" transform="translate(-119.994 -164.503)">
    <g id="Group_1268" data-name="Group 1268" transform="translate(155.72 164.504)">
      <g id="Group_1270" data-name="Group 1270" transform="translate(0 0)">
        <path id="Path_508" data-name="Path 508" class="cls-1" d="M2232.587,50205.379l-76.149,73.488a15.186,15.186,0,0,0,0,24.3l76.149,73.48c.506.523.506.523,1.524.523.506,0,1.018-.523,1.018-1.516,0-.523-.506-1.012-.506-1.516a127.684,127.684,0,0,1,0-166.719,1.867,1.867,0,0,0,.505-1.52c0-1.012-.505-1.52-1.018-1.52-.506.531-1.018.531-1.524,1.008" transform="translate(-2150.362 -50199.238)"/>
        <path id="Path_509" data-name="Path 509" class="cls-2" d="M2322.215,50197.645c-29.951,0-41.632,42.059-41.632,92.242s11.674,91.715,41.632,91.715c17.738,0,33-10.637,33-19.258a6.5,6.5,0,0,0-2.029-5.066,32.032,32.032,0,0,1-11.676-23.312,23.959,23.959,0,0,1,22.843-23.8c15.228,0,23.861,11.648,23.861,27.355a64.318,64.318,0,0,1-12.692,36.492,1.769,1.769,0,0,1-.505,1.012c0,1.012.5,1.52,1.017,1.52s.506,0,1.524-.531l76.149-73.477a15.878,15.878,0,0,0,6.09-12.164,15.1,15.1,0,0,0-6.09-12.156l-76.156-73.488a1.866,1.866,0,0,0-1.524-.523c-.506,0-1.018.523-1.018,1.523a1.754,1.754,0,0,0,.507,1.012,64.357,64.357,0,0,1,12.692,36.48c0,15.2-8.632,27.355-23.861,27.355a23.953,23.953,0,0,1-22.843-23.816,32.006,32.006,0,0,1,11.675-23.3,7.231,7.231,0,0,0,2.029-5.066c0-10.133-14.722-20.777-33-20.777" transform="translate(-2181.604 -50197.609)"/>
      </g>
    </g>
    <path id="Path_510" data-name="Path 510" class="cls-2" d="M128.264,507.268a30.656,30.656,0,0,1-8.252-22.005,31.976,31.976,0,0,1,7.97-21.747,26.052,26.052,0,0,1,18.849-8.5c12.753,0,21.789,9.019,21.789,16.71a7.062,7.062,0,0,1-6.11,7.427,7.22,7.22,0,0,1-4.518-1.592,6.574,6.574,0,0,1-1.86-4.772,6.877,6.877,0,0,1,2.125-5.041,10.724,10.724,0,0,0-10.081-5.305,12.863,12.863,0,0,0-10.628,6.364,30.439,30.439,0,0,0-4.25,16.71,29.48,29.48,0,0,0,4.25,16.442,12.949,12.949,0,0,0,10.893,6.364,11.027,11.027,0,0,0,10.081-5.309,7.313,7.313,0,0,1-2.125-4.772,6.574,6.574,0,0,1,1.86-4.772,6.258,6.258,0,0,1,4.518-1.592,6.632,6.632,0,0,1,6.11,7.162c0,7.691-9.032,16.442-21.789,16.707a28.833,28.833,0,0,1-18.866-8.486M305.991,487.9c.8,0,1.062-.275,1.062-.529v-1.592a7.324,7.324,0,0,0-7.705-7.427c-5.845,0-8.252,4.772-8.5,9.548Zm-114.517,6.629c-4.518,0-7.441,2.121-7.705,6.364a6.485,6.485,0,0,0,6.908,6.629,10.081,10.081,0,0,0,7.172-3.713v-5.845a2.617,2.617,0,0,0-1.6-2.386,10.625,10.625,0,0,0-4.783-1.062m166.071-2.386c0,11.14,4.783,15.913,9.83,15.913,5.316,0,9.283-4.772,9.283-14.321a19.489,19.489,0,0,0-2.923-11.4,7.705,7.705,0,0,0-6.908-3.978c-5.58,0-9.033,5.305-9.283,13.791m-138.162,21.5c-1.86-.529-2.923-1.327-2.923-2.916,0-.529.265-1.062.265-1.857l.265-.275h.265a12.037,12.037,0,0,0,2.658-1.327c1.062-.794,1.327-2.121,1.327-5.305V484.977c0-2.916-.8-3.978-3.187-3.978a5.2,5.2,0,0,0-1.86.275h-.248l-.265-.275a4.5,4.5,0,0,1-.265-1.857c.265-3.438,3.72-5.041,6.378-5.845a11.733,11.733,0,0,1,2.658-.53,6.278,6.278,0,0,1,6.11,5.57,11.439,11.439,0,0,1,9.283-6.1,6.333,6.333,0,0,1,6.643,6.364,5.66,5.66,0,0,1-5.58,5.845,5.371,5.371,0,0,1-5.316-4.243c-1.86.53-4.518,3.184-4.518,11.4v10.342c0,3.438.265,4.508,1.327,5.305a12.65,12.65,0,0,0,3.72,1.327h.265v.275a6.738,6.738,0,0,1,.533,1.857c0,1.327-.8,2.386-2.658,2.916a25.046,25.046,0,0,1-7.441.794,42.122,42.122,0,0,1-7.44-.794m33.479,0c-1.6-.529-2.923-1.327-2.923-2.916a6.737,6.737,0,0,1,.533-1.857l.265-.275h0a6.257,6.257,0,0,0,2.658-1.327c1.062-.794,1.6-2.121,1.6-5.305V484.977c0-2.916-.8-3.978-2.923-3.978a5.194,5.194,0,0,0-1.86.275h-.265l-.265-.275a5.157,5.157,0,0,1-.265-1.857c0-3.438,3.72-5.041,6.11-5.845a11.729,11.729,0,0,1,2.658-.53,6.278,6.278,0,0,1,6.11,5.57,11.439,11.439,0,0,1,9.283-6.1,6.333,6.333,0,0,1,6.67,6.357,5.659,5.659,0,0,1-5.58,5.845,4.9,4.9,0,0,1-5.047-4.243c-1.86.529-4.783,3.184-4.783,11.4v10.343c0,3.438.533,4.508,1.327,5.305a10.479,10.479,0,0,0,3.72,1.327h.265l.265.275a6.734,6.734,0,0,1,.533,1.857,3.328,3.328,0,0,1-2.658,2.916,25.049,25.049,0,0,1-7.44.795,46.392,46.392,0,0,1-7.97-.794m70.939,0c-1.86-.529-2.923-1.327-2.923-2.916a6.737,6.737,0,0,1,.533-1.857l.265-.275h0a9.159,9.159,0,0,0,2.923-1.327c.8-.794,1.327-2.121,1.327-5.305V479.668l-6.11-.275-.265-.275a5.845,5.845,0,0,1-.265-2.122,3.631,3.631,0,0,1,3.72-3.713h2.658V470.9a19.715,19.715,0,0,1,2.658-11.67,13.492,13.492,0,0,1,12.488-6.1c7.705,0,14.348,3.713,14.348,9.548a5.343,5.343,0,0,1-5.316,5.57,5.5,5.5,0,0,1-5.312-5.305,5.34,5.34,0,0,1,.8-2.919,5.628,5.628,0,0,0-3.734-1.045,4.707,4.707,0,0,0-4.518,2.121,12.065,12.065,0,0,0-1.062,5.845v6.364h10.363l.265.275a6.581,6.581,0,0,1,.265,2.121,3.827,3.827,0,0,1-3.438,3.978h-2.407a24.39,24.39,0,0,1-4.518-.275v22.277c0,3.438.533,4.508,1.6,5.305.8.794,3.438,1.062,4.25,1.327h.265v.275a3.783,3.783,0,0,1,.533,1.592c0,1.592-1.327,2.386-3.187,2.916a31.561,31.561,0,0,1-8.252.794,24.616,24.616,0,0,1-7.97-.275m117.969,0c-1.6-.529-2.923-1.327-2.923-2.916a6.738,6.738,0,0,1,.533-1.857l.265-.275h.265a8.2,8.2,0,0,0,2.658-1.327c1.062-.794,1.327-2.121,1.327-5.305V484.964c0-2.916-.533-3.978-2.923-3.978a5.2,5.2,0,0,0-1.86.275h-.265v-.275a4.5,4.5,0,0,1-.265-1.857c0-3.438,3.72-5.04,6.11-5.845a11.344,11.344,0,0,1,2.923-.53,6.278,6.278,0,0,1,6.11,5.57,11.089,11.089,0,0,1,9.284-6.1,6.333,6.333,0,0,1,6.643,6.364,5.615,5.615,0,0,1-5.316,5.845A5.157,5.157,0,0,1,459,480.191c-1.86.529-4.518,3.184-4.783,11.4v10.343c0,3.438.533,4.507,1.6,5.305a12.651,12.651,0,0,0,3.72,1.327h.265v.275a6.733,6.733,0,0,1,.533,1.857,2.843,2.843,0,0,1-2.658,2.651,25.044,25.044,0,0,1-7.441.795,35.461,35.461,0,0,1-8.5-.53M366.8,514.681a20.716,20.716,0,0,1-14.613-5.845,21.373,21.373,0,0,1-6.11-15.383,20.8,20.8,0,0,1,21.256-21.218,21.538,21.538,0,0,1,15.129,5.845,21.2,21.2,0,0,1,5.845,15.383,20.341,20.341,0,0,1-6.11,15.383,22.194,22.194,0,0,1-15.411,5.845m-86.552-20.438a22.975,22.975,0,0,1,5.845-15.913,19.819,19.819,0,0,1,15.129-6.1,16.5,16.5,0,0,1,12.488,5.04,15.988,15.988,0,0,1,3.985,10.607,11.105,11.105,0,0,1-1.327,5.845v.275h-25.5a12.209,12.209,0,0,0,13.286,12.464,13.575,13.575,0,0,0,10.363-4.508l.265-.275.265.275a3.9,3.9,0,0,1,1.6,3.438c0,4.243-5.047,9.813-16.208,9.813a20.685,20.685,0,0,1-20.193-20.953m141.349,18.567a13.821,13.821,0,0,1-1.6-3.978,4.5,4.5,0,0,1-1.6,1.592,14.441,14.441,0,0,1-10.363,3.978,13.066,13.066,0,0,1-10.363-4.508c-3.72-4.243-3.72-9.813-3.72-17.769v-7.427c0-2.916-1.062-3.978-3.72-4.243H388.89l-.265-.275a3.36,3.36,0,0,1-.265-1.592c0-3.713,4.783-5.57,7.44-6.1a9.975,9.975,0,0,1,2.658-.275,6.6,6.6,0,0,1,4.783,1.857,7.565,7.565,0,0,1,1.327,5.041v13a27.772,27.772,0,0,0,1.327,10.607,6.065,6.065,0,0,0,5.58,3.438,6.877,6.877,0,0,0,6.378-3.438,16.917,16.917,0,0,0,1.6-7.427V484.967c-.265-2.916-1.062-3.978-3.985-4.243h-1.327l-.265-.275a3.783,3.783,0,0,1-.533-1.592c.265-3.713,4.783-5.57,7.441-6.1a9.06,9.06,0,0,1,2.658-.275,6.6,6.6,0,0,1,4.783,1.857,7.564,7.564,0,0,1,1.327,5.041v15.129c0,4.508-.265,7.162-.265,7.956.265,3.184,1.062,4.508,3.985,4.508h1.062l.265.275a3.359,3.359,0,0,1,.265,1.592c0,3.438-4.783,5.041-7.44,5.57a8.216,8.216,0,0,1-2.407.275h0a3.617,3.617,0,0,1-3.438-1.857M172.88,501.687a10.432,10.432,0,0,1,4.783-9.548,20.589,20.589,0,0,1,11.955-3.438,19.838,19.838,0,0,1,8.252,1.592v-4.508c0-4.508-1.6-7.162-6.908-7.162a19.654,19.654,0,0,0-4.783.794,5.158,5.158,0,0,1,.265,2.122,6.509,6.509,0,0,1-1.327,3.978,4.666,4.666,0,0,1-3.985,1.592,5.1,5.1,0,0,1-5.047-5.305c0-5.57,6.643-9.284,15.943-9.284,7.172,0,11.69,1.592,14.1,4.772,2.125,2.651,2.125,6.894,2.407,12.464V504.61c0,2.916,1.6,3.713,5.047,4.243h.533v.53a5.934,5.934,0,0,1-6.11,5.845h-.8a8.513,8.513,0,0,1-7.441-4.508,18.539,18.539,0,0,1-11.69,4.508c-8.768-.275-15.129-5.845-15.129-13.526" transform="translate(0 -69.234)"/>
  </g>
</svg>
