<svg xmlns="http://www.w3.org/2000/svg" width="456.737" height="486.436" viewBox="0 0 456.737 486.436">
  <defs>
    <style>
      .cls-1 {
        fill: #96bb7c;
      }

      .cls-2 {
        fill: none;
        stroke: #96bb7c;
        stroke-linecap: round;
        stroke-linejoin: round;
        stroke-width: 0.968px;
      }
    </style>
  </defs>
  <g id="girl-doing-shopping-with-cart" transform="translate(-159.187 -72.085)">
    <path id="Caminho_148" data-name="Caminho 148" class="cls-1" d="M364.453,349.1a1.118,1.118,0,0,1,.087.281l.059.371.116.742.216,1.485.387,2.977c.235,1.987.444,3.977.639,5.969.379,3.984.723,7.972.956,11.967q.734,11.983.969,23.989c.152,8,.124,16,.065,24.006-.054,4-.116,8-.235,12l-.438,11.993-.783-.993,51.284,10.331,25.665,5.042,12.847,2.426,6.431,1.146,3.217.526,1.6.229.792.09.38.028.168,0c.042.005.1-.019,0,.018l-.116.062c3.2-2.1,6.454-4.058,9.744-5.977,3.3-1.9,6.661-3.691,10.1-5.321a80.264,80.264,0,0,1,10.576-4.354,45.078,45.078,0,0,1,5.576-1.409,20.974,20.974,0,0,1,5.808-.323l-.592.557q-.888-13.392-1.932-26.776l-2.1-26.759c-.74-8.915-1.488-17.829-2.391-26.721-.452-4.445-.935-8.887-1.51-13.306-.289-2.208-.6-4.413-.976-6.591-.188-1.087-.394-2.17-.635-3.222-.12-.523-.25-1.044-.4-1.522a6.848,6.848,0,0,0-.24-.652c-.042-.089-.08-.161-.106-.2.008-.015-.068,0,.252.165l.445.1c-12.177-.294-24.386-.352-36.563-.06-6.088.173-12.176.37-18.231.828-3.026.232-6.047.526-9.024.979-1.486.23-2.966.5-4.4.862a10.5,10.5,0,0,0-3.779,1.567l-.038.032a.92.92,0,0,1-.537.213c-10.449.619-20.929,1.111-31.473,1.645Zm-.181-.145,31.5-2.514c10.587-.826,21.238-1.693,31.919-2.434l-.575.244a11.807,11.807,0,0,1,4.551-2.06c1.523-.412,3.048-.707,4.574-.967,3.052-.509,6.109-.85,9.165-1.129,6.114-.548,12.231-.862,18.348-1.025,12.236-.331,24.455-.31,36.692-.053h.058a.924.924,0,0,1,.388.1,1.951,1.951,0,0,1,.843.746,4.517,4.517,0,0,1,.29.535,9.15,9.15,0,0,1,.346.919c.188.588.329,1.154.462,1.72.255,1.13.454,2.249.639,3.367.365,2.236.662,4.466.936,6.7.544,4.461.992,8.922,1.409,13.385q1.234,13.388,2.154,26.787c.606,8.934,1.2,17.868,1.681,26.808l1.385,26.822a.528.528,0,0,1-.495.56.629.629,0,0,1-.1,0,27.133,27.133,0,0,0-11.015,1.46,79.511,79.511,0,0,0-10.518,4.2c-3.4,1.659-6.718,3.5-9.975,5.43s-6.449,3.992-9.516,6.184l-.02.015a.359.359,0,0,1-.1.048,1.209,1.209,0,0,1-.4.066l-.241,0-.436-.028-.833-.087-1.635-.219-3.242-.5-6.456-1.093-12.879-2.316-25.716-4.826c-17.132-3.275-34.26-6.559-51.362-9.99a.976.976,0,0,1-.783-.983v-.01l.338-11.975.277-11.976c.141-7.984.252-15.97.183-23.954-.023-7.984-.1-15.971-.4-23.95-.159-3.989-.3-7.98-.532-11.966-.116-1.993-.246-3.986-.4-5.976Z" transform="translate(40.735 52.98)"/>
    <path id="Caminho_149" data-name="Caminho 149" class="cls-1" d="M366.64,352.317c-2.156-2.85-4.207-5.77-6.307-8.657a.486.486,0,0,1,.016-.594l.023-.028a63.763,63.763,0,0,1,8.255-8.289,64.772,64.772,0,0,1,9.6-6.756,49.874,49.874,0,0,1,10.876-4.612,36.907,36.907,0,0,1,11.793-1.4l.028,0a1.03,1.03,0,0,1,.856.546q3.362,6.361,6.587,12.8,1.625,3.211,3.177,6.463c1.045,2.162,2.1,4.319,3.093,6.508-1.3-2.021-2.546-4.075-3.8-6.124s-2.5-4.1-3.714-6.17q-3.662-6.2-7.193-12.467l.883.548a37.954,37.954,0,0,0-11.086,1.507,50.98,50.98,0,0,0-10.424,4.34,72.561,72.561,0,0,0-9.547,6.221,80.965,80.965,0,0,0-8.6,7.556l.039-.621C363.015,346.166,364.88,349.207,366.64,352.317Z" transform="translate(39.934 49.629)"/>
    <path id="Caminho_150" data-name="Caminho 150" class="cls-1" d="M407.364,348.555a40.247,40.247,0,0,1,3.044-8.12,40.822,40.822,0,0,1,4.647-7.4l1.4-1.7c.493-.545,1.024-1.055,1.536-1.585A37.99,37.99,0,0,1,421.3,326.8c.579-.462,1.219-.842,1.831-1.262a16.279,16.279,0,0,1,1.892-1.173,28.874,28.874,0,0,1,4.043-1.886l2.1-.768c.709-.228,1.449-.343,2.173-.519l2.208-.478a4.108,4.108,0,0,1,2.841.665,3.993,3.993,0,0,1,1.064,1.052c.239.369.42.663.618,1.008a15.565,15.565,0,0,1,.993,2.1,11.392,11.392,0,0,1,.789,4.7,9.722,9.722,0,0,1-1.539,4.6,10.668,10.668,0,0,1-1.541,1.821c-.289.266-.562.555-.865.8l-.939.675a27.92,27.92,0,0,1-8.182,3.6l.25-.116c-1.691,1.083-3.368,2.285-4.969,3.539a56.535,56.535,0,0,0-4.654,4,7.406,7.406,0,0,1-6.2,1.544,16.119,16.119,0,0,1-5.852-2.141Zm0,0a18.565,18.565,0,0,0,2.917,1,14,14,0,0,0,3,.5,6.543,6.543,0,0,0,5.311-1.758,57.84,57.84,0,0,1,4.469-4.37c1.589-1.368,3.215-2.653,4.947-3.879a.7.7,0,0,1,.173-.09l.077-.026a27.643,27.643,0,0,0,7.455-3.543l.8-.6c.252-.213.465-.461.7-.687a9.347,9.347,0,0,0,1.226-1.478,7.455,7.455,0,0,0,1.141-3.5,9.113,9.113,0,0,0-.681-3.75,15.038,15.038,0,0,0-.838-1.8c-.156-.281-.353-.6-.5-.838a1.7,1.7,0,0,0-.457-.462,1.831,1.831,0,0,0-1.267-.308l-2.014.424c-.675.158-1.368.254-2.029.462l-1.97.669A26.749,26.749,0,0,0,426,326.166a14.747,14.747,0,0,0-1.8,1.051c-.584.38-1.2.718-1.765,1.124a37.792,37.792,0,0,0-6.237,5.646,48.675,48.675,0,0,0-8.836,14.567Z" transform="translate(49.294 49.376)"/>
    <circle id="Elipse_16" data-name="Elipse 16" class="cls-1" cx="14.603" cy="14.603" r="14.603" transform="translate(375.367 506.414)"/>
    <path id="Caminho_151" data-name="Caminho 151" class="cls-1" d="M278.13,429.932c.257,2.06.514,4.131.7,6.208.136,2.079.238,4.166.214,6.252-.02,4.169-.276,8.352-.543,12.461-.227,4.06-.372,8.311,1.8,11.451a11.728,11.728,0,0,0,4.2,3.772,13.879,13.879,0,0,0,5.538,1.449,15.854,15.854,0,0,0,2.924-.113c.937-.129,2.02-.375,3.058-.514a42.8,42.8,0,0,1,6.307-.461,44.25,44.25,0,0,1,12.426,1.8,41.734,41.734,0,0,1,5.854,2.265c.968.405,1.856.968,2.789,1.445a23.926,23.926,0,0,0,2.743,1.35,30.68,30.68,0,0,0,12,2.065,32.365,32.365,0,0,0,11.834-2.269,12.047,12.047,0,0,0,2.508-1.417,4.4,4.4,0,0,0,1.588-1.932,1.632,1.632,0,0,0,.121-.518.411.411,0,0,0,.008-.21.363.363,0,0,0-.031-.176,2.371,2.371,0,0,0-.553-.908,12.43,12.43,0,0,0-2.163-1.847c-1.638-1.153-3.41-2.211-5.185-3.264-1.79-1.051-3.55-2.081-5.371-3.027-3.619-1.927-7.35-3.6-11.17-5.227a48.578,48.578,0,0,1-11.123-6.13,35.525,35.525,0,0,1-8.313-9.667c-4.046-7.3-7.989-14.562-11.834-21.937a.116.116,0,0,1,.2-.117c4.5,6.972,8.863,14.073,13.181,21.107a33.518,33.518,0,0,0,8.128,8.841,49.681,49.681,0,0,0,10.736,5.628,116.543,116.543,0,0,1,11.341,5.373c1.843,1,3.645,2.1,5.412,3.186s3.547,2.2,5.28,3.468a14.337,14.337,0,0,1,2.505,2.245,4.367,4.367,0,0,1,.96,1.775,2.634,2.634,0,0,1,.044,1.152,3.6,3.6,0,0,1-.265.982,6.339,6.339,0,0,1-2.352,2.77,13.882,13.882,0,0,1-2.947,1.547,32.17,32.17,0,0,1-12.556,1.841,34.441,34.441,0,0,1-12.3-2.584,24.749,24.749,0,0,1-2.813-1.441c-.906-.481-1.769-1.049-2.711-1.46a35.033,35.033,0,0,0-5.752-2.187,38.959,38.959,0,0,0-6.047-1.118,43.438,43.438,0,0,0-6.135-.112,42.184,42.184,0,0,0-6.067.768c-1.011.19-1.941.461-3.049.678a15.585,15.585,0,0,1-3.276.28,14.878,14.878,0,0,1-6.439-1.554,12.84,12.84,0,0,1-4.934-4.484,13.45,13.45,0,0,1-2-6.321,40.869,40.869,0,0,1,.126-6.365c.349-4.165.9-8.245,1.1-12.374.1-2.061.188-4.124.214-6.192l-.145-6.208v-.008a.116.116,0,0,1,.231-.017Z" transform="translate(23.308 69.235)"/>
    <path id="Caminho_152" data-name="Caminho 152" class="cls-1" d="M354.806,468.135s-2.888,7.691-23.745,5.522c-.858-7.772,10-17.678,10-17.678-.928-1.972-4.7-3.631-8.294-4.8a1.772,1.772,0,0,1-.986,3.19,1.741,1.741,0,0,1,0-3.48h.035c-3.329-1.021-6.264-1.6-6.264-1.6-8.282-.534-14.488,16.866-14.488,16.866s-.267.128-1.67-.29c-9.767-2.935-24.777,5.232-29.963-4.06,0,0-2.656,3.666,2.83,8.074l-2.888,6.276h18.92l6.612-2.807v-5.208s17.875,6.241,27.063,9.025C342.893,480.466,358.925,476.151,354.806,468.135Zm-33.466,1.682a1.741,1.741,0,1,1,1.7-1.74,1.741,1.741,0,0,1-1.7,1.74Zm4.594-8.352a1.741,1.741,0,1,1,1.7-1.74,1.741,1.741,0,0,1-1.7,1.74Z" transform="translate(23.755 74.918)"/>
    <path id="Caminho_153" data-name="Caminho 153" class="cls-1" d="M210.757,447.835a26.68,26.68,0,0,1-2.633-10.544v-.07c.035-.823.128-1.647.2-2.471s.151-1.659.244-2.482a.124.124,0,0,1,.128-.1c.058.012.1.047.1.1.1.824.186,1.647.267,2.471s.174,1.613.22,2.413a25.944,25.944,0,0,0,3,9.8,26.23,26.23,0,0,0,5.893,6.334c.406.336.824.673,1.241,1.009,1.612,1.264,3.248,2.529,4.884,3.782a1.722,1.722,0,0,0-1.253,2.018c-1.694-1.346-3.364-2.714-5.011-4.141-.812-.7-1.624-1.415-2.413-2.169A24.8,24.8,0,0,1,210.757,447.835Z" transform="translate(9.72 71.52)"/>
    <path id="Caminho_154" data-name="Caminho 154" class="cls-1" d="M250.091,480.194a4.309,4.309,0,0,1-.789,1.717,5.388,5.388,0,0,1-1.032,1.079,11.525,11.525,0,0,1-5.44,2.03,33.163,33.163,0,0,1-10.881-.487,43.971,43.971,0,0,1-10.231-3.387c-.661-.325-1.322-.673-1.96-1.044a26.864,26.864,0,0,1-3.028-1.949,22.4,22.4,0,0,1-3.689-3.341,36.7,36.7,0,0,0-8-6.786,30.861,30.861,0,0,0-4.7-2.3,30.387,30.387,0,0,0-5.023-1.38,38.511,38.511,0,0,0-5.185-.568,16.754,16.754,0,0,1-5.452-1.218,14.551,14.551,0,0,1-4.71-3.132,11.63,11.63,0,0,1-2.784-4.188,7.38,7.38,0,0,1-.22-.719,11.66,11.66,0,0,1-.128-5.753,18.716,18.716,0,0,1,2.03-5.2,33.37,33.37,0,0,1,6.856-8.352,13.236,13.236,0,0,0,4.222-9.106.109.109,0,0,1,.116-.116.1.1,0,0,1,.116.093,10.4,10.4,0,0,1-.615,5.371,15.218,15.218,0,0,1-2.83,4.7,35.894,35.894,0,0,0-6.218,8.305c-1.531,2.993-2.54,6.415-1.566,9.466a9.534,9.534,0,0,0,2.482,4.048,13.476,13.476,0,0,0,4.025,2.819,15.5,15.5,0,0,0,4.8,1.345,39.72,39.72,0,0,1,5.336.893,32.543,32.543,0,0,1,5.127,1.74c.394.174.777.36,1.16.557a.2.2,0,0,1,.058.023c1.218.615,2.39,1.276,3.526,2a46.09,46.09,0,0,1,8.143,6.937,23.674,23.674,0,0,0,8.561,5.846,40.6,40.6,0,0,0,10.057,2.772c1.056.151,2.111.278,3.167.348a28.48,28.48,0,0,0,7.111-.267,9.9,9.9,0,0,0,4.4-1.693,2.772,2.772,0,0,0,.731-3.526,13,13,0,0,0-2.819-3.9,44.359,44.359,0,0,0-3.9-3.387l-3.956-3.132-4.362-3.445-1.485-1.172a1.641,1.641,0,0,0,1.543-1.833c2.239,1.705,4.478,3.422,6.693,5.162,1.044.835,2.076,1.659,3.109,2.494a37.485,37.485,0,0,1,4.072,3.642,15.305,15.305,0,0,1,3.248,4.744A5.639,5.639,0,0,1,250.091,480.194Z" transform="translate(3.446 70.295)"/>
    <path id="Caminho_155" data-name="Caminho 155" class="cls-1" d="M249.777,477.216c-.012-.116-.023-.232-.046-.348,0,0-3.132,4.014-13.862,1.693a57.178,57.178,0,0,1-10.452-3.457c1.056-5.44,8.039-10.162,12.017-12.447,1.079-.615,1.926-1.055,2.39-1.288.244-.128.383-.186.383-.186-.6-4.385-12.83-10.985-12.83-10.985a6.088,6.088,0,0,0-2.448-.383,8.424,8.424,0,0,0-2.552.5c-6.786,2.3-13.839,11.693-13.839,11.693s-1.45,1.206-2.668.383a16.6,16.6,0,0,0-3.457-1.728.194.194,0,0,0-.058-.023c-8.909-3.318-21.982-1.891-23.9-11.008a4.015,4.015,0,0,0-.8.917c-.777,1.23-1.52,3.747,1.1,7.644l-4.617,5.139,18.073,5.6,7.146-.719,1.554-4.976s8.549,5.278,16.286,10.22q1.549.992,3.028,1.949c1.844,1.195,3.573,2.332,5.011,3.306C234.57,485.035,250.857,485.731,249.777,477.216Zm-25-13.734a1.741,1.741,0,1,1,1.684-1.74,1.741,1.741,0,0,1-1.684,1.74Zm6.287-8.874a2.169,2.169,0,0,1,.394-.035,1.619,1.619,0,0,1,1.67,1.635,1.641,1.641,0,0,1-1.543,1.833.482.482,0,0,1-.128.012,1.611,1.611,0,0,1-1.659-1.427,1.722,1.722,0,0,1,1.253-2.018Zm-12.551,11.24a1.741,1.741,0,1,1-1.684,1.74,1.741,1.741,0,0,1,1.684-1.74Z" transform="translate(2.971 74.989)"/>
    <path id="Caminho_156" data-name="Caminho 156" class="cls-1" d="M232.631,116.119l-.683.4c-.247.092-.51.158-.77.235a6.6,6.6,0,0,1-.816.007,3.779,3.779,0,0,1-.791-.21,5.4,5.4,0,0,1-2.375-2.123,9.3,9.3,0,0,1-1.3-6.156l.134-.8.225-.783a4.728,4.728,0,0,1,.748-1.554,2.618,2.618,0,0,1,1.667-1.068,3.432,3.432,0,0,1,1.881.285,9.673,9.673,0,0,1,2.692,1.9,19.185,19.185,0,0,1,2.12,2.373l-.489-.338a5.7,5.7,0,0,0,3.267-.421,16.58,16.58,0,0,0,3.215-1.771,43.031,43.031,0,0,0,5.774-4.94A135.526,135.526,0,0,0,257.32,89.6l.041-.052a.873.873,0,0,1,1.227-.14.886.886,0,0,1,.25.32c.55,1.2,1.017,2.388,1.459,3.606s.833,2.445,1.156,3.7a25.8,25.8,0,0,1,.732,3.834,13.058,13.058,0,0,1-.1,3.969l-.039-.31a13.8,13.8,0,0,0,1.91,2.972,11.142,11.142,0,0,0,2.63,2.348l.019.012a.345.345,0,0,1,.155.226,4.176,4.176,0,0,1,.012,1.544,2.849,2.849,0,0,1-.684,1.423,2.944,2.944,0,0,1-1.341.817,6.265,6.265,0,0,1-.744.159l-.742.042.348-.373a25.572,25.572,0,0,1-.2,4.658,21.967,21.967,0,0,1-1.068,4.547,16.586,16.586,0,0,1-2.226,4.166,11.931,11.931,0,0,1-3.7,3.05.412.412,0,0,1-.137.045l-.069.009a9.63,9.63,0,0,0-6.981,4.042,6.829,6.829,0,0,0-.744,1.844,10.993,10.993,0,0,0-.247,2.059l-.2,4.474-.2-.644c2.3,2.906,4.47,5.876,6.524,8.965,1.017,1.552,2.022,3.113,2.931,4.763.447.834.9,1.661,1.276,2.566a10.145,10.145,0,0,1,.873,3.03,1.141,1.141,0,0,1-1.533,1.2l-.046-.018a104.366,104.366,0,0,1-10.221-4.758c-3.312-1.69-6.546-3.514-9.784-5.324s-6.413-3.726-9.6-5.626-6.344-3.831-9.485-5.8l-.012-.008a.836.836,0,0,1-.266-1.152.849.849,0,0,1,.192-.214,21.889,21.889,0,0,0,3.742-3.857,20.224,20.224,0,0,0,2.684-4.713,15.856,15.856,0,0,0,1.211-5.3,18.372,18.372,0,0,0-.553-5.483l0-.011a.116.116,0,0,1,.224-.059,17.285,17.285,0,0,1,1.014,5.568,16.359,16.359,0,0,1-.882,5.655,21.441,21.441,0,0,1-2.581,5.143,23.221,23.221,0,0,1-3.831,4.372l-.086-1.373,9.66,5.45L239,150.315c3.239,1.772,6.511,3.477,9.775,5.186,1.637.843,3.277,1.678,4.931,2.471,1.637.778,3.345,1.614,4.926,2.229l-1.579,1.185a8.362,8.362,0,0,0-.645-2.235c-.314-.8-.726-1.59-1.131-2.379-.833-1.58-1.787-3.125-2.753-4.659-1.966-3.05-4.058-6.056-6.208-8.987l-.023-.032a.918.918,0,0,1-.175-.613l.34-4.487a11.457,11.457,0,0,1,.385-2.373,8.47,8.47,0,0,1,1.04-2.252,9.231,9.231,0,0,1,3.684-3.115,13.479,13.479,0,0,1,4.546-1.245l-.205.055a10.862,10.862,0,0,0,3.445-2.61,13.739,13.739,0,0,0,2.2-3.838,21.162,21.162,0,0,0,1.094-4.363,24.914,24.914,0,0,0,.264-4.5.359.359,0,0,1,.344-.373h0a4.59,4.59,0,0,0,1.274-.181,2.226,2.226,0,0,0,1.013-.624,2.727,2.727,0,0,0,.477-2.31l.173.237a12.36,12.36,0,0,1-2.894-2.433,16.607,16.607,0,0,1-2.17-3.1.421.421,0,0,1-.046-.264l.007-.046a12.013,12.013,0,0,0-.1-3.619,24.525,24.525,0,0,0-.886-3.605c-.371-1.188-.81-2.359-1.294-3.512s-1.007-2.3-1.569-3.385l1.518.128c-1.515,2.161-3.142,4.194-4.822,6.21a78.376,78.376,0,0,1-5.373,5.756,44.905,44.905,0,0,1-6.149,5.048,18.367,18.367,0,0,1-3.631,1.9,7.4,7.4,0,0,1-4.353.4.84.84,0,0,1-.476-.32l-.013-.018a13.115,13.115,0,0,0-3.992-3.951c-.794-.375-1.41-.364-1.909.261a3.505,3.505,0,0,0-.607,1.147l-.229.668-.149.692a8.733,8.733,0,0,0,.788,5.585,4.779,4.779,0,0,0,1.937,2.026,2.707,2.707,0,0,0,2.72-.14l.009-.006a.116.116,0,1,1,.123.2Z" transform="translate(11.755 3.404)"/>
    <path id="Caminho_157" data-name="Caminho 157" class="cls-1" d="M231.434,114.02c1.906,1.992,3.527,3.837,5.365,5.43a22.5,22.5,0,0,0,2.9,2.16,33.024,33.024,0,0,0,3.423,1.807,7.666,7.666,0,0,1-4.162-.139,10.1,10.1,0,0,1-3.687-2.077,12.151,12.151,0,0,1-2.612-3.25,9.658,9.658,0,0,1-1.232-3.93Z" transform="translate(14.35 8.329)"/>
    <path id="Caminho_158" data-name="Caminho 158" class="cls-1" d="M230.624,117.984a10.5,10.5,0,0,1-3.519,3.9,3.436,3.436,0,0,1-2.785.422,3.954,3.954,0,0,1-1.292-.73,9.871,9.871,0,0,1-.938-1.056,30.322,30.322,0,0,1-4.584-9.569,24.824,24.824,0,0,1-.691-10.73,21.418,21.418,0,0,1,4.5-9.867,23.9,23.9,0,0,1,8.5-6.7,22.092,22.092,0,0,1,10.625-1.793,27.42,27.42,0,0,1,10.241,2.829,24.165,24.165,0,0,1,2.3,1.318l1.107.724,1.04.821a10,10,0,0,1,3.275,4.057,10.848,10.848,0,0,0-3.641-3.563l-1.078-.689-1.138-.59a23.208,23.208,0,0,0-2.331-1.04,28.389,28.389,0,0,0-9.86-2.058,21.171,21.171,0,0,0-9.627,1.983,22.054,22.054,0,0,0-7.605,6.145,19.5,19.5,0,0,0-4.158,8.817,24.271,24.271,0,0,0,.284,9.891c.146.829.439,1.624.65,2.441.289.792.532,1.606.866,2.385a28.761,28.761,0,0,0,2.256,4.552,9.1,9.1,0,0,0,.692.965,3.054,3.054,0,0,0,.9.636,2.689,2.689,0,0,0,2.21-.145,11.478,11.478,0,0,0,3.8-3.354Z" transform="translate(11.388 1.928)"/>
    <path id="Caminho_159" data-name="Caminho 159" class="cls-1" d="M222.623,131.95a12.856,12.856,0,0,0-5.022.916,17.6,17.6,0,0,0-2.279,1.1,20.826,20.826,0,0,0-2.032,1.489,19.278,19.278,0,0,0-3.318,3.77c-.438.723-.906,1.423-1.33,2.15l-1.069,2.309a19.133,19.133,0,0,0-.9,2.384c-.26.813-.6,1.6-.794,2.431l-.6,2.5a20.03,20.03,0,0,0-.539,2.518c-.259,1.7-.638,3.39-.837,5.111l-.589,5.177v-.071c.075,3.923.112,7.846.3,11.761q.251,5.874.726,11.738l.913,11.735c.246,3.919.485,7.831.544,11.787l0,.094,0,.024c-.177,1.721-.422,3.389-.734,5.078a33.339,33.339,0,0,1-1.3,5.044l-.034.082-.038.078a2.13,2.13,0,0,0-.15.7,1.792,1.792,0,0,0,.136.735,2.945,2.945,0,0,0,1.227,1.279,12.669,12.669,0,0,0,4.4,1.435,54.993,54.993,0,0,0,10.027.48c3.39-.124,6.795-.372,10.2-.681s6.808-.723,10.223-1.1a.116.116,0,0,1,.129.1.118.118,0,0,1-.088.127c-3.339.809-6.694,1.581-10.091,2.15a102.109,102.109,0,0,1-10.266,1.358,48.8,48.8,0,0,1-10.5-.084,14.554,14.554,0,0,1-5.339-1.677,5.383,5.383,0,0,1-2.2-2.44,4.316,4.316,0,0,1,.129-3.557l-.072.16a35.915,35.915,0,0,0,1.307-4.656c.34-1.6.626-3.241.835-4.849l-.006.118c.015-3.882-.036-7.8-.089-11.718l-.133-11.757q-.1-5.879-.472-11.746c-.227-3.912-.622-7.815-1-11.717l0-.048v-.024l.206-5.3a20.576,20.576,0,0,1,.262-2.649l.361-2.645a21.324,21.324,0,0,1,.538-2.62l.653-2.6c.225-.865.593-1.7.884-2.545a17.681,17.681,0,0,1,1.019-2.5,21.626,21.626,0,0,1,6.634-8.516,22.008,22.008,0,0,1,2.331-1.424,15.108,15.108,0,0,1,2.559-.926,12,12,0,0,1,5.332-.3.116.116,0,0,1-.024.229Z" transform="translate(8.317 11.811)"/>
    <path id="Caminho_160" data-name="Caminho 160" class="cls-1" d="M210.909,168.253a32.215,32.215,0,0,0,1.135,8.35c.682,2.737,1.453,5.454,2.392,8.111a54.225,54.225,0,0,0,3.286,7.677,5.993,5.993,0,0,0,1.041,1.444c.046.05.056.039.056.039s-.019,0,.022.021l.164.074a2.983,2.983,0,0,1,.627.346,3.881,3.881,0,0,1,.977.961,6.618,6.618,0,0,1,1.023,2.248,10.81,10.81,0,0,1,.354,2.335l0,.071-.007.073a23.944,23.944,0,0,0,.2,6.222,11.214,11.214,0,0,0,2.28,5.443,5.723,5.723,0,0,0,1.043.956l.576.414.65.3a14.536,14.536,0,0,0,2.917.94,8.009,8.009,0,0,0,2.928.132,3.272,3.272,0,0,0,1.2-.481,1.972,1.972,0,0,0,.682-.863l.856.809a10.389,10.389,0,0,1-1.9.225,8.461,8.461,0,0,1-1.912-.169,7.9,7.9,0,0,1-1.819-.614,6.434,6.434,0,0,1-1.628-1.086l-.014-.013a.331.331,0,0,1-.07-.093,8.087,8.087,0,0,1-.893-4.15,11.745,11.745,0,0,1,1.134-4,18.428,18.428,0,0,1,.988-1.807c.406-.55.755-1.145,1.209-1.656a21.711,21.711,0,0,1,2.822-2.964,16.465,16.465,0,0,1,3.415-2.3,7.22,7.22,0,0,1,.967-.408,4.5,4.5,0,0,1,1.025-.294,14.248,14.248,0,0,0,1.909-.439,8.465,8.465,0,0,0,4.989-5.316.765.765,0,0,1,.1-.19c.78-1.045,1.582-2.079,2.466-3.065a14.554,14.554,0,0,1,3.068-2.692,4.477,4.477,0,0,1,2.233-.737,2.886,2.886,0,0,1,2.356,1.205,5.877,5.877,0,0,1,.945,2.08,10.513,10.513,0,0,1,.318,2.119l-1.487-.8a4.731,4.731,0,0,0,2.1-3.008,5.855,5.855,0,0,0-.5-3.739,3.5,3.5,0,0,0-1.019-1.332c-.091-.083-.121-.036-.17-.1,0,.02.02.029.033.02-.015,0,.061-.021-.033-.015l-.275.009a2.412,2.412,0,0,1-1.058-.226,3.13,3.13,0,0,1-.747-.549,6.258,6.258,0,0,1-1.378-2.415,14.929,14.929,0,0,1-.616-2.411l.018.094c-.324-1.145-.606-2.3-.961-3.436-.393-1.121-.718-2.267-1.173-3.363a50.1,50.1,0,0,0-2.962-6.458,47.565,47.565,0,0,0-3.86-5.943,33.853,33.853,0,0,0-4.755-5.1l.241.137-5.618-2.427.222.063-1.836-.21a10.779,10.779,0,0,0-1.839-.142,18.371,18.371,0,0,0-3.659.272,19.061,19.061,0,0,0-3.557.9,19.509,19.509,0,0,0-3.271,1.707,21.728,21.728,0,0,0-5.407,5.137,27.075,27.075,0,0,0-3.653,6.654l0,.008a.116.116,0,0,1-.221-.07,25.479,25.479,0,0,1,3.171-7.082,21.246,21.246,0,0,1,5.352-5.745,20.915,20.915,0,0,1,3.436-2.038,19.752,19.752,0,0,1,3.83-1.2,20.154,20.154,0,0,1,3.988-.432,12.122,12.122,0,0,1,2,.084l1.995.164a.539.539,0,0,1,.149.034l.073.029,5.7,2.236a1.008,1.008,0,0,1,.241.137,31.682,31.682,0,0,1,5.307,5.407,46.922,46.922,0,0,1,4.156,6.215,52.561,52.561,0,0,1,3.1,6.788c.482,1.148.785,2.357,1.177,3.535.349,1.191.621,2.4.934,3.6l.013.065,0,.03a12.754,12.754,0,0,0,.474,2.009,4.3,4.3,0,0,0,.787,1.551c.151.158.184.154.2.143l.01.011c0,.007.172,0,.251,0a3.9,3.9,0,0,1,.6.059,3.448,3.448,0,0,1,.843.414,5.531,5.531,0,0,1,1.739,2.233,7.96,7.96,0,0,1,.575,5.14,6.77,6.77,0,0,1-3.1,4.179l-.021.012a.973.973,0,0,1-1.332-.345.984.984,0,0,1-.134-.471,6.24,6.24,0,0,0-.777-3.147,1.08,1.08,0,0,0-.914-.541,2.969,2.969,0,0,0-1.4.428,13.118,13.118,0,0,0-2.83,2.261c-.883.891-1.712,1.853-2.523,2.834l.1-.189a10.792,10.792,0,0,1-2.308,3.579,8.182,8.182,0,0,1-3.609,2.215c-.651.231-1.461.253-2.025.4a3.782,3.782,0,0,0-.909.246,6.451,6.451,0,0,0-.892.359,15.707,15.707,0,0,0-3.279,2.138,17.864,17.864,0,0,0-4.833,6.163,10.115,10.115,0,0,0-.963,3.728,6.746,6.746,0,0,0,.918,3.587l-.083-.1a5.541,5.541,0,0,0,1.38.8,6.727,6.727,0,0,0,1.578.439,7.194,7.194,0,0,0,1.637.054,9.047,9.047,0,0,0,1.624-.282l.038-.009a.675.675,0,0,1,.818.493.685.685,0,0,1,0,.326,3.731,3.731,0,0,1-2.917,2.62,9.564,9.564,0,0,1-3.582.051,15.955,15.955,0,0,1-3.356-.9l-.849-.367c-.262-.161-.517-.34-.775-.512a7.675,7.675,0,0,1-1.4-1.212,12.074,12.074,0,0,1-1.1-1.457,12.785,12.785,0,0,1-.789-1.609,15.919,15.919,0,0,1-.945-3.365,24.546,24.546,0,0,1-.1-6.838l-.009.144a6.863,6.863,0,0,0-.933-3.5,2.032,2.032,0,0,0-.519-.539,1.222,1.222,0,0,0-.3-.175,3.41,3.41,0,0,1-.669-.408,7.221,7.221,0,0,1-1.444-1.992,44.347,44.347,0,0,1-3.1-8.106,70.548,70.548,0,0,1-1.964-8.363,29.26,29.26,0,0,1-.415-8.569.116.116,0,0,1,.131-.1A.122.122,0,0,1,210.909,168.253Z" transform="translate(10.009 14.338)"/>
    <path id="Caminho_161" data-name="Caminho 161" class="cls-1" d="M242.322,133.755a5.115,5.115,0,0,1,1.846-.325,8.657,8.657,0,0,1,1.835.177,7.37,7.37,0,0,1,3.325,1.574,10.61,10.61,0,0,1-1.831-.132c-.588-.082-1.161-.192-1.733-.308A22.334,22.334,0,0,1,242.322,133.755Z" transform="translate(16.513 12.184)"/>
    <path id="Caminho_162" data-name="Caminho 162" class="cls-1" d="M255.425,139.537a30.377,30.377,0,0,1,7.845,10.225c1.914,3.809,3.834,7.613,5.868,11.331,1,1.865,2.039,3.711,3.159,5.475.564.868,1.138,1.76,1.736,2.5.178.251.694.674,1.053,1.055q.583.581,1.143,1.183a24.909,24.909,0,0,1,3.958,5.374,6.88,6.88,0,0,1,.918,3.587,3.35,3.35,0,0,1-.854,2,4.559,4.559,0,0,1-1.7,1.065.847.847,0,0,1-1.1-.473.963.963,0,0,1-.037-.117,17.55,17.55,0,0,0-1.151-3.357,5.2,5.2,0,0,0-2.1-2.506,2.9,2.9,0,0,0-3.022.747,16.407,16.407,0,0,0-2.5,2.73,12.986,12.986,0,0,1,2.122-3.148,5.436,5.436,0,0,1,1.618-1.178,3,3,0,0,1,2.152-.123,5.965,5.965,0,0,1,2.977,2.805,15.891,15.891,0,0,1,1.565,3.618l-1.137-.591a2.844,2.844,0,0,0,.958-.672,1.476,1.476,0,0,0,.3-.923,5.365,5.365,0,0,0-.823-2.495,26.8,26.8,0,0,0-3.779-4.8q-.539-.563-1.1-1.107c-.375-.4-.723-.62-1.217-1.2a24.292,24.292,0,0,1-1.928-2.749c-1.146-1.859-2.176-3.754-3.172-5.665-1.942-3.845-3.7-7.757-5.315-11.728a36.344,36.344,0,0,0-6.435-10.864Z" transform="translate(19.115 13.397)"/>
    <path id="Caminho_163" data-name="Caminho 163" class="cls-1" d="M274.458,175.407c1.536,1.442,2.991,2.945,4.425,4.465s2.839,3.062,4.2,4.637,2.732,3.144,4.047,4.757c1.342,1.591,2.638,3.217,3.92,4.854l-.375-.357L300.2,200.3l9.5,6.579,6.836,5.018,1.705,3.142s-6.789-3.752-10.111-5.741c-3.3-2.028-6.592-4.058-9.81-6.2s-6.441-4.274-9.594-6.529l-.027-.02a1.673,1.673,0,0,1-.348-.338c-1.258-1.655-2.5-3.321-3.7-5.023-1.226-1.68-2.408-3.395-3.575-5.121s-2.3-3.475-3.42-5.24S275.464,177.258,274.458,175.407Z" transform="translate(22.895 20.522)"/>
    <path id="Caminho_164" data-name="Caminho 164" class="cls-1" d="M263.352,194.358a65.97,65.97,0,0,0,7.093,7.925,58.859,58.859,0,0,0,8.168,6.579,56.826,56.826,0,0,0,9.151,5.1c1.582.778,3.245,1.351,4.9,1.993a26.513,26.513,0,0,0,2.526.853q1.276.4,2.558.86c-.9-.061-1.794-.136-2.694-.231a21.54,21.54,0,0,1-2.69-.383,36.565,36.565,0,0,1-5.265-1.407,38.871,38.871,0,0,1-5.062-2.087c-.839-.369-1.6-.89-2.4-1.329a24.194,24.194,0,0,1-2.328-1.451c-.739-.54-1.511-1.034-2.22-1.612l-2.119-1.74a47.078,47.078,0,0,1-3.834-3.9,32.748,32.748,0,0,1-5.786-9.167Z" transform="translate(20.69 24.286)"/>
    <path id="Caminho_165" data-name="Caminho 165" class="cls-1" d="M206.483,210.489a7.617,7.617,0,0,1,1.3,2.152,11.063,11.063,0,0,1,.649,2.265,10.858,10.858,0,0,1,.159,2.351,7.528,7.528,0,0,1-.5,2.465,7.529,7.529,0,0,1-1.3-2.151,10.862,10.862,0,0,1-.646-2.266,11.055,11.055,0,0,1-.155-2.351A7.616,7.616,0,0,1,206.483,210.489Z" transform="translate(9.294 27.49)"/>
    <path id="Caminho_166" data-name="Caminho 166" class="cls-1" d="M214.132,218.263a103.643,103.643,0,0,0-6.806,20.639,102.562,102.562,0,0,0-2.478,21.533,79.731,79.731,0,0,0,.628,10.8A72.35,72.35,0,0,0,216.3,301.46l0,.007a.9.9,0,0,1,.1.722q-5.609,19.189-11.534,38.27c-3.913,12.736-8.054,25.4-12.3,38.034q-6.34,18.957-13.521,37.631c-2.415,6.214-4.9,12.4-7.64,18.494-1.371,3.043-2.8,6.064-4.394,9.012-.79,1.476-1.635,2.928-2.569,4.334a14.217,14.217,0,0,1-3.423,3.858l.025-.75a107.976,107.976,0,0,0,10.89,6.488c3.741,1.991,7.583,3.791,11.467,5.489a191.338,191.338,0,0,0,23.954,8.53,224.384,224.384,0,0,0,50.114,8.131,256.98,256.98,0,0,0,50.682-2.624A311.716,311.716,0,0,0,357.547,465.4l-.708,1.458-18.05-48.407L320.882,370l-17.753-48.517L285.5,272.915l0-.008a.59.59,0,0,1-.034-.227L286.65,250l.554-11.343c.167-3.781.346-7.564.419-11.345a.116.116,0,0,1,.116-.116.118.118,0,0,1,.116.116c.013,3.791-.081,7.576-.161,11.362l-.3,11.356q-.319,11.355-.735,22.706l-.037-.235,18.287,48.319,18.16,48.366,18.007,48.423,17.863,48.476a1.119,1.119,0,0,1-.656,1.44l-.053.018A296.5,296.5,0,0,1,308.417,478.9a258.292,258.292,0,0,1-51.011,2.046,237.506,237.506,0,0,1-50.258-8.626,215.173,215.173,0,0,1-24.037-8.586c-3.911-1.682-7.781-3.466-11.554-5.445a108.561,108.561,0,0,1-11.036-6.487.443.443,0,0,1-.008-.727l.033-.023a13.167,13.167,0,0,0,3.111-3.613c.887-1.381,1.7-2.822,2.456-4.293,1.527-2.936,2.9-5.959,4.221-9.007,2.63-6.1,5.014-12.311,7.331-18.544,4.623-12.474,8.823-25.106,13.046-37.727,4.194-12.633,8.2-25.328,12.241-38.012q6.014-19.04,11.748-38.17l.1.728a70.566,70.566,0,0,1-8.709-20.194,73.13,73.13,0,0,1-1.976-10.827,81.012,81.012,0,0,1-.481-10.977,97.423,97.423,0,0,1,2.951-21.691,104.111,104.111,0,0,1,7.339-20.571.116.116,0,0,1,.209.1Z" transform="translate(0.227 29)"/>
    <path id="Caminho_167" data-name="Caminho 167" class="cls-1" d="M232.781,216.674l-26.364,1.818s-8.293,17.654-7.737,23.609C198.679,242.1,230.412,221.833,232.781,216.674Z" transform="translate(7.839 28.719)"/>
    <path id="Caminho_168" data-name="Caminho 168" class="cls-1" d="M285.992,271.7a29.013,29.013,0,0,1-3.213-4.176c-.94-1.45-1.821-2.935-2.622-4.466s-1.52-3.109-2.169-4.721a30.052,30.052,0,0,1-1.6-5.011,31.1,31.1,0,0,1,3.19,4.176q1.427,2.175,2.633,4.477a49.489,49.489,0,0,1,2.181,4.71,30.052,30.052,0,0,1,1.6,5.011s1.67-37.34,1.67-45.391l-2.691-.139c-3.236,1.1-15.915-2.993-15.915-2.993-23.8,83.8-59.4,66.537-59.4,66.537l5.823,11.217c2.378,2.505,4.57,5.15,6.7,7.83s4.164,5.429,6.171,8.2c1.984,2.8,3.932,5.614,5.765,8.5,1.856,2.877,3.642,5.812,5.243,8.874-2.39-2.506-4.582-5.139-6.716-7.818s-4.164-5.44-6.171-8.213c-1.972-2.8-3.921-5.6-5.765-8.5-1.844-2.877-3.631-5.812-5.232-8.874,0,0-41.4,141.147-54.763,149.5,0,0,75.168,54.288,197.106,15.033ZM168.984,452.086a1.741,1.741,0,1,1,1.683-1.74,1.741,1.741,0,0,1-1.683,1.74Zm9.187,4.594a1.741,1.741,0,1,1,1.678-1.74,1.741,1.741,0,0,1-1.678,1.74Zm9.187,4.176a1.741,1.741,0,1,1,1.677-1.74,1.741,1.741,0,0,1-1.677,1.74Zm11.275,4.176a1.741,1.741,0,1,1,1.678-1.741,1.741,1.741,0,0,1-1.678,1.741Zm12.528,3.341a1.741,1.741,0,1,1,1.694-1.74,1.741,1.741,0,0,1-1.694,1.74Zm12.946,2.923a1.741,1.741,0,1,1,1.678-1.741,1.741,1.741,0,0,1-1.678,1.741Zm12.528,2.088a1.741,1.741,0,1,1,1.679-1.741,1.741,1.741,0,0,1-1.679,1.741Zm12.11,1.253a1.741,1.741,0,1,1,1.676-1.74,1.741,1.741,0,0,1-1.676,1.74Zm11.275.835a1.741,1.741,0,1,1,1.679-1.74,1.741,1.741,0,0,1-1.679,1.74Zm12.11,0a1.741,1.741,0,1,1,1.679-1.741,1.741,1.741,0,0,1-1.679,1.741Zm11.693-.418a1.741,1.741,0,1,1,1.687-1.74,1.741,1.741,0,0,1-1.687,1.74Zm11.693-.835a1.741,1.741,0,1,1,1.684-1.74,1.741,1.741,0,0,1-1.684,1.74Zm11.275-.835a1.741,1.741,0,1,1,1.679-1.741,1.741,1.741,0,0,1-1.679,1.741Zm11.275-2.088a1.741,1.741,0,1,1,1.678-1.74,1.741,1.741,0,0,1-1.678,1.74Zm11.693-2.506a1.741,1.741,0,1,1,1.686-1.74,1.741,1.741,0,0,1-1.686,1.74Zm10.44-2.923a1.741,1.741,0,1,1,1.682-1.74,1.741,1.741,0,0,1-1.682,1.74Zm10.858-3.758a1.741,1.741,0,1,1,1.675-1.741,1.741,1.741,0,0,1-1.675,1.741Z" transform="translate(0.303 30.009)"/>
    <path id="Caminho_169" data-name="Caminho 169" class="cls-1" d="M248.947,106.309a1.306,1.306,0,1,0-1.26-1.3,1.306,1.306,0,0,0,1.26,1.3Z" transform="translate(17.578 6.279)"/>
    <path id="Caminho_170" data-name="Caminho 170" class="cls-1" d="M245.718,100.315a3.965,3.965,0,0,1,1.73-1.133,4.852,4.852,0,0,1,1.955-.249,4.2,4.2,0,0,1,1.975.63,2.471,2.471,0,0,1,1.23,1.8,11.614,11.614,0,0,0-1.819-.07c-.517,0-1.033,0-1.564-.044a11.918,11.918,0,0,1-1.655-.25,7.642,7.642,0,0,1-1.853-.681Z" transform="translate(17.187 5.33)"/>
    <path id="Caminho_171" data-name="Caminho 171" class="cls-2" d="M250.248,113.149s3.424,3.316,6.2,1.867" transform="translate(18.087 8.156)"/>
    <path id="Caminho_172" data-name="Caminho 172" class="cls-1" d="M198.732,243.333c3.627-2.766,7.286-5.441,10.94-8.115,3.638-2.694,7.282-5.365,10.86-8.112,1.8-1.361,3.579-2.743,5.322-4.167.9-.684,1.76-1.4,2.614-2.134s1.751-1.419,2.57-2.183a50.24,50.24,0,0,0,9.189-9.838c-.478,1.02-.908,2.105-1.49,3.1-.625.957-1.243,1.938-1.918,2.872l-2.178,2.676c-.764.856-1.573,1.668-2.359,2.507a100.793,100.793,0,0,1-10.342,9.009c-3.648,2.743-7.386,5.359-11.256,7.763A117.934,117.934,0,0,1,198.732,243.333Z" transform="translate(7.855 27.152)"/>
    <path id="Caminho_173" data-name="Caminho 173" class="cls-1" d="M259.159,153.094c1.793,3.192,3.5,6.44,5.035,9.77s2.99,6.705,4.211,10.18a46.064,46.064,0,0,1,2.612,10.787,15.167,15.167,0,0,1-.409,5.714,7.345,7.345,0,0,1-1.484,2.663,6.648,6.648,0,0,1-2.626,1.664l.555-.8c.2,3.158.455,6.326.789,9.469.169,1.571.359,3.14.6,4.684.125.771.248,1.541.415,2.279.083.368.175.73.282,1.057a3.6,3.6,0,0,0,.168.431c.043.13.142.167-.021.065l-.131,1.758-5.512,2.424a1.018,1.018,0,0,1-1.4-1.158l0-.018a76.845,76.845,0,0,0,1.578-10.624q.365-5.382.239-10.8c-.113-3.606-.3-7.214-.665-10.812-.334-3.6-.726-7.2-1.245-10.78-1-7.171-2.353-14.3-3.959-21.367-.81-3.512-1.681-7.1-2.676-10.472a6.986,6.986,0,0,0-2.568-3.888,3.806,3.806,0,0,0-4.1.591l.069-.062-.012.011.1-1.106a31.948,31.948,0,0,1,4.565,11.718,57.158,57.158,0,0,1,.937,12.417,93.981,93.981,0,0,1-1.213,12.33,96.249,96.249,0,0,1-2.7,12.053,115.92,115.92,0,0,0,2.116-12.136,93.148,93.148,0,0,0,.706-12.256,58.473,58.473,0,0,0-1.239-12.117,30.4,30.4,0,0,0-4.592-11.021.864.864,0,0,1,.09-1.1l.01-.01.011-.012a.8.8,0,0,1,.069-.062,6.766,6.766,0,0,1,2.831-1.34,4.809,4.809,0,0,1,3.259.462,8.494,8.494,0,0,1,3.528,4.878c1.095,3.593,1.963,7.079,2.82,10.649,1.677,7.109,3.1,14.28,4.169,21.514a162.911,162.911,0,0,1,1.91,21.869q.086,5.5-.334,11.013a78.87,78.87,0,0,1-1.717,10.934l-1.4-1.176,5.531-2.379-.131,1.758a2.126,2.126,0,0,1-.713-.891,5.5,5.5,0,0,1-.263-.68c-.136-.43-.235-.84-.324-1.249-.173-.816-.307-1.616-.413-2.419-.214-1.6-.367-3.2-.5-4.794-.26-3.191-.436-6.371-.56-9.567a.8.8,0,0,1,.535-.789l.02-.007a5.1,5.1,0,0,0,2-1.192,5.865,5.865,0,0,0,1.209-2.07,13.86,13.86,0,0,0,.477-5.159,49.861,49.861,0,0,0-2.225-10.583A144.92,144.92,0,0,0,259.159,153.094Z" transform="translate(17.528 12.124)"/>
    <path id="Caminho_174" data-name="Caminho 174" class="cls-1" d="M201.539,289.707a22.84,22.84,0,0,0,12.1,1,26.471,26.471,0,0,0,5.816-1.686c.945-.354,1.832-.854,2.748-1.269.867-.522,1.771-.973,2.6-1.548,6.783-4.454,12.067-10.894,16.459-17.761A144.658,144.658,0,0,0,252.4,246.473c3.141-7.628,5.909-15.43,8.554-23.3a180.058,180.058,0,0,1-6.868,23.962,119.315,119.315,0,0,1-10.864,22.555,73.6,73.6,0,0,1-7.669,10.014,45.507,45.507,0,0,1-9.8,8.033,29.224,29.224,0,0,1-11.966,4.089,24.326,24.326,0,0,1-6.312-.191,18.94,18.94,0,0,1-5.939-1.927Z" transform="translate(8.412 30.009)"/>
    <path id="Caminho_175" data-name="Caminho 175" class="cls-1" d="M305.364,199.212c.12-.1.16.176.269.305l.266.476.522.957,1.015,1.929q.99,1.941,1.93,3.908c1.255,2.62,2.433,5.277,3.564,7.952q3.387,8.03,6.173,16.3a276.987,276.987,0,0,1,9,33.668,294.767,294.767,0,0,1,4.849,34.529,314.412,314.412,0,0,1,.845,34.877l-.829-.876,96.158,1.62-.669.232a81.763,81.763,0,0,1,8.51-5.928,77.461,77.461,0,0,1,9.186-4.815,53.281,53.281,0,0,1,9.919-3.288,33.521,33.521,0,0,1,10.577-.684l-1.493,1.212q2.843-33.345,5.051-66.748c.72-11.131,1.382-22.264,1.9-33.393.248-5.564.457-11.129.542-16.679.033-2.774.069-5.546,0-8.293-.033-1.371-.087-2.74-.2-4.068-.057-.661-.13-1.317-.235-1.917a7.092,7.092,0,0,0-.182-.792c-.032-.1-.065-.177-.071-.193.043.015-.045.114.539.427l.648.141c-7.507-.2-15.043-.289-22.565-.314s-15.05-.029-22.567.126-15.031.422-22.5.99c-3.734.289-7.461.653-11.131,1.214-1.832.285-3.655.614-5.414,1.064a13.16,13.16,0,0,0-4.62,1.892l-.066.054a1.215,1.215,0,0,1-.717.278Zm-.307-.163,38.836-3.137,39.5-3.1-.783.332a14.507,14.507,0,0,1,5.665-2.586c1.887-.509,3.774-.874,5.661-1.193,3.774-.628,7.55-1.046,11.327-1.389,7.553-.675,15.108-1.041,22.661-1.3,15.11-.511,30.2-.508,45.315-.179l.1,0a1.3,1.3,0,0,1,.553.139,2.511,2.511,0,0,1,1.227,1.192,5.118,5.118,0,0,1,.318.777,10.411,10.411,0,0,1,.3,1.244c.137.774.218,1.507.285,2.235.129,1.452.189,2.873.229,4.291.073,2.833.069,5.642.008,8.448-.116,5.61-.356,11.2-.636,16.784-.561,11.169-1.325,22.314-2.154,33.453-1.662,22.277-3.592,44.521-5.64,66.762a1.338,1.338,0,0,1-1.451,1.216l-.043,0a30.943,30.943,0,0,0-9.748.492,50.862,50.862,0,0,0-9.5,2.993,75.158,75.158,0,0,0-8.981,4.534,79.849,79.849,0,0,0-8.346,5.621l-.022.017a1.02,1.02,0,0,1-.648.215l-96.152-1.984a.842.842,0,0,1-.829-.855v-.022a312.9,312.9,0,0,0-.507-34.71,293.6,293.6,0,0,0-4.5-34.435,276.152,276.152,0,0,0-8.646-33.649q-2.7-8.262-6-16.315c-1.1-2.68-2.252-5.341-3.479-7.967q-.916-1.971-1.887-3.915l-.993-1.932-.511-.958-.26-.476c-.069-.187-.206-.224-.268-.641Z" transform="translate(28.973 22.68)"/>
    <path id="Caminho_176" data-name="Caminho 176" class="cls-1" d="M393.995,200.855q4.2,15.794,7.443,31.819,3.307,16.005,5.8,32.172c1.617,10.78,3,21.608,3.757,32.5.4,5.442.607,10.9.555,16.368A86.046,86.046,0,0,1,410.019,330a98.9,98.9,0,0,0,.393-16.267c-.219-5.42-.669-10.83-1.222-16.23-1.12-10.8-2.594-21.564-4.245-32.3-1.618-10.747-3.442-21.465-5.279-32.186Z" transform="translate(46.638 25.577)"/>
    <path id="Caminho_177" data-name="Caminho 177" class="cls-1" d="M322.905,201.736a12.547,12.547,0,0,1-4.742-11.314,14.206,14.206,0,0,1,2.341-6.33c.33-.471.691-.926,1.061-1.375.4-.4.826-.849,1.218-1.215.759-.689,1.519-1.379,2.31-2.034a71.466,71.466,0,0,1,10.1-7.156c1.792-1.052,3.649-2,5.549-2.879q1.431-.645,2.9-1.214c.463-.2,1.042-.371,1.575-.55a13.022,13.022,0,0,1,1.645-.469,22.623,22.623,0,0,1,13.433.914,22.238,22.238,0,0,1,10.375,8.3,23.071,23.071,0,0,1,1.65,2.872l1.259,2.733,2.457,5.5c1.566,3.706,3.15,7.4,4.5,11.225-2.483-3.205-4.733-6.538-7-9.861l-3.294-5.043-1.617-2.538a24.066,24.066,0,0,0-1.612-2.163,19.184,19.184,0,0,0-8.6-5.855,18.344,18.344,0,0,0-5.086-.928,16.672,16.672,0,0,0-5.115.485,8.577,8.577,0,0,0-1.243.339c-.416.138-.8.232-1.264.423-.893.33-1.772.7-2.655,1.065-1.767.732-3.492,1.578-5.208,2.453a100.166,100.166,0,0,0-9.994,5.969l-2.416,1.67-1.02.786c-.3.3-.625.571-.92.879a11.178,11.178,0,0,0-2.536,4.516A12.5,12.5,0,0,0,322.905,201.736Z" transform="translate(31.56 18.769)"/>
    <path id="Caminho_178" data-name="Caminho 178" class="cls-1" d="M369.671,198.4a43.486,43.486,0,0,1,3.059-9.97,50.089,50.089,0,0,1,5.184-9.222,45.008,45.008,0,0,1,7.275-7.933,38.925,38.925,0,0,1,9.256-5.836l1.274-.532a14.326,14.326,0,0,1,1.36-.512,12.085,12.085,0,0,1,3.244-.609,11.694,11.694,0,0,1,6.476,1.554,12.73,12.73,0,0,1,6.4,10.982,11.51,11.51,0,0,1-2.017,6.392,15.9,15.9,0,0,1-4.5,4.2,33.1,33.1,0,0,1-10.229,4.157l.354-.137-6.37,2.693L384,196.209l-.192.077a.43.43,0,0,1-.084.024c-2.535.443-5.062.826-7.436,1.137S371.711,198.051,369.671,198.4Zm0,0c2.523-.82,4.881-1.693,7.071-2.559s4.228-1.648,6.257-2.376l-.275.1,6.006-3.444,6.061-3.332a.719.719,0,0,1,.1-.046l.253-.091a34.015,34.015,0,0,0,8.5-4.163,11.418,11.418,0,0,0,2.88-2.872,5.91,5.91,0,0,0,.935-3.3,7.272,7.272,0,0,0-3.54-5.989,6.481,6.481,0,0,0-5.174-.607c-.272.057-.7.24-1.058.359l-1.122.4a42.782,42.782,0,0,0-15.729,11.091A67.892,67.892,0,0,0,369.671,198.4Z" transform="translate(41.807 18.211)"/>
    <path id="Caminho_179" data-name="Caminho 179" class="cls-1" d="M221.842,109.034a35.84,35.84,0,0,0-7.043,8.407,52.54,52.54,0,0,0-4.669,9.818l-.906,2.574-.728,2.637c-.586,1.735-.814,3.562-1.288,5.34-.359,1.8-.628,3.624-.984,5.446-.245,1.834-.471,3.677-.809,5.532-.177-1.862-.255-3.737-.327-5.62.091-1.872.117-3.763.331-5.637a48.841,48.841,0,0,1,2.531-11.061,38.853,38.853,0,0,1,5.364-10.052,24.184,24.184,0,0,1,8.528-7.384Z" transform="translate(9.117 7.339)"/>
    <path id="Caminho_180" data-name="Caminho 180" class="cls-1" d="M384.276,357.386c3.637,17.059,6.58,34.229,9.353,51.425,1.348,8.6,2.667,17.213,3.853,25.844q1.827,12.938,3.21,25.946-2.72-12.8-5-25.661c-1.55-8.572-2.967-17.166-4.355-25.764C388.64,391.967,386.111,374.732,384.276,357.386Z" transform="translate(44.708 56.667)"/>
    <path id="Caminho_181" data-name="Caminho 181" class="cls-1" d="M328.531,396.652q8.529-1.591,17.08-2.826l8.552-1.212,8.561-1.07q17.124-2.082,34.288-3.5c5.717-.547,11.444-.924,17.17-1.313,5.727-.372,11.448-.852,17.183-1.09l17.2-.863,17.216-.547-1.156.222c4.732-1.442,9.524-2.7,14.284-4.061s9.563-2.585,14.356-3.842c4.782-1.29,9.627-2.391,14.444-3.577l7.272-1.639c2.428-.534,4.878-1,7.316-1.505l.032-.007a.289.289,0,0,1,.15.557L466.193,389.2a.494.494,0,0,1-.119.023l-34.369,2.147-34.379,1.975-68.762,3.889a.289.289,0,0,1-.069-.573Z" transform="translate(33.582 59.136)"/>
    <path id="Caminho_182" data-name="Caminho 182" class="cls-1" d="M332.432,419.009c5.815-.52,11.625-.932,17.43-1.2l8.708-.392,8.7-.254q17.4-.439,34.782-.2c5.8,0,11.584.206,17.375.349s11.582.273,17.366.581l17.358.809,17.347,1.115-1.817.314,13.574-4.694c4.512-1.6,9.1-3,13.654-4.5s9.17-2.827,13.751-4.251l6.932-1.982,6.981-1.859.032-.008a.289.289,0,0,1,.182.547l-53.281,21.338a.475.475,0,0,1-.186.032l-34.733-1.149c-11.578-.376-23.151-.881-34.727-1.316l-69.451-2.707a.289.289,0,0,1-.014-.576Z" transform="translate(34.351 65.694)"/>
    <path id="Caminho_183" data-name="Caminho 183" class="cls-1" d="M319.22,286.341c8.689-.935,17.358-1.41,26.019-1.7l6.5-.219,6.49-.091c4.326-.049,8.655-.139,12.975-.056l12.966.148,12.955.417c4.32.1,8.633.353,12.947.592s8.63.432,12.941.742l-1.66.211,15.1-4.054c5.072-1.229,10.121-2.532,15.212-3.7,5.1-1.137,10.188-2.313,15.333-3.3,2.56-.536,5.138-1.013,7.722-1.469,2.577-.479,5.174-.894,7.782-1.273l.042-.006a.288.288,0,0,1,.127.561l-29.847,9.29-29.874,9.2a.547.547,0,0,1-.178.023l-25.9-1.085-25.894-1.183L345.085,288.2l-25.89-1.278a.289.289,0,0,1-.017-.575Z" transform="translate(31.727 39.822)"/>
    <circle id="Elipse_17" data-name="Elipse 17" class="cls-1" cx="14.603" cy="14.603" r="14.603" transform="translate(495.835 525.146)"/>
    <path id="Caminho_184" data-name="Caminho 184" class="cls-1" d="M323.938,450.9c-.3-.093-.592-.185-.882-.278A1.592,1.592,0,0,1,323.938,450.9Z" transform="translate(32.548 75.185)"/>
    <path id="Caminho_185" data-name="Caminho 185" class="cls-1" d="M204.819,277.46a1.741,1.741,0,1,0-1.681-1.74A1.741,1.741,0,0,0,204.819,277.46Z" transform="translate(8.73 40.101)"/>
    <path id="Caminho_186" data-name="Caminho 186" class="cls-1" d="M213.18,276.763a1.741,1.741,0,1,0-1.681-1.74A1.741,1.741,0,0,0,213.18,276.763Z" transform="translate(10.39 39.962)"/>
    <path id="Caminho_187" data-name="Caminho 187" class="cls-1" d="M221.542,271.537a1.741,1.741,0,1,0-1.681-1.74A1.741,1.741,0,0,0,221.542,271.537Z" transform="translate(12.051 38.924)"/>
    <path id="Caminho_188" data-name="Caminho 188" class="cls-1" d="M229.9,262.827a1.741,1.741,0,1,0-1.681-1.74A1.741,1.741,0,0,0,229.9,262.827Z" transform="translate(13.712 37.194)"/>
    <path id="Caminho_189" data-name="Caminho 189" class="cls-1" d="M236.523,253.42a1.741,1.741,0,1,0-1.681-1.74A1.741,1.741,0,0,0,236.523,253.42Z" transform="translate(15.027 35.326)"/>
    <path id="Caminho_190" data-name="Caminho 190" class="cls-1" d="M241.052,244.362a1.741,1.741,0,1,0-1.681-1.74A1.741,1.741,0,0,0,241.052,244.362Z" transform="translate(15.926 33.527)"/>
    <path id="Caminho_191" data-name="Caminho 191" class="cls-1" d="M244.884,235.652a1.741,1.741,0,1,0-1.681-1.74A1.741,1.741,0,0,0,244.884,235.652Z" transform="translate(16.688 31.797)"/>
    <path id="Caminho_192" data-name="Caminho 192" class="cls-1" d="M248.02,226.245a1.741,1.741,0,1,0-1.681-1.74,1.741,1.741,0,0,0,1.681,1.74Z" transform="translate(17.31 29.928)"/>
    <path id="Caminho_193" data-name="Caminho 193" class="cls-1" d="M258.775,198.373a1.741,1.741,0,1,0-1.681-1.74,1.741,1.741,0,0,0,1.681,1.74Z" transform="translate(19.447 24.392)"/>
    <path id="Caminho_194" data-name="Caminho 194" class="cls-1" d="M259.517,189.315a1.741,1.741,0,1,0-1.681-1.74A1.741,1.741,0,0,0,259.517,189.315Z" transform="translate(19.594 22.593)"/>
    <path id="Caminho_195" data-name="Caminho 195" class="cls-1" d="M259.168,180.257a1.741,1.741,0,1,0-1.681-1.74A1.741,1.741,0,0,0,259.168,180.257Z" transform="translate(19.525 20.794)"/>
    <path id="Caminho_196" data-name="Caminho 196" class="cls-1" d="M258.471,170.85a1.741,1.741,0,1,0-1.681-1.74,1.741,1.741,0,0,0,1.681,1.74Z" transform="translate(19.386 18.926)"/>
    <path id="Caminho_197" data-name="Caminho 197" class="cls-1" d="M256.729,159a1.741,1.741,0,1,0-1.681-1.74A1.741,1.741,0,0,0,256.729,159Z" transform="translate(19.04 16.573)"/>
    <path id="Caminho_198" data-name="Caminho 198" class="cls-1" d="M255.685,147.856a1.741,1.741,0,1,0-1.681-1.74,1.741,1.741,0,0,0,1.681,1.74Z" transform="translate(18.833 14.358)"/>
    <path id="Caminho_199" data-name="Caminho 199" class="cls-1" d="M252.9,137.4a1.741,1.741,0,1,0-1.681-1.74A1.741,1.741,0,0,0,252.9,137.4Z" transform="translate(18.279 12.282)"/>
    <path id="Caminho_200" data-name="Caminho 200" class="cls-1" d="M222.459,196.387a1.741,1.741,0,1,0-1.681-1.74,1.741,1.741,0,0,0,1.681,1.74Z" transform="translate(12.233 23.998)"/>
    <path id="Caminho_201" data-name="Caminho 201" class="cls-1" d="M226.024,189.522a1.741,1.741,0,1,0-1.681-1.74A1.741,1.741,0,0,0,226.024,189.522Z" transform="translate(12.942 22.634)"/>
    <path id="Caminho_202" data-name="Caminho 202" class="cls-1" d="M233.6,185.941a1.741,1.741,0,1,0-1.681-1.74A1.741,1.741,0,0,0,233.6,185.941Z" transform="translate(14.445 21.923)"/>
    <path id="Caminho_203" data-name="Caminho 203" class="cls-1" d="M238.743,180.252a1.741,1.741,0,1,0-1.681-1.74,1.741,1.741,0,0,0,1.681,1.74Z" transform="translate(15.468 20.793)"/>
    <path id="Caminho_204" data-name="Caminho 204" class="cls-1" d="M244.146,176.286a1.741,1.741,0,1,0-1.681-1.74A1.741,1.741,0,0,0,244.146,176.286Z" transform="translate(16.541 20.005)"/>
    <path id="Caminho_205" data-name="Caminho 205" class="cls-1" d="M268.226,169.456a1.741,1.741,0,1,0-1.681-1.74,1.741,1.741,0,0,0,1.681,1.74Z" transform="translate(21.324 18.649)"/>
    <path id="Caminho_206" data-name="Caminho 206" class="cls-1" d="M484.576,473.553c4.326-1.7,8.567-3.5,12.721-5.454,2.065-1,4.123-2,6.118-3.116,2.007-1.086,3.983-2.225,5.863-3.5a44.365,44.365,0,0,0,10.2-8.783,21.007,21.007,0,0,0,4.911-12.382,16.722,16.722,0,0,1-.389,7.013,20.845,20.845,0,0,1-3.073,6.453,37.907,37.907,0,0,1-10.38,9.638,67.839,67.839,0,0,1-12.54,6.329A70.244,70.244,0,0,1,484.576,473.553Z" transform="translate(64.63 73.14)"/>
    <path id="Caminho_207" data-name="Caminho 207" class="cls-1" d="M507.791,481.327q6.87-4.482,13.264-9.483a111.849,111.849,0,0,0,12.009-10.8,56.886,56.886,0,0,0,9.451-12.873,31.538,31.538,0,0,0,3.717-15.486,26.784,26.784,0,0,1-2.081,16.261,48.817,48.817,0,0,1-9.4,13.693A81.129,81.129,0,0,1,522.125,473.3,82.513,82.513,0,0,1,507.791,481.327Z" transform="translate(69.241 71.622)"/>
    <path id="Caminho_208" data-name="Caminho 208" class="cls-1" d="M480.673,189.531c-3.1-3.466-6.258-6.818-9.534-10.033-1.657-1.588-3.312-3.169-5.047-4.654-1.716-1.5-3.471-2.961-5.315-4.283A44.364,44.364,0,0,0,449,164.048a21.007,21.007,0,0,0-13.317-.3,16.725,16.725,0,0,1,6.712-2.072,20.846,20.846,0,0,1,7.118.639,37.905,37.905,0,0,1,12.645,6.384,67.842,67.842,0,0,1,10.292,9.559,70.249,70.249,0,0,1,8.228,11.276Z" transform="translate(54.918 17.78)"/>
    <path id="Caminho_209" data-name="Caminho 209" class="cls-1" d="M477.587,157.111q-6.59-4.885-13.5-9.142a111.874,111.874,0,0,0-14.3-7.506,56.882,56.882,0,0,0-15.355-4.389,31.54,31.54,0,0,0-15.812,1.9,26.786,26.786,0,0,1,15.971-3.7,48.817,48.817,0,0,1,16.107,4.06,81.129,81.129,0,0,1,14.383,8.13A82.5,82.5,0,0,1,477.587,157.111Z" transform="translate(51.528 12.333)"/>
    <path id="Caminho_210" data-name="Caminho 210" class="cls-1" d="M206.563,72.086c-2.94,3.6-5.756,7.246-8.42,10.985-1.31,1.885-2.613,3.766-3.808,5.712-1.218,1.93-2.382,3.891-3.4,5.919a44.363,44.363,0,0,0-4.593,12.653,21.007,21.007,0,0,0,1.782,13.2,16.724,16.724,0,0,1-3.1-6.305,20.843,20.843,0,0,1-.481-7.131,37.9,37.9,0,0,1,4.33-13.487,67.834,67.834,0,0,1,7.834-11.66A70.254,70.254,0,0,1,206.563,72.086Z" transform="translate(5.014)"/>
    <path id="Caminho_211" data-name="Caminho 211" class="cls-1" d="M175.187,82.356q-3.795,7.273-6.92,14.764a111.857,111.857,0,0,0-5.179,15.3,56.878,56.878,0,0,0-1.936,15.852A31.538,31.538,0,0,0,165.5,143.6a26.784,26.784,0,0,1-6.149-15.2,48.816,48.816,0,0,1,1.494-16.544,81.12,81.12,0,0,1,5.783-15.477,82.5,82.5,0,0,1,8.563-14.023Z" transform="translate(0 2.04)"/>
    <path id="Caminho_212" data-name="Caminho 212" class="cls-1" d="M374.3,364.995c-7.544,3.548-15.118,7.027-22.692,10.5l-11.359,5.221-11.38,5.164-.559-2.331.637-.043a1.21,1.21,0,0,1,1.28,1.047l0,.034,5.608,43.037,5.336,43.069-1.689-1.754,33.695,5.2c11.229,1.749,22.443,3.6,33.655,5.46l67.232,11.418-.158-.011A116.234,116.234,0,0,0,490.2,489.54a90.172,90.172,0,0,0,15.869-3.928,47.958,47.958,0,0,0,14.3-7.589,24.938,24.938,0,0,0,8.81-13.052l-.024.228c-.429-9.225-.786-18.452-1.274-27.674l-1.427-27.668-1.466-27.667-1.409-27.669,2.551,1.644-29.243,12.126L467.644,380.31l-.022.009a2.364,2.364,0,0,1-.759.17l-34.427,1.789L398,383.967l-34.438,1.542-34.443,1.429-.1,0a2.12,2.12,0,0,1-2.188-1.881l-3.614-32.967c-1.194-10.978-2.427-21.951-3.543-32.939l-3.426-32.95-3.288-32.963,0-.018a.513.513,0,0,1,.094-.351,19.04,19.04,0,0,1,5-4.838,22.515,22.515,0,0,1,6.313-2.78.232.232,0,0,1,.137.443,21.9,21.9,0,0,0-6.006,2.981,18.869,18.869,0,0,0-4.562,4.806l.092-.369,4.469,32.815,4.331,32.827c1.47,10.939,2.822,21.892,4.213,32.839l4.157,32.809-2.285-1.876,34.425-1.819,34.431-1.7,34.437-1.565,34.442-1.464-.781.18L495.3,364.391l29.43-11.664.031-.012a1.842,1.842,0,0,1,2.391,1.034,1.88,1.88,0,0,1,.129.623l.841,27.692.784,27.694.823,27.693c.263,9.231.655,18.457.977,27.686v.012a.754.754,0,0,1-.025.216,26.435,26.435,0,0,1-9.424,13.77,47.26,47.26,0,0,1-7.042,4.54,66.087,66.087,0,0,1-7.656,3.316,100.129,100.129,0,0,1-16.091,4.151,124.36,124.36,0,0,1-16.534,1.794.682.682,0,0,1-.118-.005l-.041-.006L406.264,483.3c-11.245-1.647-22.489-3.3-33.717-5.061l-33.678-5.318-.015,0a2,2,0,0,1-1.674-1.752l-4.826-43.129L327.8,384.877l1.285,1.081-.638.027-.037,0a1.214,1.214,0,0,1-.522-2.332c3.847-1.619,7.674-3.255,11.533-4.834l11.558-4.77c7.7-3.185,15.407-6.367,23.14-9.481a.232.232,0,0,1,.185.425Z" transform="translate(30.543 34.393)"/>
    <path id="Caminho_213" data-name="Caminho 213" class="cls-1" d="M497.4,428.726h0c-2.559,9.834-11.039,16.062-20.652,20.007A14.6,14.6,0,1,0,497.4,428.726Z" transform="translate(63.075 70.837)"/>
    <circle id="Elipse_18" data-name="Elipse 18" class="cls-1" cx="14.603" cy="14.603" r="14.603" transform="translate(375.367 506.414)"/>
    <path id="Caminho_214" data-name="Caminho 214" class="cls-1" d="M313.3,253.209l26.591,1.6,26.977,1.706c9.045.617,18.116,1.211,27.208,1.9,9.088.674,18.185,1.361,27.265,2.137l-.544.053,15.075-4.111,15.11-3.987,30.22-7.974.015,0a.666.666,0,0,1,.813.474.714.714,0,0,1,.017.09l1.912,15.79q.966,7.894,2.046,15.773l2.11,15.764,2.227,15.749a.824.824,0,0,1-.519.884l-.022.008-31.24,12.058L427.258,333a1.542,1.542,0,0,1-.5.1h-.03l-25.952.645q-12.976.345-25.953.578l-25.956.421-25.959.277h-.031a1.555,1.555,0,0,1-1.556-1.385L319.16,313.3c-.73-6.776-1.338-13.521-2-20.241Zm.251.242,5.595,40.276c.908,6.634,1.875,13.243,2.72,19.821l2.568,19.722-1.587-1.384,25.951-.711,25.954-.567q12.977-.259,25.957-.41l25.958-.343-.531.1,31.513-11.321,31.578-11.143-.54.892-1.838-15.8L484.891,276.8q-.957-7.895-2.019-15.776l-2.153-15.759.846.559-29.948,8.941-14.974,4.471-15.009,4.346a1.477,1.477,0,0,1-.52.055l-.024,0c-8.885-.685-17.752-1.458-26.63-2.245-8.873-.769-17.767-1.636-26.687-2.48Z" transform="translate(30.61 34.247)"/>
    <path id="Caminho_215" data-name="Caminho 215" class="cls-1" d="M376.861,456.42l-1.751-.255-.569-3.682-3.7-44.532-3.526-45.124L366.9,357.5l1.821-.116c.267,1.786.522,3.584.766,5.371.534,3.828,1.009,7.656,1.473,11.5.719,5.556,1.23,11.124,1.844,16.692l1.5,16.727,1.2,16.739c.29,5.591.684,11.182.858,16.774.163,3.886.3,7.772.394,11.658C376.8,455.081,376.838,454.181,376.861,456.42Z" transform="translate(41.256 56.667)"/>
    <path id="Caminho_216" data-name="Caminho 216" class="cls-1" d="M418.207,464.053l-1.891-.278-.545-3.051L411.444,413.4,406.909,361.1l-.2-4.311,1.566-.081c.325,2.03.3,2.281.6,4.311.789,5.324,1.5,10.66,2.169,16,.8,6,1.392,12.017,2.088,18.026L414.9,413.1l1.45,18.073c.371,6.044.847,12.064,1.113,18.107.209,3.944.395,7.876.545,11.82C418.08,463.056,418.149,462.094,418.207,464.053Z" transform="translate(49.164 56.534)"/>
    <path id="Caminho_217" data-name="Caminho 217" class="cls-1" d="M441.339,354.8l.614,4.769L447.185,406l7.285,61.8.325,2.714a.176.176,0,0,0,.174.151.178.178,0,0,0,.174-.174v-.023c0-.9-.012-1.81-.023-2.714-.1-9.976-.673-19.894-1.415-29.812-.348-5.406-.9-10.788-1.369-16.194-.522-5.382-1.137-10.765-1.705-16.147L448.623,389.5c-.789-5.359-1.462-10.73-2.355-16.078-.754-4.86-1.566-9.732-2.436-14.581-.371-2.03-.661-2.576-1.067-4.606Z" transform="translate(56.042 56.041)"/>
    <path id="Caminho_218" data-name="Caminho 218" class="cls-1" d="M481.3,466.118c-.557.255-1.113.51-1.682.743l-.383-3.4-6.624-58.371-6.125-56.016-.332-3.694,1.659-.638c.3,1.728.332,1.768.611,3.5q1.357,8.335,2.552,16.669c1.021,6.624,1.809,13.259,2.714,19.882l2.366,19.917,2.065,19.952c.58,6.658,1.265,13.317,1.728,19.987.464,6,.9,12.006,1.253,18.015C481.174,463.809,481.243,464.97,481.3,466.118Z" transform="translate(60.971 54.156)"/>
    <path id="Caminho_219" data-name="Caminho 219" class="cls-1" d="M435.765,464.963c0,1.728.012,1.208,0,2.937-.638-.093-1.276-.174-1.914-.267l-.29-3.053-2.622-50.8-2.529-53.719-.3-3.817c.557-.023,1.125-.047,1.682-.081.244,2.065.464,1.729.661,3.794.534,5.15,1,10.289,1.427,15.44.592,6.357.963,12.737,1.438,19.105l1.1,19.117.777,19.128c.163,6.38.418,12.76.453,19.152C435.719,456.251,435.765,460.613,435.765,464.963Z" transform="translate(53.414 56.425)"/>
    <path id="Caminho_220" data-name="Caminho 220" class="cls-1" d="M354.261,448.25c.011,2.355.011,4.721-.012,7.088l-1.717-.255-.487-7.192-2.784-41.2-2.68-43.314-.279-4.605,1.752-.1c.22,1.555.429,3.1.626,4.652.5,3.979.951,7.969,1.38,11.96.615,5.185,1.009,10.393,1.508,15.579l1.172,15.6c.278,5.208.6,10.417.847,15.625.174,5.208.453,10.417.51,15.637Q354.22,442.973,354.261,448.25Z" transform="translate(37.166 56.921)"/>
    <path id="Caminho_221" data-name="Caminho 221" class="cls-1" d="M400.452,463.541l-1.856-.267-.777-6.438L392.3,411.11l-5.7-49.23-.238-3.9,1.658-.093c.372,1.926.3,1.971.644,3.909.824,4.7,1.589,9.408,2.331,14.117.951,5.777,1.694,11.577,2.54,17.377l2.216,17.412,1.9,17.446c.522,5.835,1.148,11.646,1.566,17.493.313,3.851.6,7.7.847,11.565Q400.277,460.375,400.452,463.541Z" transform="translate(45.123 56.767)"/>
    <path id="Caminho_222" data-name="Caminho 222" class="cls-1" d="M379.743,327.6a8.6,8.6,0,0,1-1.3-2.345,12.8,12.8,0,0,1-.654-2.451,12.569,12.569,0,0,1-.162-2.531,8.493,8.493,0,0,1,.494-2.638,8.492,8.492,0,0,1,1.306,2.344,12.569,12.569,0,0,1,.65,2.451,12.8,12.8,0,0,1,.159,2.532,8.592,8.592,0,0,1-.492,2.637Z" transform="translate(43.385 48.772)"/>
    <path id="Caminho_223" data-name="Caminho 223" class="cls-1" d="M380.158,440.616a14.576,14.576,0,0,0,25.273,3.947Z" transform="translate(43.89 73.199)"/>
    <path id="Caminho_224" data-name="Caminho 224" class="cls-1" d="M285.74,233.109a2.27,2.27,0,0,1,.8-4.426l.125.006c2.083.111,4.17.188,6.234.4l3.105.269,1.552.135c.519.052,1.141.142,1.706.238a27.474,27.474,0,0,1,12.809,5.809,28.024,28.024,0,0,1,8.362,11.411,27.715,27.715,0,0,1,1.73,6.868l.333,3.228.335,3.086,1.31,12.348,2.562,24.7c.878,8.232,1.647,16.477,2.456,24.718s1.62,16.481,2.348,24.732c1.517,16.495,2.962,33,4.19,49.531-2.731-16.335-5.245-32.7-7.687-49.071-1.251-8.182-2.412-16.377-3.59-24.569s-2.381-16.381-3.483-24.583l-3.376-24.6-1.66-12.3-.407-3.077a24.593,24.593,0,0,0-.473-2.925,26.493,26.493,0,0,0-1.782-5.009,25.648,25.648,0,0,0-15.551-13.456l-5.842-1.625c-2.008-.523-3.993-1.179-5.984-1.8Z" transform="translate(24.825 31.103)"/>
    <path id="Caminho_225" data-name="Caminho 225" class="cls-1" d="M249.686,176.57c1.178,2.123,2.326,4.261,3.469,6.4s2.307,4.271,3.417,6.428l3.363,6.454c1.112,2.156,2.262,4.293,3.344,6.464l-.254-.309a90.848,90.848,0,0,0,10.5,6.8c1.83,1,3.677,1.964,5.574,2.827q2.818,1.348,5.732,2.482a97.28,97.28,0,0,0,11.892,3.857,86.7,86.7,0,0,0,12.355,2.147h-.042c3.1.08,6.195.112,9.292.153l-.07.007a7.135,7.135,0,0,1,4.043.774,19.657,19.657,0,0,1,3.428,2.1,28.365,28.365,0,0,1,5.673,5.619,11.313,11.313,0,0,1,1.933,3.606,3.208,3.208,0,0,1,.111,1.136,2.907,2.907,0,0,1-.4,1.083c-.331.6-.688,1.158-1.056,1.717s-.745,1.1-1.183,1.647a2.411,2.411,0,0,1-.468.466c-.207.128-.3.171-.461.262l-.865.48c-.58.319-1.162.637-1.763.94-.3.151-.6.3-.924.438a3.838,3.838,0,0,1-1.168.349l.571-.371a4.321,4.321,0,0,1-1.254,1.622,4.067,4.067,0,0,1-1.939.775,6.151,6.151,0,0,1-1.973-.108,8.207,8.207,0,0,1-1.841-.611l1.118-.451a5.545,5.545,0,0,1-.61,1.309,3.833,3.833,0,0,1-1.086,1.109,3.576,3.576,0,0,1-1.484.562,4.02,4.02,0,0,1-1.59-.088.751.751,0,0,1-.441-.305l-.059-.087a12.428,12.428,0,0,0-2.256-2.643,13.525,13.525,0,0,0-2.907-1.952,17.956,17.956,0,0,0-3.311-1.266,18.374,18.374,0,0,0-3.453-.624l-.031,0-.069-.008c-7.7-1.185-15.249-2.713-22.82-4.294-7.558-1.616-15.084-3.348-22.57-5.362a40.488,40.488,0,0,1-10.971-4.368,34.436,34.436,0,0,1-8.994-7.655,35.755,35.755,0,0,1-3.374-4.839,57.432,57.432,0,0,1-2.6-5.228l-4.786-10.545a.116.116,0,0,1,.208-.1l5.478,10.2c.92,1.708,1.748,3.432,2.795,5.005a34.34,34.34,0,0,0,3.448,4.493,35.242,35.242,0,0,0,8.8,6.983,32.208,32.208,0,0,0,5.114,2.31,53.855,53.855,0,0,0,5.462,1.547c7.455,1.851,14.994,3.484,22.516,5.145,7.522,1.622,15.073,3.324,22.611,4.589l-.1-.01a19.738,19.738,0,0,1,3.917.765,19.977,19.977,0,0,1,3.653,1.514,15.445,15.445,0,0,1,3.247,2.315,14.249,14.249,0,0,1,2.516,3.123l-.5-.392a2.41,2.41,0,0,0,.844.058,1.893,1.893,0,0,0,.8-.263,2.165,2.165,0,0,0,.64-.607,3.95,3.95,0,0,0,.459-.89l.019-.046a.789.789,0,0,1,1.026-.439l.074.034a6.784,6.784,0,0,0,1.44.54,4.7,4.7,0,0,0,1.487.152,2.661,2.661,0,0,0,1.279-.443,3,3,0,0,0,.9-1.075l.047-.078a.611.611,0,0,1,.524-.294,3.38,3.38,0,0,0,.716-.216c.289-.113.582-.243.874-.376.586-.269,1.17-.561,1.755-.856l.879-.447.406-.209c-.022.023.145-.138.225-.234.4-.467.8-.995,1.175-1.52s.747-1.067,1.072-1.609a2.067,2.067,0,0,0,.324-.735,2.2,2.2,0,0,0-.062-.819,10.6,10.6,0,0,0-1.748-3.33,27.631,27.631,0,0,0-5.442-5.533,17.028,17.028,0,0,0-3.3-2,6.387,6.387,0,0,0-3.6-.68l-.07.007c-3.1.044-6.195.078-9.292.161h-.042a86.728,86.728,0,0,1-12.635-1.622,77.935,77.935,0,0,1-23.809-9.044,92.743,92.743,0,0,1-10.593-7.128l-.008-.006a.885.885,0,0,1-.247-.3c-1.069-2.177-2.071-4.388-3.109-6.58l-3.09-6.59c-1.042-2.191-2.028-4.409-3.037-6.616s-2.011-4.417-2.984-6.642a.116.116,0,0,1,.208-.1Z" transform="translate(13.352 20.741)"/>
    <path id="Caminho_226" data-name="Caminho 226" class="cls-1" d="M297.281,223.475a16.884,16.884,0,0,1,4.963,3.392,13.719,13.719,0,0,1,1.933,2.362,4.435,4.435,0,0,1,.83,2.946,7.106,7.106,0,0,0-1.557-2.408q-.973-1.058-2.016-2.071C300.047,226.333,298.613,225.007,297.281,223.475Z" transform="translate(27.429 30.069)"/>
    <path id="Caminho_227" data-name="Caminho 227" class="cls-1" d="M302.047,221.847a16.735,16.735,0,0,1,5.34,3.681,11.858,11.858,0,0,1,1.972,2.663,4.028,4.028,0,0,1,.448,3.261,5.4,5.4,0,0,0-1.221-2.79,24.656,24.656,0,0,0-2.03-2.326C305.1,224.841,303.543,223.432,302.047,221.847Z" transform="translate(28.375 29.746)"/>
    <path id="Caminho_228" data-name="Caminho 228" class="cls-1" d="M313.885,229.327c-1.117-1.594-2.007-3.234-2.956-4.831-.459-.806-.953-1.581-1.458-2.343a7.783,7.783,0,0,0-1.849-2.048,4.477,4.477,0,0,1,2.543,1.467,12.136,12.136,0,0,1,1.764,2.337,15.232,15.232,0,0,1,1.957,5.418Z" transform="translate(29.482 29.4)"/>
    <path id="Caminho_229" data-name="Caminho 229" class="cls-1" d="M293.723,227.1l4.532,1.7-8.454,3.113-4.214-.759Z" transform="translate(25.106 30.79)"/>
    <path id="Caminho_230" data-name="Caminho 230" class="cls-1" d="M309.965,216.688l3.81-2,1.853,4.545-1.869,1.272Z" transform="translate(29.948 28.325)"/>
    <path id="Caminho_231" data-name="Caminho 231" class="cls-1" d="M411.136,323.87c-.122-4.9-.455-9.78-.689-14.669-.3-4.884-.682-9.761-1.018-14.642l-1.336-14.617c-.558-4.863-1-9.735-1.672-14.59q-.42-3.343-.88-6.684l-2.174.611-.2-.4,2.8,35.962,2.832,33.829,2.471-.9Q411.207,325.821,411.136,323.87Z" transform="translate(48.46 37.06)"/>
    <path id="Caminho_232" data-name="Caminho 232" class="cls-1" d="M428.269,317.892c-.122-4.9-.455-9.78-.689-14.669-.3-4.884-.682-9.761-1.018-14.642l-1.336-14.617c-.558-4.863-1-9.735-1.672-14.59q-.42-3.343-.88-6.684l-2.174.611-.2-.4,2.8,35.962,2.832,33.829,2.471-.9Q428.339,319.841,428.269,317.892Z" transform="translate(51.863 35.872)"/>
    <path id="Caminho_233" data-name="Caminho 233" class="cls-1" d="M388.672,323.87c-.122-4.9-.455-9.78-.689-14.669-.3-4.884-.682-9.761-1.018-14.642l-1.336-14.617c-.558-4.863-1-9.735-1.672-14.59q-.42-3.343-.88-6.684l-2.174.611-.2-.4,2.8,35.962,2.832,33.829,2.471-.9Q388.742,325.821,388.672,323.87Z" transform="translate(43.998 37.06)"/>
    <path id="Caminho_234" data-name="Caminho 234" class="cls-1" d="M364.062,327.163c-.122-5.373-.455-10.727-.689-16.09-.3-5.357-.682-10.706-1.018-16.06l-1.336-16.032c-.558-5.334-1-10.678-1.672-16q-.42-3.667-.881-7.331l-2.174.67-.2-.443,2.8,39.445,2.832,37.1,2.471-.985Q364.132,329.3,364.062,327.163Z" transform="translate(39.11 36.46)"/>
    <path id="Caminho_235" data-name="Caminho 235" class="cls-1" d="M340.525,325.868c-.122-5.465-.455-10.911-.689-16.366-.3-5.449-.682-10.89-1.018-16.336l-1.336-16.307c-.558-5.426-1-10.861-1.672-16.277q-.42-3.73-.88-7.457l-2.174.682-.2-.451,2.8,40.122,2.832,37.742,2.471-1Q340.6,328.044,340.525,325.868Z" transform="translate(34.435 35.959)"/>
    <path id="Caminho_236" data-name="Caminho 236" class="cls-1" d="M448.021,311.977c-.122-4.9-.455-9.78-.689-14.669-.3-4.884-.682-9.761-1.018-14.642l-1.336-14.617c-.558-4.863-1-9.735-1.672-14.59-.28-2.229-.574-2.992-.88-5.219l-2.174.611-.2-.4,2.8,34.5,2.832,32.142,2.471-.9S448.068,313.276,448.021,311.977Z" transform="translate(55.786 34.988)"/>
    <path id="Caminho_237" data-name="Caminho 237" class="cls-1" d="M413.366,335.28c-3.864.311-7.728.662-11.591,1.113l-.02,0a.173.173,0,0,0,.02.346l10.691.029C412.748,336.282,413.05,335.785,413.366,335.28Z" transform="translate(48.149 52.276)"/>
    <path id="Caminho_238" data-name="Caminho 238" class="cls-1" d="M502.638,334.949q-5.859-.35-11.718-.582c-5.24-.268-10.481-.311-15.721-.477l-15.721-.147c-5.24.058-10.48.065-15.721.164-3.6.109-7.2.177-10.8.294a20.627,20.627,0,0,1-5.272,2.931l31.794.088,45.181-.123a2.153,2.153,0,0,0-2.021-2.149Z" transform="translate(53.33 51.971)"/>
    <path id="Caminho_239" data-name="Caminho 239" class="cls-1" d="M450.468,431.007l-.464.046-5.347-44.462-3.317-30.241,2.668-1.079q1.009,4.315,1.844,8.642c.789,3.666,1.288,7.366,1.926,11.055.545,3.689,1,7.389,1.485,11.089.348,3.724.766,7.436,1.068,11.148.208,3.735.557,7.459.626,11.205a163.8,163.8,0,0,1-.488,22.6Z" transform="translate(56.042 56.247)"/>
  </g>
</svg>
