<svg id="instagram" xmlns="http://www.w3.org/2000/svg" width="116.92" height="116.92" viewBox="0 0 116.92 116.92">
  <defs>
    <style>
      .cls-1 {
        fill: #d6efc7;
      }
    </style>
  </defs>
  <path id="Caminho_51" data-name="Caminho 51" class="cls-1" d="M228.979,217.99A10.99,10.99,0,1,1,217.99,207,10.99,10.99,0,0,1,228.979,217.99Zm0,0" transform="translate(-159.53 -159.53)"/>
  <path id="Caminho_52" data-name="Caminho 52" class="cls-1" d="M188.215,143.073a10.918,10.918,0,0,0-6.257-6.257,18.24,18.24,0,0,0-6.121-1.135c-3.477-.159-4.52-.193-13.323-.193s-9.846.033-13.323.192a18.252,18.252,0,0,0-6.121,1.135,10.923,10.923,0,0,0-6.258,6.257,18.248,18.248,0,0,0-1.135,6.122c-.159,3.476-.193,4.519-.193,13.323s.034,9.846.193,13.323a18.241,18.241,0,0,0,1.135,6.121,10.918,10.918,0,0,0,6.257,6.257,18.218,18.218,0,0,0,6.122,1.135c3.476.159,4.518.192,13.322.192s9.847-.033,13.323-.192a18.218,18.218,0,0,0,6.122-1.135,10.918,10.918,0,0,0,6.257-6.257,18.258,18.258,0,0,0,1.135-6.121c.159-3.477.192-4.52.192-13.323s-.033-9.846-.192-13.323A18.219,18.219,0,0,0,188.215,143.073Zm-25.7,36.374a16.93,16.93,0,1,1,16.93-16.93A16.93,16.93,0,0,1,162.514,179.447Zm17.6-30.572a3.956,3.956,0,1,1,3.956-3.956A3.957,3.957,0,0,1,180.113,148.874Zm0,0" transform="translate(-104.054 -104.057)"/>
  <path id="Caminho_53" data-name="Caminho 53" class="cls-1" d="M58.46,0a58.46,58.46,0,1,0,58.46,58.46A58.467,58.467,0,0,0,58.46,0ZM91.827,72.3a24.629,24.629,0,0,1-1.56,8.149,17.165,17.165,0,0,1-9.818,9.818,24.646,24.646,0,0,1-8.148,1.56c-3.58.163-4.723.2-13.84.2s-10.26-.039-13.841-.2a24.646,24.646,0,0,1-8.148-1.56,17.164,17.164,0,0,1-9.818-9.818,24.623,24.623,0,0,1-1.56-8.148c-.165-3.581-.2-4.724-.2-13.841s.038-10.26.2-13.84a24.631,24.631,0,0,1,1.559-8.149,17.176,17.176,0,0,1,9.819-9.818,24.652,24.652,0,0,1,8.149-1.56c3.58-.163,4.723-.2,13.84-.2s10.26.039,13.84.2a24.657,24.657,0,0,1,8.149,1.558,17.169,17.169,0,0,1,9.818,9.819,24.626,24.626,0,0,1,1.561,8.149c.163,3.58.2,4.723.2,13.84S91.991,68.72,91.827,72.3Zm0,0"/>
</svg>
