<svg xmlns="http://www.w3.org/2000/svg" width="101" height="45" viewBox="0 0 101 45">
  <defs>
    <style>
      .cls-1 {
        fill: #efefef;
        stroke: #184d47;
        stroke-width: 2px;
      }

      .cls-2 {
        fill: #184d47;
      }

      .cls-3 {
        stroke: none;
      }

      .cls-4 {
        fill: none;
      }
    </style>
  </defs>
  <g id="light_mode" data-name="light mode" transform="translate(-1284 -22)">
    <g id="Retângulo_29" data-name="Retângulo 29" class="cls-1" transform="translate(1284 22)">
      <rect class="cls-3" width="101" height="45" rx="22.5"/>
      <rect class="cls-4" x="1" y="1" width="99" height="43" rx="21.5"/>
    </g>
    <g id="sun" transform="translate(1347.095 31.782)">
      <g id="Grupo_20" data-name="Grupo 20" transform="translate(6.326 6.326)">
        <g id="Grupo_19" data-name="Grupo 19">
          <path id="Caminho_241" data-name="Caminho 241" class="cls-2" d="M86.1,77.084A6.414,6.414,0,0,0,81.593,75.2a6.276,6.276,0,0,0-4.509,1.884,6.393,6.393,0,0,0,4.509,10.9A6.275,6.275,0,0,0,86.1,86.1a6.414,6.414,0,0,0,1.884-4.509A6.275,6.275,0,0,0,86.1,77.084ZM84.89,84.89a4.712,4.712,0,1,1,1.346-3.3A4.654,4.654,0,0,1,84.89,84.89Z" transform="translate(-75.2 -75.2)"/>
        </g>
      </g>
      <g id="Grupo_22" data-name="Grupo 22" transform="translate(21.096 11.844)">
        <g id="Grupo_21" data-name="Grupo 21">
          <path id="Caminho_242" data-name="Caminho 242" class="cls-2" d="M254.266,140.8h-2.591a.875.875,0,0,0,0,1.75h2.591a.875.875,0,0,0,0-1.75Z" transform="translate(-250.8 -140.8)"/>
        </g>
      </g>
      <g id="Grupo_24" data-name="Grupo 24" transform="translate(11.844 21.096)">
        <g id="Grupo_23" data-name="Grupo 23">
          <path id="Caminho_243" data-name="Caminho 243" class="cls-2" d="M141.675,250.8a.891.891,0,0,0-.875.875v2.591a.875.875,0,1,0,1.75,0v-2.591A.891.891,0,0,0,141.675,250.8Z" transform="translate(-140.8 -250.8)"/>
        </g>
      </g>
      <g id="Grupo_26" data-name="Grupo 26" transform="translate(18.388 18.388)">
        <g id="Grupo_25" data-name="Grupo 25">
          <path id="Caminho_244" data-name="Caminho 244" class="cls-2" d="M221.914,220.7l-1.851-1.851a.856.856,0,0,0-1.211,1.211l1.851,1.851a.856.856,0,0,0,1.211-1.211Z" transform="translate(-218.6 -218.6)"/>
        </g>
      </g>
      <g id="Grupo_28" data-name="Grupo 28" transform="translate(11.844)">
        <g id="Grupo_27" data-name="Grupo 27">
          <path id="Caminho_245" data-name="Caminho 245" class="cls-2" d="M141.675,0a.891.891,0,0,0-.875.875V3.466a.875.875,0,1,0,1.75,0V.875A.891.891,0,0,0,141.675,0Z" transform="translate(-140.8)"/>
        </g>
      </g>
      <g id="Grupo_30" data-name="Grupo 30" transform="translate(18.421 3.482)">
        <g id="Grupo_29" data-name="Grupo 29">
          <path id="Caminho_246" data-name="Caminho 246" class="cls-2" d="M222.314,41.652a.853.853,0,0,0-1.211,0L219.252,43.5a.856.856,0,1,0,1.211,1.211l1.851-1.851A.853.853,0,0,0,222.314,41.652Z" transform="translate(-219 -41.4)"/>
        </g>
      </g>
      <g id="Grupo_32" data-name="Grupo 32" transform="translate(0 11.844)">
        <g id="Grupo_31" data-name="Grupo 31">
          <path id="Caminho_247" data-name="Caminho 247" class="cls-2" d="M3.466,140.8H.875a.891.891,0,0,0-.875.875.869.869,0,0,0,.875.875H3.466a.875.875,0,1,0,0-1.75Z" transform="translate(0 -140.8)"/>
        </g>
      </g>
      <g id="Grupo_34" data-name="Grupo 34" transform="translate(3.449 18.388)">
        <g id="Grupo_33" data-name="Grupo 33">
          <path id="Caminho_248" data-name="Caminho 248" class="cls-2" d="M44.314,218.852a.853.853,0,0,0-1.211,0L41.252,220.7a.856.856,0,1,0,1.211,1.211l1.851-1.851A.853.853,0,0,0,44.314,218.852Z" transform="translate(-41 -218.6)"/>
        </g>
      </g>
      <g id="Grupo_36" data-name="Grupo 36" transform="translate(3.449 3.482)">
        <g id="Grupo_35" data-name="Grupo 35">
          <path id="Caminho_249" data-name="Caminho 249" class="cls-2" d="M44.314,43.5l-1.851-1.851a.856.856,0,1,0-1.211,1.211L43.1,44.714A.856.856,0,0,0,44.314,43.5Z" transform="translate(-41 -41.4)"/>
        </g>
      </g>
    </g>
    <circle id="Elipse_19" data-name="Elipse 19" class="cls-2" cx="19.5" cy="19.5" r="19.5" transform="translate(1287 25)"/>
  </g>
</svg>
