<svg xmlns="http://www.w3.org/2000/svg" width="800" height="797.618" viewBox="0 0 800 797.618">
  <defs>
    <style>
      .cls-1 {
        fill: #478a2b;
      }

      .cls-2 {
        fill: #5c3427;
      }
    </style>
  </defs>
  <g id="terra" transform="translate(0 797.618)">
    <path id="Caminho_55" data-name="Caminho 55" class="cls-1" d="M393.4-789.3c-14,15.1-18,20-21.8,27.2-8.8,16.8-9.2,35-1.4,55.1,2.1,5.4,6.4,13.7,7.8,15.3,1.1,1.2,2-26.4,1-30.4a101.191,101.191,0,0,0-3.6-9.9c-2.8-6.7-4.5-18-2.6-18,.5,0,1.6,2.4,2.2,5.2,1.5,6.1,5,14.8,6.1,14.8.4,0,1-2.4,1.4-5.3,2-15.2,9.7-42.2,13-45.6,2.9-2.9,2.6,0-1,11.1-3.5,10.7-5.6,21.8-4.1,21.8a28.2,28.2,0,0,0,4.7-2.6c4.5-2.8,8.5-6.9,9.4-9.7.7-2,3.5-2.3,3.5-.4,0,2.4-6.7,10.1-13.4,15.5-5.7,4.6-6.5,5.6-7.5,10.2-1.4,6.4-1.4,14.7-.1,15.5,1.4.9,10.2-5.7,14.3-10.7,2-2.4,3.9-3.8,4.6-3.4,2,1.3-1.6,6.2-9.3,12.6-5.1,4.2-7.9,7.4-9,10.1-1.9,4.6-2.2,19.4-.5,20.5,2,1.2,15.1-13.6,19.7-22.3,10.6-20.2,10.8-39.7.8-69.8-2.4-7.2-4.5-13.8-4.7-14.8C402.6-798.5,400.1-796.4,393.4-789.3Z"/>
    <path id="Caminho_56" data-name="Caminho 56" class="cls-1" d="M332.4-766.9c.3,1.3.8,6.4,1.1,11.3.9,13.4,4.9,20.9,13.1,24.9,5.6,2.7,6.6,1.8,7.2-6.3.6-8.7-1.5-13.4-9.4-21.1-7-6.8-7.9-7.6-10.7-9.8C332-769.2,331.9-769.1,332.4-766.9Z"/>
    <path id="Caminho_57" data-name="Caminho 57" class="cls-1" d="M432-765c0,2.6,3.6,7.8,7.3,10.7,6.8,5.3,15.1,13.2,14.4,13.9-.3.4-4.2-2.3-8.7-6l-8-6.7v3.9c0,4.4,2.7,8.5,8.9,13.9,3.2,2.7,4.1,4.1,4.1,6.7,0,2.9.5,3.4,6.6,6.4,4.5,2.2,6.4,3.7,6.2,4.8-.2.9-3,3-6.2,4.7-5.3,2.8-5.7,3.2-3.8,4,1.5.7,2.8.4,5.1-1.2,3.8-2.7,4.1-.9.5,2.4-3.1,2.9-2.4,4.7,3.1,7.5,5.3,2.7,6.9,2.5,10-1.3,1.4-1.7,3.2-4,4-4.9,1.2-1.5,2-1.4,9.3,1.8,9.9,4.3,19.6,5.6,21.6,2.9,1.3-1.8,1.4-1.8,2,.3.9,2.6,3.8,2.9,5.7.6,1.1-1.4,1-1.8-.6-3-2.6-1.9-1.5-2.5,2.6-1.4a31.8,31.8,0,0,0,13.8.4c3.2-.7,3.2-.7-2.2-2.5a83.687,83.687,0,0,1-13.3-6.5,106.126,106.126,0,0,0-14.8-7.3c-10.6-4-11.5-8.1-2.5-11,3.5-1.2,4-1.6,2.4-2.1a44.363,44.363,0,0,1-5.5-2.2c-3-1.4-3.9-1.4-6.8-.3a43.982,43.982,0,0,0-5.4,2.9c-2,1.4-2.5,1.2-9.2-5.8-6.1-6.3-8.8-8.2-19.2-13.4-6.6-3.3-14.1-7.6-16.7-9.6S432-765.6,432-765Zm66.3,59.2c5,1.2,6.3,2.8,2.2,2.8-3.2,0-10.5-2.9-10.5-4.2,0-.6.8-.7,1.8-.3C492.7-707.2,495.6-706.4,498.3-705.8Z"/>
    <path id="Caminho_58" data-name="Caminho 58" class="cls-1" d="M340-708.4c0,22.3,7.8,38.2,21.6,44,4.5,1.9,8,1.2,8.8-1.8,1.2-4.7.6-20.8-.9-24.5-2.6-6.2-8.5-12.3-17-17.9-4.5-2.9-9.2-6.5-10.4-8l-2.1-2.7Z"/>
    <path id="Caminho_59" data-name="Caminho 59" class="cls-1" d="M292.2-705.7c.8,1.2,3.1,6.4,5.3,11.5,6.2,14.9,11.8,20.1,26.5,24.1,3.9,1.1,8.1,2.3,9.2,2.7,2,.6,2.1.3,1.5-4.9-.7-7.4-3.5-12.4-10.5-18.8-6.4-6-22.5-15.3-18.6-10.8,13,15,22.8,27.9,21.9,28.8-.4.3-2.3-1.5-4.3-3.9-2-2.5-5.9-7-8.7-10a195.374,195.374,0,0,1-14-17.7,30.7,30.7,0,0,0-4.9-1.7l-4.7-1.4Z"/>
    <path id="Caminho_60" data-name="Caminho 60" class="cls-1" d="M280-692.6c0,1.5-2,8.1-4.5,14.6-5.8,15.6-7.2,23-5.7,30.5,1.4,6.7,5.7,16.7,8.2,19,1.6,1.5,2,1.4,4.9-1.1,10.2-8.5,12.8-30.4,5.7-47.2-1.4-3.1-3.5-8.3-4.9-11.5C280.8-695.3,280-696.2,280-692.6Zm3,43.6c0,6.3-2.2,19-3.1,18.4-1-.6-1.2-14.6-.3-19.3C280.6-654.5,283-653.9,283-649Z"/>
    <path id="Caminho_61" data-name="Caminho 61" class="cls-1" d="M438.7-688.9c.5,3.7.4,4.1-1,3.6s-1.7,0-1.7,3.3c0,10,3.9,20.6,9.8,26.5,3.5,3.5,10,7.5,12.2,7.5,1.5,0,1.2-5.5-.5-9.8-2-4.6-3.6-15.4-2.5-16.6s2.6,1.9,4.1,8.9a49.193,49.193,0,0,0,2.9,9.3l1.6,3.4-.4-6.4c-.9-12.9-5.1-18.7-23.9-33C438.5-692.9,438.3-692,438.7-688.9Z"/>
    <path id="Caminho_62" data-name="Caminho 62" class="cls-1" d="M416.7-686c-17.1,7.2-32.8,18-37.2,25.5-5.2,8.7-6.6,19.7-3.4,25.7.9,1.7,1.4,1.3,4.9-3.9,3.6-5.4,14-16.6,14-15.1,0,1.6-7.2,12.7-11,17-3.3,3.8-3.8,4.8-2.4,4.8,1,0,6.5-4.6,12.1-10.2s10.5-9.9,10.8-9.6c.8.7-7.5,11.2-12.3,15.7l-3.7,3.3,4.3-2.2c5.4-2.7,12-9.2,15.6-15.3,1.5-2.5,4.9-10.6,7.5-17.9s5.6-14.8,6.5-16.6c1-1.9,1.6-3.5,1.4-3.7S420.4-687.6,416.7-686Z"/>
    <path id="Caminho_63" data-name="Caminho 63" class="cls-1" d="M234.2-677.3c1,14.3,4.2,21.3,12.4,26.9,7.6,5.3,8.9,4.4,8.9-6.2-.1-7.2-.4-8.5-3.6-14.4a36.573,36.573,0,0,0-10-11.7c-3.5-2.9-6.9-5.3-7.4-5.3C233.8-688,233.7-684.4,234.2-677.3Z"/>
    <path id="Caminho_64" data-name="Caminho 64" class="cls-1" d="M526-683.7c-7.5,6-12.4,11.6-15,17.4-2.7,5.9-3.7,16.6-1.9,20.8l1.2,3,.8-4.7c1-6.6,3.7-15.6,4.9-16.3,1.4-.9,1.2,7.8-.4,15.3l-1.3,6.3,2.6-.6c6.9-1.7,13.4-8.6,15.1-16a43.971,43.971,0,0,0,.3-10.6c-.5-6.2-.8-6.7-2.4-5.9-2.4,1.3-2.9,1.3-2.9-.4,0-.8,1.1-2.3,2.5-3.4s2.5-2.7,2.5-3.7a10.9,10.9,0,0,1,1-3.6C534.8-689.3,532-688.4,526-683.7Z"/>
    <path id="Caminho_65" data-name="Caminho 65" class="cls-1" d="M480.7-666.1c-4.3,9.4-6.7,18.5-6.7,25.8,0,9.8,5.6,22.7,13,29.8,3.1,2.9,3.2,2.9,4.6,1.1,2.5-3.5,5.5-12.8,6.1-19,.6-6.5-1.1-15.2-4.5-22.9l-1.8-4.2-4.7,12c-5.1,12.9-6.3,15.3-7.2,14.4-.7-.8,4.9-16.8,8.2-23.2,2.1-4.3,2.3-5.2,1.1-8.3-.6-1.8-1.5-3.4-1.8-3.4s-1.9,4.8-3.4,10.7c-2.8,10.2-4,13.2-5,12.2-.6-.6,1.8-11.6,4.7-21.5C486.7-674.4,485.3-676.3,480.7-666.1Z"/>
    <path id="Caminho_66" data-name="Caminho 66" class="cls-1" d="M178.4-658.5c-.3,1.3-1.9,10-3.4,19.2l-2.8,16.8,4.7,4.1c2.5,2.2,6,5.2,7.6,6.7,5.4,4.6,2.1,3.7-5.3-1.4l-7.1-5-.7,2.7c-1.2,4.6,1.2,17.2,4.6,24a58.743,58.743,0,0,0,8.2,11.9c5.3,5.8,13.5,12.1,14.5,11.1.3-.3-.4-4.5-1.7-9.3-2.3-9.5-4.8-16-4.9-13.1-.1,1-.5,1.8-1,1.8-1.7,0-3.3-3-2.9-5.5.4-2-.5-3.4-4.8-7.5-5-4.5-6.6-7-4.6-7,.4,0,2.9,1.6,5.6,3.5s5.4,3.5,5.9,3.5c1.1,0,1.1.3-3.8-20.9-1.9-8.5-3.2-15.7-2.9-16,1.2-1.3,3.3,3.4,5.4,12.4,1.2,5.2,2.5,9.7,3,10s2.1-1.7,3.4-4.4c2.6-4.9,4.2-6.8,5.3-5.7.3.3-1.1,4-3.2,8.4l-3.6,7.8,2,8.3c3,12.1,3.1,12.1,7.4,5.7,2.1-3.1,4.2-5.6,4.7-5.6,1.4,0,1.3.3-2.1,7-4.7,9.3-5.1,11.4-3.2,18.9.9,3.6,1.8,6.8,1.9,7,.2.2,1.3-.4,2.4-1.4,5.6-5.1,8.6-24.6,5.6-36.5-3-11.8-7.6-19.6-23.7-39.4a71.918,71.918,0,0,1-6.8-10.2c-1.2-2.4-2.4-4.4-2.7-4.4C179.2-661,178.8-659.9,178.4-658.5Z"/>
    <path id="Caminho_67" data-name="Caminho 67" class="cls-1" d="M339.5-655c-10.3.9-20.1,3.2-25.9,6.2-5.8,2.9-13.8,11.5-16.8,17.8-3.1,6.5-3.1,6.4,7,8.2,8.6,1.4,15.1.2,25-4.7,8.7-4.4,14.3-10.1,19.8-20.3,4.3-7.9,4.4-8.2,2.2-8.1C349.5-655.8,344.5-655.4,339.5-655Zm1.4,4.7c-.1,1-21.4,18.8-25.7,21.5-1.8,1.1-3.5,1.8-3.8,1.6-.8-.9,3.6-5.7,8-8.7,2.3-1.6,7.5-5.7,11.5-9C337.4-650.4,341.1-652.3,340.9-650.3Z"/>
    <path id="Caminho_68" data-name="Caminho 68" class="cls-1" d="M212-648c0,2.2,6.1,14.4,10.4,20.9,5.7,8.5,12.2,14.6,19.1,17.7,9.4,4.3,25.8,6.8,29.4,4.5,3.7-2.4-5.6-18.5-14.5-25.2-5.2-4-18.1-9.8-21.7-9.9-1.4,0-.4,2.6,5.3,13.5,4,7.4,7,14,6.8,14.6-.5,1.4-10.9-15.9-14.4-23.7-1.5-3.4-3.2-5.8-4.6-6.3-7.3-2.7-7.3-2.8,1.1,9.8,8.3,12.3,8.7,13.1,7.3,13.1-1,0-12.9-15.8-17.2-22.8C215.9-646.8,212-650.3,212-648Z"/>
    <path id="Caminho_69" data-name="Caminho 69" class="cls-1" d="M553.5-642.8c-9.6,11-12.8,21.9-10.5,35.6,1.6,9.7,2.6,10.3,8.3,4.5,10.3-10.5,14.2-23.2,11.7-38.2l-1.2-7.3-5.3,11.1c-3,6.1-5.8,11.1-6.4,11.1-.9,0,3.5-11.5,7.3-18.9.9-1.7,1.4-3.1,1.2-3.1A61.338,61.338,0,0,0,553.5-642.8Z"/>
    <path id="Caminho_70" data-name="Caminho 70" class="cls-1" d="M423.8-643.1c2.2,2.2,4.3,4.8,4.6,5.8.3,1.1,2.2,2.7,4.1,3.6,3.4,1.6,5.4,4.2,4.2,5.4-.4.3-1.8-.2-3.3-1.2l-2.6-1.7,1.8,3.2c3.6,6.1,7.4,9.8,12.6,12.4,7.1,3.6,16.8,3.5,16.8,0,0-4.1-8-14.6-14-18.5-1.4-.9-2.2-2-1.9-2.3,2-2.1,13.7,7,15.9,12.5.7,1.6,1.5,2.8,1.7,2.5.9-.9-3.9-10.2-7-13.4-6.2-6.5-21-12.2-31.7-12.2h-5.2Z"/>
    <path id="Caminho_71" data-name="Caminho 71" class="cls-1" d="M604.1-636.1a77.2,77.2,0,0,1-12.5,12.4c-28.6,22-38.7,38.2-39,62.2-.1,8.8,1.4,14.4,3.9,15.2.6.2,2.8-3.1,5-7.2l3.8-7.5L564-571c-1-7.5-1-10.4-.2-11.2,1.3-1.3,1.7-.5,2.6,5.3a17.55,17.55,0,0,0,2.1,5.5c1.4,1.9,1.4,1.9,2.9-.1C574-575,580-588,580-590.3a75.431,75.431,0,0,0-1.4-9.4c-.7-4-1.1-7.5-.8-7.8,1.3-1.2,2.2-.2,3.2,3.6.6,2.3,1.6,5.3,2.1,6.7.9,2.4,1,2.5,2.3.6.7-1,3.4-6,6.1-10.9,5.2-9.9,6.5-11.8,6.5-9.2,0,1.9-6,15.8-12.4,28.5-2.5,5-4.6,9.6-4.6,10.2,0,1.6,3.5,1.2,9.2-1,2.8-1.1,5.4-1.8,5.6-1.5,1,1-1.6,2.9-9.1,6.6-4.6,2.2-9.5,5.4-11.2,7.3-3.5,4-13,21.4-12.1,22.3,1,1.1,9.7-2.9,17.2-7.9a61.354,61.354,0,0,0,21-23.3c4.5-9.2,6.3-16,7.1-27.5l.6-9.5-4.6,6c-14.3,18.5-14.3,14.4,0-6.2l4.4-6.3-.3-11.6-.3-11.6Z"/>
    <path id="Caminho_72" data-name="Caminho 72" class="cls-1" d="M350.5-631.2A52.724,52.724,0,0,1,352-622c.8,8.9,1.8,11.1,6.3,13.8l3.4,1.9-.5,7.9c-.3,7-.1,8.3,2,11.4a21.747,21.747,0,0,0,6.8,5.8c3.7,2,5.6,2.3,10.9,1.9,7.4-.6,10.5-2.5,13.9-8.5,6.6-11.8,1.9-24.8-10.1-27.7l-2.8-.7,3.4,6.8c4.3,8.5,6.7,14.2,6.7,16,0,3.5-2.1.5-7.3-10.6-6.5-13.7-7.2-14.1-14.8-9-6.4,4.3-6.9,4.1-6.8-4,.1-9.6-2-12.7-10.3-15.1C350.2-632.8,349.9-632.7,350.5-631.2Z"/>
    <path id="Caminho_73" data-name="Caminho 73" class="cls-1" d="M521.8-629.3a13.339,13.339,0,0,0-1.1,3.4c-.4,1.4-5,7.7-10.3,14-12.1,14.3-15.6,21.2-16.2,32.2a57.506,57.506,0,0,0,.8,13.6c1.6,7.4,4.9,15.1,6.5,15.1.7,0,2.4-1.9,3.8-4.3a117.047,117.047,0,0,1,10.2-12.6c10.5-11.5,12.8-16.5,13.8-31.4l.4-4.7-10.5,11c-5.7,6.1-10.7,10.9-10.9,10.6-.6-.5,9.7-13.4,16.5-20.8l4.4-4.8-1.5-6.7C526-622.1,522.5-630.7,521.8-629.3ZM520-602.2c0,.4-1.6,2.4-3.6,4.3a33.258,33.258,0,0,0-5.9,7.9c-2.2,4.2-6.1,7.8-7.2,6.6-1.7-1.6,1.6-6.8,8-12.8C518.2-602.7,520-604,520-602.2Z"/>
    <path id="Caminho_74" data-name="Caminho 74" class="cls-1" d="M415.5-618.5c.3,3.9,1,13.7,1.5,22,1,16.5,2.4,22.7,7.7,32.7,4.6,8.8,10,14.8,18.6,20.9,7.3,5.1,19.9,9.9,26,9.9h3.2l-5-3.2a159.216,159.216,0,0,0-14.2-7.4c-5.1-2.4-9.3-4.8-9.3-5.4,0-1.6,3-.5,15.3,5.8,5.9,3,11,5.3,11.2,5.1.2-.3-3.9-4.8-9-10-7.6-7.7-10.6-10.1-15.2-11.9-8.9-3.6-17.3-7.9-17.3-9,0-1.3-.5-1.4,7.8,1.4,8,2.7,9.1,2,4.8-3.1-6.1-7.4-19.2-31.5-18.1-33.4,1.2-1.8,2-.8,7,7.6,2.7,4.6,5.1,8.2,5.3,8.1.6-.6.4-10.1-.3-16.8l-.7-6.5-5.4-2.6a52.386,52.386,0,0,1-10-6.9l-4.6-4.2Z"/>
    <path id="Caminho_75" data-name="Caminho 75" class="cls-1" d="M295.4-611.1c-5,1.2-5.8,2.1-3.5,3.7,1.1.8,5.2,6.2,9.2,11.9,8.3,12.3,15.5,19.2,24.5,23.6,5.7,2.8,7.9,3.3,15.8,3.6l9.1.4-7.5-3.4c-12.5-5.6-24.2-11.8-23.7-12.4.9-.9,22.4,6.5,29.9,10.3,3.7,1.9,6.8,3.1,6.8,2.8,0-1.2-5.1-9.6-10.6-17.4-6.1-8.8-13.4-15.9-19.4-19C318-611.1,303.5-613,295.4-611.1Z"/>
    <path id="Caminho_76" data-name="Caminho 76" class="cls-1" d="M142.7-598.7c.4,15,1.6,20.5,6.1,26.6,3.8,5.1,10.3,10.1,13.3,10.1a4.715,4.715,0,0,0,3-1.6c1-1.3,1-2-.4-4.4-1.9-3.1-2.2-6.6-.8-7.5.6-.3,1.5.3,2.1,1.2,2.3,3.6.4-10-2-15.2-2.8-5.6-11.7-15-17.5-18.2l-4-2.1Z"/>
    <path id="Caminho_77" data-name="Caminho 77" class="cls-1" d="M440.4-600.4c1.2,15.4,2.7,24.8,4.3,27.4l1.6,2.5,1.8-5a32.515,32.515,0,0,0,1.8-9.1c.1-4.6.7-5.5,2.7-4.7,1.7.6,1.7,3.6,0,13.3-1.5,8.2-1.2,9.5,3.9,15.5,3.4,4.1,4.5,2.6,5.9-8.1,1.1-8.6,1.2-8.8,2.8-6.5,1.2,1.7,1.4,3,.7,5.4-1.3,4.5-1.1,15.8.4,18.3,2.1,3.8,13.5,15.4,15,15.4,2.2,0,2.5-2.8,1.6-12.6-2.4-25.6-14.9-44.9-37.3-57.4l-5.9-3.3Z"/>
    <path id="Caminho_78" data-name="Caminho 78" class="cls-1" d="M633-589.4c-17.7,15.4-21.5,20.6-24,32.8-1.4,6.9-.6,14.4,1.7,15.3s8.1-2.5,14.4-8.7c5.8-5.7,9.5-11.8,12.2-20.5,2.7-8.6,5.4-25.5,4-25.4C640.9-595.9,637.1-592.9,633-589.4Z"/>
    <path id="Caminho_79" data-name="Caminho 79" class="cls-1" d="M234.5-586.6c-2.1,5.4-3.9,6-3.3,1.1.2-1.9.2-3.5,0-3.5-1,0-3.2,7.5-3.2,11.1,0,3.5.6,4.7,3.6,7.4l3.6,3.3-4.2,3.3c-7.8,6.3-10.2,15.7-6,23.8,5.2,10.3,17.3,12.7,28.2,5.5,10.4-6.8,10.4-24.7-.1-30.8a20.826,20.826,0,0,0-9.2-2.1c-3.3-.1-6.2-.5-6.6-.8-.3-.4.2-2.5,1.3-4.8,2.3-5.1,2.1-11.1-.4-15.1l-1.9-3Zm20.3,29.5c3.5,4.6,4.3,8.5,1.6,7.9-1.5-.3-9.4-12.1-9.4-14.1C247-565,251.4-561.4,254.8-557.1Zm1.9,12.8c.7,1.9-4.1,6.3-6.9,6.3-2.5,0-2.2-.9,1.4-4.7C254.8-546.4,255.8-546.7,256.7-544.3Z"/>
    <path id="Caminho_80" data-name="Caminho 80" class="cls-1" d="M258.4-588.7a35.486,35.486,0,0,0-5.5,2.9l-2.4,1.8,3.5,3c4.4,3.9,12.8,6.4,18.3,5.6a122.552,122.552,0,0,0,13.1-3.5l9-2.9-3.5-1.5c-1.8-.8-5.9-2.6-8.9-3.9-4.7-2.1-5.8-2.3-7.9-1.2-1.9,1-3.1.9-6.4-.2C263.1-590.2,262.5-590.2,258.4-588.7Z"/>
    <path id="Caminho_81" data-name="Caminho 81" class="cls-1" d="M99-581.1c0,.4,3.4,4.4,7.5,8.9,8.6,9.2,15.1,13,23.9,13.9,3.1.3,5.6.3,5.6,0s-3.4-2.7-7.5-5.3-7.5-5.1-7.5-5.5c0-.8,9.9,3,15.4,5.8l2.8,1.5-2.3-4.2c-4.7-8.3-13.9-13.5-25.4-14.5-3.8-.3-8.2-.8-9.7-1C100.2-581.8,99-581.6,99-581.1Z"/>
    <path id="Caminho_82" data-name="Caminho 82" class="cls-1" d="M532.2-573.8c-3,7.3-2.9,11.5.8,16.9a28.748,28.748,0,0,1,3,5.1c0,.5-2.5.8-5.5.8-6.7,0-12.4,2.6-15.6,7.2-3.2,4.5-3.8,13.9-1.1,18.8,2.1,3.9,8.2,8.6,12.4,9.6,2.4.5,2.9.1,5.3-4.5,1.4-2.8,3.2-5.1,4-5.1,2.1,0,1.9,2.7-.6,6.6l-2,3.3,3.1-1c3.6-1.3,8.8-6.2,10.1-9.6,1.2-3.3,1.1-10.5-.2-14a22.447,22.447,0,0,0-4.6-6.5l-3.5-3.6L540-553c2.6-3.7,3.6-10.4,2.1-14-.7-1.9-1-2-1-.7-.1,3.2-2.1.7-2.1-2.6a10.937,10.937,0,0,0-2.3-6l-2.2-2.7Zm12.3,39.6c-.9,6.8-2.5,11.2-3.9,11.2-1,0-1-1.6-.3-7.3.5-3.9,1.4-7.8,1.9-8.4C544.1-541,545.1-538.9,544.5-534.2Z"/>
    <path id="Caminho_83" data-name="Caminho 83" class="cls-1" d="M399-565.5c-1.9.7-8,2.5-13.5,4s-12.4,3.6-15.4,4.7l-5.4,2,.6,5.2c.5,5,2.4,10.6,3.6,10.6.3,0,3.6-2.6,7.3-5.8,9.1-7.8,14.6-12.2,15.2-12.2,1.7,0-.1,2.9-5.4,8.8l-6,6.7,4.5.3c6.6.4,5.2,2.6-2.1,3.2-7.4.7-8.3,1.2-17.4,10.5l-7.5,7.7,8.9-.4c6-.2,9.1.1,9.3.8.6,1.8-2.4,2.5-12.4,3.3-8.6.7-9.5,1-14,4.5-7,5.4-22.3,19.6-22.3,20.6,0,3.7,19.5.9,30.4-4.3,19.4-9.3,28.6-21.4,39.6-51.7,2.1-5.8,4.7-12.6,5.9-15.3C405.1-567.4,404.8-567.7,399-565.5Z"/>
    <path id="Caminho_84" data-name="Caminho 84" class="cls-1" d="M293-564.5a76.514,76.514,0,0,0-9.5,3l-4,1.7,3.9,3.4a44.109,44.109,0,0,0,18.8,9.2c4.7.9,16.6-.3,18.2-1.8.4-.5-.3-2.4-1.8-4.3-3-3.9-3.2-4.7-1.2-4.7.8,0,3,1.8,4.8,3.9,2.7,3.1,3.7,3.7,5.1,3,3.7-2.1.8-5.2-9.8-10.4C309.1-565.7,301.2-566.6,293-564.5Z"/>
    <path id="Caminho_85" data-name="Caminho 85" class="cls-1" d="M181-552.7c0,21.7,7.3,35.8,24.3,46.8,5.3,3.5,11.2,5.7,12.3,4.7.2-.3-2.8-8.3-6.7-17.9s-7.3-18.1-7.7-18.9c-.3-.8.9-.2,2.5,1.3,4.1,3.8,8.1,11.3,11.3,21.4l2.7,8.3,1.2-5.5c1.1-4.7,1-6.3-.4-11.2a50.73,50.73,0,0,0-12.8-21c-3.6-3.4-25.1-18.3-26.3-18.3C181.2-563,181-558.4,181-552.7Z"/>
    <path id="Caminho_86" data-name="Caminho 86" class="cls-1" d="M664-560a52.319,52.319,0,0,0-8.5,1.9C647.6-555,640-547,640-541.7c0,2.2.5,2.7,3.7,3.3,5.2,1,17.3-2.1,22.1-5.6,3.3-2.4,10.9-11.2,13.6-15.8C680.2-561.2,673.4-561.3,664-560Z"/>
    <path id="Caminho_87" data-name="Caminho 87" class="cls-1" d="M355.5-550.2c-16.7,9.2-30.6,24.4-35.6,38.9-2.2,6.5-2.6,16.3-.6,16.3,3.3,0,16.9-10.7,19.3-15.2.8-1.5,1.4-5.1,1.4-8,0-9.1,1.1-15.8,2.6-15.8,1.1,0,1.4,1.9,1.4,8,0,11,1,11.1,10.8,1.9,6.2-6,7.6-7.9,7.4-9.9-.2-1.4-.7-6.2-1-10.7l-.7-8.2Z"/>
    <path id="Caminho_88" data-name="Caminho 88" class="cls-1" d="M414.9-548.4c-.8,2.7-1.4,9.2-1.4,14.5,0,8.9.2,10,3.5,16.4,3.9,7.7,6.2,10.5,8.6,10.5,1.1,0,1.4-.5.9-1.8-3.7-9-6.3-20.2-4.7-20.2.5,0,1.9,3.6,3.1,8,1.3,4.4,2.7,8.2,3.1,8.5.4.2,1.3-2.8,1.9-6.8,1.9-11.9-.4-18.7-10.2-30.1l-3.4-3.8Z"/>
    <path id="Caminho_89" data-name="Caminho 89" class="cls-1" d="M271.4-544.8c.8,1.8,2.1,7.8,3,13.3,2.6,15.4,7.1,23.6,15.6,28.4,3.8,2.1,4.2,2.2,3.6.5-2.2-7.1-3.7-27.9-1.9-26,.4.4,1.7,6.5,2.9,13.7,1.3,7.2,2.5,13.3,2.7,13.6.3.3,1.1-.5,1.7-1.8.8-1.4,1.1-5.1.8-10.3-.7-13.2-6-20.9-20.2-29.6-4.4-2.8-8.3-5-8.8-5C270.4-548,270.7-546.5,271.4-544.8Z"/>
    <path id="Caminho_90" data-name="Caminho 90" class="cls-1" d="M587.1-542.8c-2.4,2.8-8.1,7.5-12.5,10.6C555-518.6,547-505.3,547-486.3c0,5.7,1.6,7.7,4.4,5.4.8-.7,6.7-9.1,13.1-18.7,6.5-9.6,12.2-17.7,12.7-18a1.551,1.551,0,0,1,1.9.3c1.1,1.1-6.1,12.4-16.9,26.8-3.3,4.4-5.9,8.1-5.7,8.3.9.9,13.4-6.8,18.3-11.2,6.8-6.2,9.5-10.6,12.6-19.8,2.6-7.9,5-23.9,4.4-30.4l-.3-4.1Zm-26.6,31.5c-1.5,7.9-7.5,15.3-7.5,9.2,0-2.2,1.1-4.7,4.4-9.6C560.2-516,561.4-515.9,560.5-511.3Z"/>
    <path id="Caminho_91" data-name="Caminho 91" class="cls-1" d="M127.4-539.2c9.1,18.1,29.6,30.2,44.4,26.2l4.4-1.1-5.5-3.3c-9-5.4-28.5-21.2-24.1-19.5.6.2,7.4,4.4,15.3,9.3,7.8,4.9,14.4,8.6,14.8,8.3,1.1-1.2-4.8-11.5-8-13.9-4.9-3.8-13.4-6.5-27.3-8.9a139.689,139.689,0,0,1-15.1-3C124.1-545.9,124.1-545.7,127.4-539.2Z"/>
    <path id="Caminho_92" data-name="Caminho 92" class="cls-1" d="M627.8-524.4c-8.5,2-15.6,5.9-16,8.6-.2,1.6-1.3,2.6-3.6,3.3-2.2.6-3.5,1.7-3.9,3.4-.8,3.4,3.3,6.6,12.1,9.3,16.8,5.1,40.1-1.3,54.5-14.9l6.6-6.2-3.1-.1a158.51,158.51,0,0,1-16.4-2.5C643.2-526.3,636.3-526.5,627.8-524.4Z"/>
    <path id="Caminho_93" data-name="Caminho 93" class="cls-1" d="M486.9-522.2a49.6,49.6,0,0,0-15.1,17c-1.9,3.9-2.3,6.3-2.3,13.9,0,5.7.4,9.6,1.2,10.4,2,2,7.8.1,12.5-4.1,5.6-4.9,9.2-12.6,11.2-24.3.8-4.8,1.8-9.3,2.2-10,.4-.6-1.6,1-4.5,3.8-2.8,2.7-5.1,5.7-5.1,6.6,0,2.1-2.6,4.3-4,3.4-1.6-1-1.3-1.6,4-10.5,2.8-4.6,4.9-8.5,4.7-8.7A23.408,23.408,0,0,0,486.9-522.2Z"/>
    <path id="Caminho_94" data-name="Caminho 94" class="cls-1" d="M445.5-511.3c-8.7,13.9-13.5,28-13.5,39.7,0,6.9,3.1,16.9,6.5,21.2l2.2,2.8,2.7-4c1.4-2.1,4.4-6.4,6.6-9.4,5.9-8.2,7.4-13.5,6.7-24.4a78.249,78.249,0,0,0-3.1-17.5,80.114,80.114,0,0,1-2.8-11.3c-.1-1.5-.5-2.8-.9-2.8S447.5-514.4,445.5-511.3Zm9,25c-.3,1.6-1.2,7-2,12.1-1.5,9.5-2.8,13.2-4.5,13.2-1,0-.6-4,2.2-17.8,1.4-6.8,2.5-10.2,3.4-10.2S454.8-488.1,454.5-486.3Z"/>
    <path id="Caminho_95" data-name="Caminho 95" class="cls-1" d="M237-514c.6,1.1,3,7.7,5.4,14.7,4.6,13.4,11.6,31.7,16,41.7,5.9,13.2,19.2,25.3,32.3,29.2,6.6,2,21.8,3,22.7,1.5.4-.6-2.7-4.9-7.6-10.3-16.8-18.7-16-18.2-32.1-19.4-6.3-.5-8.7-1.1-8.7-2,0-1,1.5-1.4,4.8-1.5,2.6,0,6.8-.4,9.4-.7l4.8-.7-4.8-5.6a78.938,78.938,0,0,0-8.6-8.7c-3.3-2.8-4.6-3.2-9.7-3.2-5.9,0-7.8-1.2-3.6-2.4a27.988,27.988,0,0,1,5.5-.6h3.3l-8.1-9.5c-4.4-5.2-8-9.7-8-10,0-2.1,3.7.8,11.6,9,5.1,5.2,9.9,9.5,10.7,9.5,1.8,0,3.2-5.5,2.4-9.6-.3-1.9-.1-2.4,1.2-2.2,1.3.3,1.6,1.6,1.3,7.8a63.1,63.1,0,0,0,.3,9.8c.6,2.3,16,19.2,17.6,19.2,1.9,0,1.9-7.1-.1-16.4a100.975,100.975,0,0,1-2-13.7c0-3.4-.5-4.2-3.2-5.9-6.3-3.9-13.7-7-27.4-11.5a160.862,160.862,0,0,1-19.3-7.5C236.8-516.5,235.5-516.7,237-514Zm46,73.9c16.1,6.6,21,8.9,21,10,0,1.5-.8,1.4-8.1-.9a91.629,91.629,0,0,1-14.4-6.5C268.1-445.2,268.6-446,283-440.1Z"/>
    <path id="Caminho_96" data-name="Caminho 96" class="cls-1" d="M395-513.8a121.591,121.591,0,0,1,3,12.8c2.6,12.9,4.9,17.9,10.5,22.8,5.1,4.5,11.1,7.9,12.2,6.9.4-.4.9-3.6,1.1-7,.7-11.9-5.7-22.6-19.1-32C393.6-516.6,393.8-516.5,395-513.8Zm17,24.9c2.7,3.8,5.5,10.8,4.6,11.7-.8.7-8.3-10.3-9-13.1C406.7-494.2,408.5-493.7,412-488.9Z"/>
    <path id="Caminho_97" data-name="Caminho 97" class="cls-1" d="M103-503.4c6.3,14.7,20.2,31.4,30,36.2,6.9,3.3,23.8,5.8,22.8,3.4-12-28.9-15.7-32.5-39.8-39.2-6.3-1.7-11.9-3.6-12.4-4.1C101.4-509.2,101.2-507.7,103-503.4Zm30.9,11.1c8.9,7.4,15.1,13.6,15.1,15.1,0,1-1.2.5-3.7-1.4-11.5-8.5-20.9-18.4-17.7-18.4C128-497,130.8-494.9,133.9-492.3Z"/>
    <path id="Caminho_98" data-name="Caminho 98" class="cls-1" d="M157.6-495.5c5.6,18.6,20.5,37.5,35.5,44.9,13.7,6.7,29.1,8.2,38.9,3.9l4.5-2-3-.8c-1.6-.5-6.6-2.4-11-4.3-7.7-3.4-8.5-3.5-20.5-3.6-10.6-.1-12.5-.3-12.8-1.7-.2-1.4.5-1.5,4.7-1.1,5.8.5,14.4-.6,13.6-1.8a79.036,79.036,0,0,0-8.6-5.6c-11.1-6.4-26.9-18.2-26.9-20,0-2.5,2-1.5,8.3,3.7,6.4,5.3,14.2,9.7,15.3,8.7.3-.4-.4-2.8-1.5-5.3-2.4-5.5-2.6-6.5-.8-6.5.6,0,2.9,3.4,5,7.5,4.3,8.3,9.9,13.5,19.9,18.6,6.7,3.4,16.2,6.1,18.4,5.2,2-.8,1.2-4.2-2.8-11.2-4.8-8.3-12.3-15-23.4-20.8-11.3-5.8-17-7.8-26.9-9.3-3.8-.6-8.1-1.3-9.5-1.6-2.4-.4-2.3-.3.8,2.1,3.8,3.1,4.1,4.5.8,4.5-1.5,0-3.6-1.3-5.5-3.5-2.5-2.9-3.9-3.6-8.5-4.1l-5.5-.7Z"/>
    <path id="Caminho_99" data-name="Caminho 99" class="cls-1" d="M378.7-493.9c-8.2,1.9-12,5.2-14,12l-1.3,4.4-5.3.2c-7.6.3-11.5,1.9-15.5,6.3-6.3,6.9-6.2,17.7.3,24.1C354.7-435,375-443,375-459.6a18.394,18.394,0,0,0-6-13.9,14.186,14.186,0,0,1-3-3.5c0-.4,2.2-1,4.9-1.3,7.5-.9,11-3.1,13.3-8.5a30.078,30.078,0,0,1,3.6-6.5c1.4-1.6,1.3-1.7-1.9-1.6A47.807,47.807,0,0,0,378.7-493.9Zm-14.1,28.3s.5,2.6,1.1,5.6c1,5.2.5,8-1.7,8-.6,0-4-12.3-4-14.5C360-467,364.3-466.2,364.6-465.6Z"/>
    <path id="Caminho_100" data-name="Caminho 100" class="cls-1" d="M527.5-492.4a52.19,52.19,0,0,1-9.5,4c-9.9,2.9-19.9,7.5-19.4,8.8.3.7-.2,4.5-1,8.5-.8,3.9-1.8,9.9-2.2,13.3l-.7,6.1,2.4-1.8c4.8-3.8,22.9-25.4,24.3-29,.2-.6.8-.5,1.7.2,1.1,1.1.9,1.8-.7,4-1.2,1.6-3.8,5.3-5.9,8.3s-9.7,11.9-16.8,19.8-12.6,14.6-12.3,15c.9.8,9.1-1.4,14-3.8,3.8-1.8,5.6-1.8,5.6,0,0,1.7-14.5,8-20.7,9.1a33.655,33.655,0,0,0-11.1,4.2c-5.7,3.7-18,13.9-18.1,14.9-.2,1.5,10.7.8,18.5-1.3,23.2-6.1,38.7-21.1,47.1-45.4,3.1-9,10.1-38.5,8.9-37.4C531.5-494.9,529.7-493.7,527.5-492.4Z"/>
    <path id="Caminho_101" data-name="Caminho 101" class="cls-1" d="M597.6-488.7c-3.1,6.3-11.4,12.7-27.7,21.6-24.4,13.3-28.9,16.2-36,23.1-9.8,9.6-18.2,27.9-16.3,35.4.9,3.9,2.8,3.2,7.6-2.9,3.3-4.2,5.3-8.2,8.2-17,2-6.3,4.2-11.5,4.7-11.5,1.3,0,1.1,2.5-.6,9.9a37.817,37.817,0,0,0-1.3,6.7c.2.1,4.6-3.1,9.8-7.3,5.2-4.1,10.3-8.1,11.3-8.8,1.9-1.3,5.2-10.2,6.2-16.8.8-5.3,2-7.6,3.4-6.2.6.6.4,3.7-.5,8.5-.8,4.1-1.3,7.9-1.1,8.4.9,2.6,18.4-16.8,24.1-26.7,2.6-4.4,4.6-6,4.6-3.7s-4.8,10.9-9.7,17.5c-6,7.9-5.4,9.4,2.3,5.1,5.3-3,6.6-3.2,5.8-1.1-.9,2.3-8.2,6.2-13.9,7.5a20.921,20.921,0,0,0-7.5,3.4c-1.4,1.3-6.4,5.1-11.2,8.5-9.4,6.6-12,9.7-9.3,10.7,2.5,1,13.8-.4,20.7-2.6,6.6-2,8.1-1.9,5.7.5-2.8,2.8-13.3,5.7-23.6,6.5-10.6.9-12.7,1.6-17.8,5.7-3.2,2.7-10.5,11.3-10.5,12.5,0,1.5,10.8.8,18.6-1.3,13-3.3,25.6-10,32.7-17.4,15.8-16.1,24.3-38.9,23.5-62.5l-.3-9.5Z"/>
    <path id="Caminho_102" data-name="Caminho 102" class="cls-1" d="M654.5-489.5c-20.5,5.7-26.7,11-33.5,28.8-1.5,4-3.1,7.9-3.4,8.8-1.9,4.5,15.1,2.3,25.8-3.2,7.6-4,10.1-5.9,13.7-10.6,3.5-4.7,3.5-5.7.4-11.9-1.4-2.7-2.5-5.8-2.5-6.9,0-1.7.2-1.8,1.5-.4.9.8,2.4,3.7,3.4,6.5l1.9,4.9L663-478c.6-2.5,1.5-6.1,2.1-8C666.9-493,666.9-493,654.5-489.5ZM646.2-470c-6.8,6.1-19,14.5-19.9,13.7-.3-.4.1-1.5,1-2.5a7.768,7.768,0,0,0,1.7-4.8c0-3.1,3.3-9.4,5-9.4,1.1,0,.3,5.4-1.3,8.5-.7,1.3.6.7,3.9-1.9C649.6-476.3,655.9-478.8,646.2-470Z"/>
    <path id="Caminho_103" data-name="Caminho 103" class="cls-1" d="M692.5-487a87.988,87.988,0,0,0-11.7,7.9l-4.7,4.2.6,6.4c.4,4.4.2,6.5-.5,6.5-.6,0-1.4-1-1.7-2.1-.6-1.7-.9-1.9-1.6-.8-1.3,2.1-1.1,6.5.4,7.7,3.4,2.8,15.2-3.4,19.1-10,2.1-3.6,8.1-22.7,7.3-23.4A67.15,67.15,0,0,0,692.5-487Z"/>
    <path id="Caminho_104" data-name="Caminho 104" class="cls-1" d="M296.2-488.9c.9,2.4,3.6,17.1,4.7,25.7,1.6,12.8,4.4,17.7,15,26,7.9,6.3,8.5,6,7.8-4.6a61.429,61.429,0,0,0-12-33.5c-4.9-6.4-7.1-8.5-14.1-13.6C295.9-490.2,295.7-490.2,296.2-488.9Z"/>
    <path id="Caminho_105" data-name="Caminho 105" class="cls-1" d="M485.9-474.1c-14.2,9.1-21.4,17.2-29.7,33.6-5.3,10.6-7.6,17.5-7,21.8l.3,2.6,7.5-4.8c7.3-4.7,10-7.9,10-12.2,0-2.9,3.6-13.1,6.1-17.4,1.5-2.5,2.5-3.3,3.2-2.6s.2,2.6-1.6,6c-2.7,4.9-3.7,13.3-1.8,14.6,1.1.6,12.1-9.3,15.3-13.8,1.6-2.2,2.7-6.8,4.3-17.8,1.1-8.2,1.8-14.9,1.5-14.9A88.122,88.122,0,0,0,485.9-474.1Z"/>
    <path id="Caminho_106" data-name="Caminho 106" class="cls-1" d="M71.3-466.9c-7.6,1.5-13.4,8.3-14.1,16.3-1.2,14.4,14.7,24.2,27.9,17.3,6.5-3.5,9.1-8.4,8.7-17-.2-4.1,0-6.7.7-6.7a19.528,19.528,0,0,1,5,2.5c5.4,3.3,10.2,3.2,17.1-.5l5.6-2.9-4.7-3c-8.1-5.1-16.8-5.3-22.6-.4l-3,2.6-2.7-2.5C84-466.1,77.3-468.2,71.3-466.9Zm.1,3.1c-.4.7-2.6,4.2-4.9,7.8s-4.4,7.3-4.8,8.2c-1,2.7-2.7,2.1-2.7-.9,0-2.7,2.9-7.3,8.3-13.1C70.4-465,72.8-466.2,71.4-463.8Zm8.6,1.5c0,1.3-8.4,9.3-9.7,9.3-2.7,0-.1-3.8,5.2-7.7C78.6-463,80-463.5,80-462.3Z"/>
    <path id="Caminho_107" data-name="Caminho 107" class="cls-1" d="M395-465.5c0,.7,13.5,25.7,17.1,31.7,1.6,2.7,2.5,4.8,1.9,4.8-1.1,0-5.7-6.5-11.2-15.9-2.7-4.6-3.7-5.7-3.2-3.6,1.5,6.6,5.6,16,8.9,20.6,5.2,7,15,13.8,22.1,15.3l3.2.7-2.9-8.1c-1.6-4.5-2.9-9-2.9-10.1,0-3.7,2.2-1.8,5,4.3,2.4,5.2,2.9,5.8,3,3.5,0-3.9-4.5-17.1-7.4-21.4-3.4-4.9-16.8-15-25.3-18.9C396-466.1,395-466.4,395-465.5Z"/>
    <path id="Caminho_108" data-name="Caminho 108" class="cls-1" d="M713-460.8c-6.7,1-18.5,6.6-22.3,10.6l-2.8,2.9,8.8-2.4c10.1-2.8,20.3-4.1,20.3-2.5,0,1.5-2.7,2.3-10,3.2a82.49,82.49,0,0,0-12.4,2.5l-5.8,1.7,2.8,1.8c4.6,3.1,14.7,5.4,20.7,4.7,6.4-.6,14.3-4.4,20-9.6,2.3-2,5.5-4.7,7.1-5.9l2.9-2.2-3.5-1.4A51.137,51.137,0,0,0,713-460.8Z"/>
    <path id="Caminho_109" data-name="Caminho 109" class="cls-1" d="M386-447.4c0,.9-1.1,3.7-2.4,6.3a33.447,33.447,0,0,0-3.1,8.4c-.7,4.2-3.2,4.7-2.8.6l.3-2.4-2.1,2.5c-4.8,5.9-6.8,14.9-4.7,21.9,1.9,6.3,4,7.3,7.7,3.7,2.7-2.6,6.6-10.5,7.3-15a3.191,3.191,0,0,1,1.7-2.4c2.8-.9-.3,11.3-4.3,16.9-.6.8.5-.2,2.5-2.3a21.477,21.477,0,0,0,4.9-8.3c1.6-5.8.8-20.2-1.5-26.8C387.8-448.9,386-450.6,386-447.4Z"/>
    <path id="Caminho_110" data-name="Caminho 110" class="cls-1" d="M144.5-446.8c-2.7.5-11.5,4.1-19.5,8s-16.1,7.7-18,8.6c-2.9,1.3-3.1,1.6-1.5,2,1.1.2,7.4,1.9,14,3.7,15.7,4.4,19.5,4.8,30.1,3.5,7.1-.9,10.7-2,17.9-5.5,5.1-2.4,10.5-5.9,12.5-8l3.5-3.7-3,.6a298.549,298.549,0,0,1-35,4c-6.6.4-14.4,1-17.2,1.5-2.9.4-5.3.4-5.3,0,0-2,5.1-3.8,12.5-4.4,4.4-.4,14.5-1.5,22.5-2.5s16.6-1.8,19.2-1.7c9.5.4-.3-4.4-12.9-6.2C156-448.2,151.4-448.1,144.5-446.8Z"/>
    <path id="Caminho_111" data-name="Caminho 111" class="cls-1" d="M647-444.9c0,2.4,4.4,9.1,7.3,11.3,2.1,1.5,4.4,2.1,8.8,2.2,6.8.1,7.8.7,5.7,3.1-5.3,6-6.4,15.7-2.6,22.5,8.1,14.3,32.3,10.2,34.5-5.9.7-5.6-1.4-12.2-5.1-15.9-4.1-4.1-10.2-5.8-17.7-4.9l-5.7.7-2.1-4.7c-1.6-3.7-2.9-5-6.5-6.5C657.7-445.7,647-446.8,647-444.9Zm46.2,19.6c3,3.3,4.8,6.5,4.8,8.7,0,3-2.8,1.6-5.3-2.7C688-427.5,688.2-430.6,693.2-425.3Zm.2,11.9c1,2.5.7,5.9-.6,7.2-2,2-2.8,1.4-2.8-2.2,0-3.9.8-6.6,2-6.6C692.4-415,693.1-414.3,693.4-413.4Z"/>
    <path id="Caminho_112" data-name="Caminho 112" class="cls-1" d="M222.3-432c-6.2,1.3-18.2,6.6-23.4,10.3-2.6,1.8-10.5,8.9-17.8,15.8L168-393.3l7.8.6c4.2.4,12.4,1.7,18.2,2.9,8.1,1.7,13.8,2.2,25,2.2,13.2,0,15.2-.3,22.5-2.8a102.28,102.28,0,0,0,15-6.8c7.3-4.3,20.5-16.4,20.5-18.7,0-1.9-17.6-1.1-20.8,1-1.3.8-5.5,5.3-9.3,10.1-4.5,5.6-7.7,8.8-9,8.8-1,0-1.9-.3-1.9-.6a53.7,53.7,0,0,1,4.9-6.8c4.7-5.9,7.1-9.7,7.1-11.2,0-1.3-12,.6-16.3,2.6-2.8,1.3-6.9,4.9-11.2,9.8-5.8,6.6-10.5,10.4-10.5,8.6,0-.2,2.3-3.4,5-7,2.8-3.6,5-7,5-7.5,0-2-17.6,2.4-28.4,7-3.4,1.5-5.3,1.8-5.9,1.2s-.9-1.2-.6-1.3a102.911,102.911,0,0,1,21.4-9.3c5-1.5,9.7-2.9,10.5-3.1,1-.4.1-1.4-2.8-3.2-3.8-2.4-5.8-4.9-4.9-5.8.5-.5,9.7,4.4,11.7,6.1,1.3,1.2,2.3,1.2,5.7.2,2.3-.7,4.5-1.5,4.8-1.9,1.3-1.2-4.3-3.9-9.4-4.5-3.1-.3-5-1-4.8-1.7.6-1.7,12.6-.7,17.6,1.6,3.9,1.7,5.7,1.9,16,1.4,6.4-.4,14.5-.9,18.1-1.2l6.5-.6-4-2.1c-8.2-4.2-20.3-6.9-33-7.2C231.9-432.7,224.6-432.5,222.3-432Z"/>
    <path id="Caminho_113" data-name="Caminho 113" class="cls-1" d="M598.2-427.9c-3.5,1.1-6.6,2.7-6.9,3.5-.8,2.2,6.9,9.7,13.2,12.8,12,5.8,21.6,5.7,38.8-.6q13.05-4.8,6.3-4.8c-1.4,0-6.4-2.1-11.3-4.6a153.546,153.546,0,0,0-14.2-6.5C617-430.6,606.5-430.5,598.2-427.9Z"/>
    <path id="Caminho_114" data-name="Caminho 114" class="cls-2" d="M328.5-424l-2.9,3.1,2.6,2.2c18.1,15,22,19.2,29,31.2,3.9,6.6,11.8,19.8,17.4,29.4,5.7,9.6,10.1,17.7,9.9,18-.6.6-.1,1.1-7.3-9l-6-8.5-6.4.4c-5.6.3-7.5-.1-16.6-3.8-9.4-3.8-26-8.7-26.6-7.8a11.806,11.806,0,0,0-.9,3.5c-.6,3.2-.5,3.2,8.6,8,5.1,2.7,12.4,7,16.2,9.6,9.1,5.9,22.2,17.1,22.9,19.5,1.3,4,2.6,22.8,3.2,45.2.9,32.9-1.2,52.8-7.2,66-4.8,10.8-18,20.6-32.9,24.5-5.2,1.3-25.2,1.5-168.7,1.5H0V0H800V-191l-161.7-.2-161.8-.3L468-196c-9.3-4.9-20.6-14.8-24.5-21.5-3-5.1-6-14.7-7.7-24.5-1.4-8.6-1.7-50.1-.5-68.5l.8-12L446.8-333a330.167,330.167,0,0,1,40.3-32.4l5.7-3.7-1.5-3.9c-1.4-3.4-1.8-3.7-4.2-3-14.3,4.3-41.9,21.1-55.4,33.9-6.3,6-8.7,6.2-4,.3,2.8-3.4,2.9-3.9,1.6-5.9-7-10.5.7-34.3,16-50l5.1-5.3-2.9-3c-1.6-1.7-3.5-2.9-4.2-2.8-.6.2-5,3.6-9.7,7.6-6.6,5.6-10.9,10.6-19.3,22.3l-10.8,15.1-4-.7c-8.9-1.4-15.4-7.2-24.4-22a108.434,108.434,0,0,0-24.6-27.4c-6.3-5.1-17.7-13.1-18.7-13.1A23.981,23.981,0,0,0,328.5-424Zm93.4,67.7c.1,4.5-.8,5.3-2.9,2.8-1.2-1.4-.7-7.6.8-9.9C420.7-364.9,421.9-361,421.9-356.3Zm-5.5,14.8a42.391,42.391,0,0,1,1.5,9.2c0,2.3-.6,1.7-3-3.7a43.64,43.64,0,0,1-3.6-11c-.6-4.5-.6-4.5,1.4-2.7C413.9-348.7,415.5-345,416.4-341.5Zm-8.4,0a6,6,0,0,1-.9,2.4c-1.5,2.3-3.1.2-3.1-4.2v-4.2l2,2.5C407.1-343.6,408-342.1,408-341.5Zm21,24.7c.6,5.7,1.4,11.1,1.6,12,.9,3.3-1.4,1.9-2.5-1.5-1.6-5.1-3.2-16.7-2.6-18.8C426.8-329.1,427.8-326.6,429-316.8Zm-7.6-5c2.6,11.7,8.7,90.1,7.2,91.5-1.3,1.3-1.8-1.1-2.7-12.9a117.607,117.607,0,0,0-1.9-16.3c-.6-2.2-1-7.6-1-12a179.647,179.647,0,0,0-1.5-19,114.019,114.019,0,0,1-1.3-18,73.917,73.917,0,0,0-.6-11.3q-.75-4.2.3-4.2C420.5-324,421.2-323,421.4-321.8Zm-25.7,21.4c.3,6.4-.9,5.2-2.2-2.5-.6-3.4-.4-4.2.6-3.9C395-306.5,395.6-304.4,395.7-300.4Zm11.7,19.9c.9,8.6-.1,7.9-2.3-1.7-1.3-5.5-1.4-8-.7-10.2l1.1-2.9.6,3.9C406.5-289.2,407-284.4,407.4-280.5Zm8.9-3.3a86.33,86.33,0,0,1,1.7,18.5,152.816,152.816,0,0,0,1.5,20.2c1.7,9.8,1.7,33.6,0,33.6-1.3,0-3.2-22.8-4.3-52.5-.6-12.9-1.3-24.3-1.7-25.3-.4-.9-.3-1.7.2-1.7S415.4-287.7,416.3-283.8Zm11.2,61.3a28.127,28.127,0,0,1,1.3,8.7c-.3,3.1-.4,3-2.1-2.4-1.6-5.2-2.3-11.8-1.2-11.8C425.7-228,426.7-225.5,427.5-222.5Zm8.5.7c0,3.6-3.5,1.6-3.8-2.2-.4-3.4-.4-3.4,1.7-1.6A6.381,6.381,0,0,1,436-221.8Zm3,10c2.1,3.4,2.8,9.4,1,8.3-1.4-.9-5-8.1-5-10C435-216,436.9-215.2,439-211.8Zm-16.6,8.3c1.7,2.6,2.1,6.2.7,8.3-1.3,2.1-2.8-.7-3.2-6.1C419.4-206.6,420-207.1,422.4-203.5Zm-182.2,44c13.8,5.6,19.1,5.5,25.4-.4,2.3-2.2,3.7-2.8,5.7-2.4,1.5.3,2.7.9,2.7,1.3,0,1.6-10.2,16-12,17-3.2,1.7-7.4,1.1-19-2.5-6.1-1.9-12.5-3.5-14.1-3.5-1.9,0-4.2,1.2-6.8,3.5-3.3,3-6.1,4.4-6.1,3.1,0-.3,2.4-2.7,5.3-5.5,2.8-2.8,4.8-5.1,4.4-5.1-.5,0-3.5,2.5-6.8,5.7-3.2,3.1-5.9,5.2-5.9,4.8,0-1.8,9.3-15.6,11.8-17.5C227.9-163.5,231.2-163.2,240.2-159.5Zm191.2,20-.7,15.5h10.2c10.2,0,10.2,0,9.5,2.2-1.3,4.5-2.3,5-10.9,4.6l-8.2-.3-.7,16c-.7,18.7.7,39.1,3,44.1,2.3,4.9,6.5,6.8,13.1,6.1,5.3-.6,5.3-.5,5.3,2.2,0,5.8-6.4,7.4-13.9,3.7-6.6-3.4-8-3.3-1.6.1l5,2.7-5.2.9c-12.8,2.1-22.9-3.6-25.2-14.1C410.4-59,410-72,410-89.3v-28.2l-6,.3c-6.3.4-6.6.2-5.4-4.6.6-1.9,1.3-2.2,6-2.2H410v-26.9l3.8-.7c2-.3,6.4-1.2,9.7-1.9s6.6-1.3,7.3-1.4C431.8-155,431.9-151.9,431.4-139.5ZM93.2-122.3l-.5,5.6,3.4-2.6c5.1-3.9,13.7-7.5,19.4-8.2,8.1-1.1,13.2.8,19,6.9l5.1,5.3,5.8-4.2c13.3-9.6,29.4-11,38.2-3.3,5.7,5,6.2,8.9,6.6,45.5l.4,32.3h-2.4c-2.1,0-2.4-.4-2-2.5.3-1.4.1-2.5-.3-2.5-.5,0-.9,1.3-.9,3,0,1.6-.4,3-.9,3a6.441,6.441,0,0,0-2.4.6c-1,.3-1.7-.5-2.2-2.8l-.9-3.3-.3,3.2c-.4,2.8-.9,3.2-5.4,4.3-2.8.7-5.1,1.1-5.3.9-.1-.2.2-7.4.6-15.9.5-8.5.7-22.5.5-31.1-.6-18.7-2.2-24-8.1-26.4a20.483,20.483,0,0,0-5.2-1.5c-3.3,0-8.7,3.5-11.6,7.4l-3,4.1.5,29.7.4,29.6-3,.6c-5.7,1.1-5.7,1.2-5.9-7.2l-.2-7.7-.3,7.8c-.4,8.6-.5,8.7-8.8,10.1l-4,.7v-62.6l-2.5-5c-2.1-4.1-3.2-5.3-6.6-6.4-3.8-1.3-4.4-1.3-8.7.8a21.833,21.833,0,0,0-6.9,5.4c-2.1,3-2.3,4.1-2.3,22.2,0,10.4.2,23.9.4,29.9.5,10.4.4,11-1.7,11.7-2.2.8-2.6-.3-3.5-11.6-.2-2.2-.4-.3-.5,4.2L87-44.2l-4.7,1c-2.7.6-6.4,1.3-8.3,1.7l-3.6.6.3-16.3c.8-42.5,2.2-65.2,4.1-66.9a10.64,10.64,0,0,1,3.5-1.3c2.6-.6,2.7-.5,2.8,3.1l.1,3.8,1.2-4c1.1-3.4,1.8-4.1,4.7-4.6C93.9-128.4,93.7-128.5,93.2-122.3Zm172.7-2c4.1,2.1,6,3.8,7.6,6.8,1.9,3.8,2,5.4,1.7,31-.2,14.8.1,30.1.6,33.8.8,6,.7,6.9-.9,7.8-2.7,1.4-2.8,1.3-3.1-4.4l-.3-5.2-.9,5c-1.3,7.2-4.1,8.8-5.2,3-.9-5-2.1-5.1-2-.2.1,4.2.1,4.2-4.4,5.3l-4.5,1.1-.3-3.9c-.3-3.3-.6-3.8-2-3.2-11.9,5.1-27.2,6.9-35.8,4-11.3-3.7-16.7-15.1-13.5-28.3C205.7-82.9,213.1-88,235-93.9c6.3-1.8,13.1-3.9,15-4.9,3.3-1.7,3.5-2,3.3-6.5-.6-17.3-20.1-21.5-29.7-6.3-2.8,4.5-2.9,4.5-5.2,2.8-2.8-2-2.9-3-.7-5.4,2.1-2.4-.3-2.5-2.9-.1-1.7,1.5-2,1.5-3.5,0-2.1-2.1-.7-4,5.7-7.2,9.2-4.7,19.7-6.5,33.4-6C258.8-127.1,261.3-126.6,265.9-124.3ZM337-125l.6,2.5.6-2.3c.6-2.2.8-2.3,3.6-.8,2.9,1.5,4.7,6,6.6,16.6.3,1.4.3-1,.1-5.3-.2-4.2,0-7.7.4-7.7,1.6,0,6.1,5.8,8.6,11.1,1.9,4.3,2.7,8,3.2,15.3l.6,9.6H310.4l.7,8.2c.8,9.1,1.8,12.5,5.5,17.9,3.9,5.7,9.6,8.4,17.9,8.4,8,0,13.4-2.2,20.2-8a32.382,32.382,0,0,1,4.6-3.5c.2,0-.1,2.8-.7,6.2-1,5.8-1.4,6.4-5.1,8.5-9.9,5.6-25.7,8.4-35.8,6.4-6-1.3-6.2-1.5-7-8.6-.3-2.8-.4-2.7-1.2,1.2-.9,4.8-1.1,5-4.5,2.6a31.31,31.31,0,0,1-11.3-12.8c-3.4-6.8-3.5-7.6-2.2-31,.8-16.7,1.4-18.4,8.9-26.3,7.2-7.6,17-11.2,29.6-10.9C336-127.5,336.5-127.3,337-125Zm169.4-.4c10.9,3.8,17.3,14.5,18.3,30.6l.6,8.8H473.9l.6,4.7c1.9,14.2,4.2,20,9.9,25.1,8.6,7.6,21.2,6.7,32.7-2.2,6.2-4.8,6.3-4.8,5.3,2.7-.6,4.3-.9,4.7-6.3,7.5-9.5,5.1-14.9,6.3-22,4.8-3.3-.7-7-2.1-8.1-3.1-1.7-1.5-2-1.6-2-.3,0,.9,1.7,2.3,4,3.2,2.2.9,4,1.8,4,2.2,0,.3-2.6.2-5.7-.2q-28.2-3.3-32.4-33.5c-3.7-26.1,8.4-47.4,29.5-51.9C489.1-128.3,500.6-127.4,506.4-125.4Zm52,6.1-.7,8.8,7.2-6.7c8.2-7.6,14.9-11.3,18.7-10.4,2.5.7,10.4,7.2,10.4,8.6,0,.5-1,.6-2.2.3-2.1-.4-2.2-.3-.6,1,1.5,1.2,1.6,1.9.6,5-1,3.4-2.8,5.1-2.8,2.7,0-1.5-7.6-5-10.7-4.9-2.3.1-2.1.3,1.3,1a16.652,16.652,0,0,1,7.3,4.3c3,3,3.2,3.6,2,5.7-2.7,5.3-6.2,5.2-8.3-.1-3.5-8.7-10.1-8.7-18.1.2l-4.5,5v26.9c0,22.7-.2,26.9-1.4,26.9-1,0-1.7-1.6-2.2-4.7-.6-4.2-.8-4.5-1.6-2.3a10.545,10.545,0,0,0-.3,5c.5,2.4.3,2.7-4.5,3.6l-5,1.1-.1-7.1-.2-7.1-.7,6.7c-.7,7.7-.6,7.4-4,8.3l-2.5.6.3-17.8c.1-11.4.7-19.8,1.7-23.3,2.2-8.6,3.5-20.2,3.5-31.5s-.4-10.5,6.5-12c1.7-.3,3.8-.8,4.8-1.1,1.4-.4,1.7.1,1.8,2.8l.2,3.3.4-3c.5-2.8,1.8-4.4,3.6-4.5C558.7-128,558.8-124.1,558.4-119.3Zm64.3-.2-.6,8.6,6.7-6.2c3.7-3.4,9-7.3,11.9-8.7,4.5-2.2,5.5-2.4,8.1-1.3a24.721,24.721,0,0,1,6,4.4l3.1,3.2-3.1,9.2c-2.4,6.8-3.8,9.4-5.5,10.2-2,.9-2.4.7-4.2-3.4-4.1-9.2-9.5-9.4-17.9-.6l-5.3,5.5.2,26.5.2,26.6-7.9,1.7c-4.4.9-9.4,1.9-11.1,2.3l-3.2.6v-82.9l3.5-.4c3-.4,3.5-.1,4.1,2a43.825,43.825,0,0,1-.1,9.6c-.3,3.9-.8,9.6-1.1,12.6l-.5,5.5,1.5-6.5a96.082,96.082,0,0,0,1.4-15.2c.1-8.2.2-8.8,2.4-9.3,5.4-1.2,10.3-2.3,11.1-2.4C622.9-128,623-124.3,622.7-119.5Zm91.6-6.9c1,.3,2.4,1.8,3.3,3.3,1.4,2.3,1.5,2.4,1.1.3-1.1-4.9,6-.6,9.2,5.7,1.7,3.3,1.9,6.8,2.2,37.8l.4,34.2-3.5.6c-1.9.3-4.7.8-6.1,1.1l-2.5.5.2-17.3c.2-16.6.2-16.8-.6-5.7-1.4,20.9-1.9,23.6-4.3,24.3-4.1,1.1-4.7.7-4.7-3,0-3.1-.3-3.5-1.7-2.9a60.225,60.225,0,0,1-22.4,5.2l-9.5.6-1.6-3.9c-1.6-3.8-1.6-3.8-1.1-.7.7,4.2-.8,4.3-6.5.6-8.1-5.3-11.5-17.6-7.7-28.2,1.4-4.2,5.3-9.9,6.7-10,.4-.1.9,3.4,1.1,7.6l.3,7.8.2-8.8.2-8.8,5.3-2.3c5-2.3,19.6-6.7,26.7-8.1a38.79,38.79,0,0,0,6.3-2.1c2.4-1.3,2.7-2,2.7-6.8,0-11.4-11.3-19.1-20.9-14.2-2.7,1.5-9.1,8-9.1,9.4a5.624,5.624,0,0,1-.9,2.1c-.7,1.1-2,.6-6.3-2.8-2.9-2.4-5.3-4.7-5.3-5.3,0-.5,2-2.2,4.4-3.6l4.4-2.6-.7,2.7c-.9,3.8.8,3.4,1.9-.5,1.1-3.4,4.4-5,14-6.8C694.7-127.9,711.4-127.6,714.3-126.4ZM71.9-119.3c-.1,4.3-.2,4.5-.9,1.8-1.1-4.4-1.1-6.5,0-6.5C71.6-124,71.9-121.9,71.9-119.3ZM540-114.2c0,9.1-1,18.1-2.8,24.2-.4,1.4-.9-5.4-1.2-15s-.4-17.8-.2-18.3c.2-.4,1.2-.7,2.3-.7C539.8-124,540-123.2,540-114.2Z"/>
    <path id="Caminho_115" data-name="Caminho 115" class="cls-2" d="M239.6-156.3c-1.2,1.3-.5,2.1,2.5,3.2,3.8,1.3,4.9,1.4,4.9.3S240.4-157,239.6-156.3Z"/>
    <path id="Caminho_116" data-name="Caminho 116" d="M414.6-138.3c-.4,6-.9,13.9-1.1,17.8-.4,5.8-.3,6.4.5,3.5,1.1-3.8,2.6-32,1.8-32C415.5-149,415-144.2,414.6-138.3Z"/>
    <path id="Caminho_117" data-name="Caminho 117" class="cls-2" d="M423.3-98.5A111.208,111.208,0,0,0,424-83c.7,5.2.7,5.1.7-3,0-4.7-.3-11.7-.7-15.5l-.7-7Z"/>
    <path id="Caminho_118" data-name="Caminho 118" class="cls-2" d="M175.2-114a27.461,27.461,0,0,0,1.3,6.5l1.4,4-.6-4a55,55,0,0,0-1.4-6.5l-.7-2.5Z"/>
    <path id="Caminho_119" data-name="Caminho 119" class="cls-2" d="M87.4-107.9a2.091,2.091,0,0,0,.5,2.2c.8.8,1.1.5,1.1-1.1C89-109.2,88.5-109.6,87.4-107.9Z"/>
    <path id="Caminho_120" data-name="Caminho 120" class="cls-2" d="M126.9-104.8c.4,2.8.6,2.9.9.9a4.343,4.343,0,0,0-.5-3.2C126.7-107.7,126.6-106.8,126.9-104.8Z"/>
    <path id="Caminho_121" data-name="Caminho 121" class="cls-2" d="M84.7-90c.3,3.6.9,9.9,1.3,14l.7,7.5.1-7.5a70.069,70.069,0,0,0-1.3-14l-1.4-6.5Z"/>
    <path id="Caminho_122" data-name="Caminho 122" class="cls-2" d="M263.2-114a46.337,46.337,0,0,0,1.3,8c.7,3.6,1.3,5.1,1.3,3.5C265.8-105.6,263.3-116.7,263.2-114Z"/>
    <path id="Caminho_123" data-name="Caminho 123" class="cls-2" d="M245.7-89.9c-7.9,2.2-13.5,4.9-15.9,7.6-6.5,7.2-6.4,22.9.2,28.8,3.4,3,14.1,2.8,19.8-.4l4.2-2.5V-74.2c0-9.8-.3-17.8-.7-17.7A74.041,74.041,0,0,0,245.7-89.9Z"/>
    <path id="Caminho_124" data-name="Caminho 124" class="cls-2" d="M214.6-76.2c-.4,2.9-.6,5.6-.3,5.9.9.9,1.9-4.1,1.5-7.8C215.5-81.1,215.4-80.9,214.6-76.2Z"/>
    <path id="Caminho_125" data-name="Caminho 125" class="cls-2" d="M317-117.2c-4.2,4.2-5.6,8.3-6.2,17.9l-.4,6.3h29.9l-.5-7.8c-.6-8.5-3.6-16.2-7.1-18.7-1.2-.8-4.3-1.5-7-1.5C321.3-121,320.3-120.6,317-117.2Z"/>
    <path id="Caminho_126" data-name="Caminho 126" class="cls-2" d="M305.5-113c-.3.5-.1,1,.4,1a1.1,1.1,0,0,0,1.1-1c0-.6-.2-1-.4-1C306.3-114,305.8-113.6,305.5-113Z"/>
    <path id="Caminho_127" data-name="Caminho 127" class="cls-2" d="M355-99.1c0,2.3.5,4.1,1,4.1.6,0,1-1.5,1-3.4s-.4-3.8-1-4.1C355.4-102.9,355-101.5,355-99.1Z"/>
    <path id="Caminho_128" data-name="Caminho 128" class="cls-2" d="M299.6-88.7c-.4,6.5-.6,12.1-.3,12.3.7.8,1.9-15.3,1.5-20.1C300.6-98.7,300.1-95.2,299.6-88.7Z"/>
    <path id="Caminho_129" data-name="Caminho 129" class="cls-2" d="M484.3-119.4c-5.5,2.8-8.1,8.8-9.6,22.1l-.5,4.3H505l-.6-6.3C502.7-117.3,495.2-124.8,484.3-119.4Z"/>
    <path id="Caminho_130" data-name="Caminho 130" class="cls-2" d="M513.2-107c0,1.4.2,1.9.5,1.2a5.278,5.278,0,0,0,0-2.5C513.4-108.9,513.2-108.4,513.2-107Z"/>
    <path id="Caminho_131" data-name="Caminho 131" class="cls-2" d="M463-102.1c0,2.3.5,4.1,1,4.1.6,0,1-1.5,1-3.4s-.4-3.8-1-4.1C463.4-105.9,463-104.5,463-102.1Z"/>
    <path id="Caminho_132" data-name="Caminho 132" class="cls-2" d="M462.1-82.9a45.679,45.679,0,0,0,2,15.4c1.1,3.7,2.2,6.5,2.5,6.3.2-.3-.3-2.4-1.1-4.8-.9-2.4-1.5-7.9-1.6-12.9,0-4.7-.4-9.5-.9-10.6Q462.1-91.45,462.1-82.9Z"/>
    <path id="Caminho_133" data-name="Caminho 133" class="cls-2" d="M546.7-96.3c-.9.9-.9,9.5.1,11,.4.6.7-1.7.7-5.3,0-3.5,0-6.4-.1-6.4A3.987,3.987,0,0,0,546.7-96.3Z"/>
    <path id="Caminho_134" data-name="Caminho 134" d="M613.4-84c0,9.6.2,13.6.3,8.7.2-4.8.2-12.6,0-17.5C613.6-97.6,613.4-93.6,613.4-84Z"/>
    <path id="Caminho_135" data-name="Caminho 135" class="cls-2" d="M605.2-60.3c.2,4.4.9,7.8,1.7,8.5,1.2,1.1,1.3,1,.6-.7a35.239,35.239,0,0,1-1-7.8c-.1-3.1-.5-6.1-1-6.5C605.1-67.2,605-64.2,605.2-60.3Z"/>
    <path id="Caminho_136" data-name="Caminho 136" class="cls-2" d="M719.1-116.3c-.1,2.4.4,4.3.9,4.3,1.2,0,1.2-2.4,0-6C719.3-120.1,719.2-119.9,719.1-116.3Z"/>
    <path id="Caminho_137" data-name="Caminho 137" class="cls-2" d="M697.8-89c-11.8,3.1-16.7,8.5-17.5,19.4-.7,7.7.8,12.7,4.8,16.1,4.2,3.5,11.6,3.5,18.7-.1l5.2-2.6V-91l-2.2.1A55.993,55.993,0,0,0,697.8-89Z"/>
    <path id="Caminho_138" data-name="Caminho 138" class="cls-1" d="M286-416.4c0,1.4,8.8,15.6,13.6,21.9,7.7,10.2,13.5,13.6,23.5,13.7,3.4.1,6.4-.5,7.7-1.4,2.1-1.4,2.1-1.5-1.5-3.2-4.6-2.2-14.6-10-13.4-10.4s8.3,3.2,13.9,7c7.2,5,4.6,1.4-4.5-6.3-4.9-4-9-7.4-9.2-7.6s-.2-.6.2-.9c.8-.8,7.1,3.1,12.2,7.6,4.4,3.8,3.2,1.7-2.4-4.3-4.8-5.1-10.8-8.1-23.8-11.6-5.9-1.6-12-3.4-13.5-4C287.2-416.5,286-416.7,286-416.4Z"/>
    <path id="Caminho_139" data-name="Caminho 139" class="cls-1" d="M89.5-413.1a56.1,56.1,0,0,0-10,6.7c-3.8,3.4-3.9,3.5-1,2.4,5.2-2,22.7-6.2,23.3-5.6.9,1,0,1.4-15.3,6.2-8.3,2.6-15.8,5.4-16.7,6.3-1.6,1.5-1.5,1.6,1.5,1.7,17.5.8,21.7.6,28.4-1.6,10.8-3.6,18.2-12.6,13.9-16.8-1.2-1.3-3.9-1.8-9.9-2C96.2-416.1,95-415.9,89.5-413.1Z"/>
    <path id="Caminho_140" data-name="Caminho 140" class="cls-1" d="M145.6-408.9c-12.7,3-25.4,14.1-32.8,28.7-2.5,5-4.5,9.2-4.3,9.2,1.8,0,27.4-7.5,31-9,7.1-3,14.7-10.9,19-19.6,2.1-4.1,3.5-7.7,3.2-8-.8-.8-7.9-2.4-10.2-2.3A55.546,55.546,0,0,0,145.6-408.9Z"/>
    <path id="Caminho_141" data-name="Caminho 141" class="cls-1" d="M486.8-403.1c-4.2,1.4-9.4,4.9-11.1,7.5l-1.6,2.4,5-1.9c5.7-2.2,7.2-2.4,6.7-.8-.2.7-3.1,2.1-6.3,3.3-3.3,1.2-6,2.5-6,3.1,0,.5,2.3,1.8,5,2.8,8.6,3,18,.8,27.9-6.5a26.213,26.213,0,0,0,4.6-3.9c0-.4-2.8-1.9-6.2-3.4C498.1-403.5,491.2-404.5,486.8-403.1Z"/>
    <path id="Caminho_142" data-name="Caminho 142" class="cls-1" d="M573-402.9c0,.6,1.1,2.9,2.4,5.2A112.773,112.773,0,0,1,581-384c1.7,5.2,4.2,11.4,5.6,13.7,2.7,4.7,9.8,11.2,15.8,14.6l4.2,2.4-4.2-12.1c-5.6-16.2-5.7-16.6-4.6-16.6.8,0,9.8,21.4,11.6,27.6.9,3,8,5.5,19.4,6.8,4.6.5,4.6.7.4-4.5-.8-.8-3.7-7.4-6.6-14.5s-6.1-14.4-7-16.3c-4.3-8.3-16.8-16.7-28.7-19.6C579.4-404.2,573-404.4,573-402.9Z"/>
    <path id="Caminho_143" data-name="Caminho 143" class="cls-1" d="M631-394.8c-5.9,1.3-6.5,2-4.7,5.4,3.7,7,14,12.9,24.5,14a66.912,66.912,0,0,0,13.9-.5c4.3-.7,8.8-1.3,10-1.4s2.1-.2,2-.3c-3.6-2.9-21.5-14.3-25.1-16C646.1-396.2,639.1-396.6,631-394.8Z"/>
    <path id="Caminho_144" data-name="Caminho 144" class="cls-1" d="M518.5-381.8c-4.9.9-8.5,2.8-5.4,2.8,4,.1,26.1,2.9,26.6,3.4,1.1,1.1-.5,1.8-4.9,2.3-2.8.3-9-.5-16.7-2.2-6.7-1.4-13-2.4-13.9-2-2.6,1-.1,1.9,10.3,3.9,5,1,11.7,2.4,14.9,3.2,4.7,1.2,9.3,1.4,23.4.8l17.5-.7-2.4-2c-4.1-3.3-13.6-7.7-20.1-9.2C540.8-383.1,526.2-383.3,518.5-381.8Z"/>
    <path id="Caminho_145" data-name="Caminho 145" class="cls-1" d="M259.2-377c-9.4,2.5-17.6,6.9-26,13.9-3.7,3.1-7.7,6.3-8.9,7.2-1.2.8-7.4,6.4-13.7,12.4L199-332.6l5.8,1.2c3.2.7,9,1.5,12.8,1.9s12.3,1.3,18.9,2.1c15.1,1.8,22.4,1.8,31.8,0,16.6-3.2,33.2-13.6,40.9-25.5,3.3-5.2,3.8-9.5,1.1-8.7-11.3,3.5-15,4.7-15.9,5.3-.6.5-3.7,3.9-7,7.8a117.8,117.8,0,0,1-8.4,9.2c-2.4,2.2-6,3.1-6,1.5,0-.4.8-1.2,1.8-1.8,2.3-1.5,9.7-12.3,8.9-13.1-.9-.8-12.2,1.5-18.2,3.8-4,1.6-6.1,3.4-10.5,8.9-3,3.8-6.3,6.9-7.2,6.9-2.4.1-2.3-.1,2.1-6.7,2.2-3.1,3.8-5.8,3.6-6-.1-.2-5.4,1.1-11.6,2.7-12.6,3.3-21,4.3-21.6,2.5-.2-.7,1.9-1.6,5.4-2.2a58.109,58.109,0,0,0,10.1-2.9l4.4-1.9-5.1-2.4c-2.8-1.3-5.1-2.7-5.1-3.1,0-2.1,2.7-1.9,8.2.6,6.6,3,12.3,2.9,14.5-.1a2.517,2.517,0,0,1,2.6-1.1c1.5.5,17.5-4,19.1-5.4,1.4-1.2-3.6-3.8-11.9-6.2-4.3-1.2-8-2.8-8.3-3.6-.7-2.1,7.2-.6,19.2,3.6,8.2,2.8,11.1,3.4,15.1,3,6.2-.7,19.6-4.9,19.8-6.2.1-.6-2.3-2.2-5.3-3.7C290.1-378.5,271.9-380.5,259.2-377Z"/>
    <path id="Caminho_146" data-name="Caminho 146" class="cls-1" d="M182.1-376.5c-7.7,2.2-11.3,4.6-22.1,15-5.2,5.1-10.6,9.9-11.9,10.8-2.9,1.9-2.5,2.1,7,3.6,14.2,2.3,29.2,1,40.9-3.5,8.5-3.4,13.3-7.3,16.4-13.6,2.4-4.7,2.4-5.3,1-6.9C208.5-376.5,192.3-379.3,182.1-376.5Z"/>
    <path id="Caminho_147" data-name="Caminho 147" class="cls-1" d="M501.6-369.2c-1.5,2.5,10.5,19.4,18.3,25.8,10.7,8.8,20.5,12.3,40.6,14.5,9.7,1,40.2.6,41.4-.6.2-.3-1.4-2.6-3.6-5.2-2.1-2.6-7.3-10-11.5-16.3s-9-12.8-10.7-14.4l-3-2.9-10.3.6c-8.8.5-22.6,3.3-17.7,3.6,4.6.3,20.1,9.4,33.2,19.6,3.2,2.5,6.5,4.5,7.3,4.5a1.453,1.453,0,0,1,1.4,1.5c0,.8-.5,1.5-1.1,1.5-1.2,0-11.6-6.1-16.4-9.6-3.4-2.5-15.5-8.7-15.5-7.9,0,1.2,6.4,14.2,7.8,15.8.8.9,1.2,2,.8,2.4-1.5,1.5-4.3-1.8-8.9-10.5-4.7-8.8-5-9.2-11.1-12.2-5.9-2.9-14.6-5.1-14.6-3.6,0,.3,2.3,5.4,5.1,11.2,2.7,5.8,4.8,10.9,4.5,11.2-1.2,1.2-4.1-2.8-9.1-12.8-4.8-9.5-5.7-10.8-9.6-12.7C512.1-369.1,502.7-371,501.6-369.2Z"/>
  </g>
</svg>
