<svg xmlns="http://www.w3.org/2000/svg" width="335" height="272.328" viewBox="0 0 335 272.328">
  <defs>
    <style>
      .cls-1 {
        fill: #00652e;
      }

      .cls-2 {
        fill: #fff;
      }

      .cls-3 {
        fill: #409a3c;
      }

      .cls-4 {
        fill: #8dc63f;
      }
    </style>
  </defs>
  <g id="layer1" transform="translate(0)">
    <g id="g2722" transform="translate(0 222.604)">
      <path id="path2724" class="cls-1" d="M-143.05-9.337c-.051.3-.609,3.605-.609,3.605a30.657,30.657,0,0,1-4.223,11.324c-1.972,3.028-4.063,4.521-6.238,4.521a3.4,3.4,0,0,1-2.548-1.569,9.238,9.238,0,0,1-1.566-5.692,19,19,0,0,1,.254-3.122,17.768,17.768,0,0,1,3.809-8.856c1.828-2.044,3.758-3.054,5.755-3.054a7.19,7.19,0,0,1,5.027,2.036.827.827,0,0,1,.339.806m6.119-7.363c-.457,0-2.624-.008-3.538-.008a1.307,1.307,0,0,0-1.363,1.179c-.051.365-.152.95-.152.95q-5.116-3.054-8.007-3.062c-3.572,0-6.695,1.62-9.327,4.861A25.431,25.431,0,0,0-164.489-.532a33.677,33.677,0,0,0-.3,4.394c0,3.707.838,6.633,2.505,8.805a8.54,8.54,0,0,0,7.177,3.232,10.621,10.621,0,0,0,5.544-1.985,20.422,20.422,0,0,0,5.154-4.869A50.858,50.858,0,0,0-144,14.211a1.217,1.217,0,0,0,1.2,1.1h3.809a1.113,1.113,0,0,0,1.092-1.442c-.677-2.9-.821-9.246.093-14.751,0,0,2.107-13.666,2.184-14.234a1.3,1.3,0,0,0-1.312-1.586M-354.568-1.032a16.365,16.365,0,0,1-3.783,8.3q-2.958,3.423-6.212,3.419a5.29,5.29,0,0,1-4.342-2.443A10.524,10.524,0,0,1-370.692,1.9a16.744,16.744,0,0,1,.2-2.562,15.543,15.543,0,0,1,3.749-8.33q2.983-3.385,6.187-3.385a5.3,5.3,0,0,1,4.4,2.418,10.253,10.253,0,0,1,1.786,6.277,18.192,18.192,0,0,1-.2,2.647m-5.375-16.609c-5.027,0-9.251,2.138-12.619,6.4a21.3,21.3,0,0,0-4.689,13.657,14.865,14.865,0,0,0,2.937,9.467c2.209,2.664,5.341,4.021,9.386,4.021a15.322,15.322,0,0,0,12.484-6.345,21.537,21.537,0,0,0,4.57-13.589,14.513,14.513,0,0,0-2.945-9.467,10.908,10.908,0,0,0-9.124-4.14m161.5,1.026c-.982.212-2.9.713-3.749.925-.9.238-1.126.585-1.236,1.188-2.852,16.287-6.847,24.685-12.027,24.685-2.285,0-3.428-1.705-3.428-5.132a20.028,20.028,0,0,1,.262-3.122s2.895-16.838,2.937-17.2a1.242,1.242,0,0,0-1.591-1.442c-.863.2-3.242.806-3.868,1-.939.28-1.024.653-1.16,1.137-.135.568-2.835,16.516-2.835,16.516a27.38,27.38,0,0,0-.3,3.826c0,3.164.686,5.649,2.091,7.431a7.151,7.151,0,0,0,5.967,2.706c4.884,0,8.735-2.3,11.562-6.854a44.591,44.591,0,0,0,.432,5.115,1.167,1.167,0,0,0,1.151,1.154h3.749c.863,0,1.261-.8,1.083-1.612a23.875,23.875,0,0,1-.474-5.191,102.146,102.146,0,0,1,1.32-14.158c.533-3.147,1.075-6.32,1.6-9.5a1.163,1.163,0,0,0-1.481-1.468M-315.161,2.759a11.28,11.28,0,0,1,2.624-5.666,5.842,5.842,0,0,1,4.452-2.121,4.307,4.307,0,0,1,3.115,1.018,2.661,2.661,0,0,1,.787,1.926C-304.3.986-307.975,2.6-315.161,2.759m13.483-9.933A9.452,9.452,0,0,0-307.594-8.9a11.4,11.4,0,0,0-9.225,4.564,15.186,15.186,0,0,0-3.445,9.891,10.708,10.708,0,0,0,2.3,7.092,9,9,0,0,0,7.287,3.079,14.878,14.878,0,0,0,8.32-2.74c.491-.339.643-.551.6-1.1,0,0-.11-1.315-.245-2.3a.641.641,0,0,0-1.058-.39c-1.8,1.222-3.919,2.536-6.509,2.536a5.845,5.845,0,0,1-3.927-1.349,5.782,5.782,0,0,1-1.9-3.911c6.8-.076,11.494-1.442,14.058-4.038,2.344-2.418,2.48-7.448-.339-9.611m73.449-7.007a16.354,16.354,0,0,0-10.1-3.385,16.687,16.687,0,0,0-12.924,6.141,20.562,20.562,0,0,0-4.833,13.708,14.13,14.13,0,0,0,3.149,9.526,11.8,11.8,0,0,0,5.51,3.342,25.715,25.715,0,0,1-4.63,2.7.773.773,0,0,0-.288,1.34,6.121,6.121,0,0,0,3.259,1.451,5.935,5.935,0,0,0,5.053-2.3,21.5,21.5,0,0,0,1.964-2.494,1.909,1.909,0,0,0,.22-.008,19.64,19.64,0,0,0,9.589-3.164,1.228,1.228,0,0,0,.694-1.315c-.017-.4-.085-2.384-.161-3.741a.876.876,0,0,0-1.49-.653c-2.658,2-5.781,3.266-8.1,3.266a7.762,7.762,0,0,1-6.263-2.562,9,9,0,0,1-2.006-6.082A14.018,14.018,0,0,1-246.274-7.6a11.014,11.014,0,0,1,8.633-4.216,9.5,9.5,0,0,1,6.619,2.791c.736.679,1.574.611,1.921-.068a30.613,30.613,0,0,0,1.346-3.495,1.468,1.468,0,0,0-.474-1.595m62.31,0a16.36,16.36,0,0,0-10.106-3.385,16.725,16.725,0,0,0-12.924,6.141,20.649,20.649,0,0,0-4.833,13.708,14.173,14.173,0,0,0,3.149,9.526c2.2,2.6,6.89,4.318,11.1,4.029a19.637,19.637,0,0,0,9.581-3.164,1.233,1.233,0,0,0,.7-1.315c-.017-.4-.093-2.384-.169-3.741a.87.87,0,0,0-1.481-.653c-2.666,2-5.781,3.266-8.108,3.266a7.751,7.751,0,0,1-6.263-2.562,8.955,8.955,0,0,1-2-6.082A14.018,14.018,0,0,1-183.955-7.6a11.01,11.01,0,0,1,8.625-4.216A9.521,9.521,0,0,1-168.7-9.023c.736.679,1.574.611,1.913-.068a32.746,32.746,0,0,0,1.354-3.495,1.486,1.486,0,0,0-.482-1.595M-328-.2a21.817,21.817,0,0,1-3.1,8.33q-2.171,3.321-4.562,3.317a2.489,2.489,0,0,1-1.879-1.145,6.779,6.779,0,0,1-1.168-4.2,15.29,15.29,0,0,1,.2-2.29,12.747,12.747,0,0,1,2.785-6.447,5.8,5.8,0,0,1,4.232-2.248,5.232,5.232,0,0,1,3.7,1.535.913.913,0,0,1,.245.594Zm6.678-16.482c-.829.187-2.344.509-2.937.653a1.046,1.046,0,0,0-.9.84c-.085.458-1.608,8.508-1.608,8.508-2.446-1.468-4.4-2.214-5.865-2.214a8.829,8.829,0,0,0-6.949,3.639,18.353,18.353,0,0,0-3.716,8.932,26.1,26.1,0,0,0-.22,3.173,10.288,10.288,0,0,0,1.837,6.481,6.223,6.223,0,0,0,5.273,2.4q3.377,0,7.4-5c-.034.925.093,3.206.144,3.622a.981.981,0,0,0,.99.984h2.912a.882.882,0,0,0,.9-1.145,35.358,35.358,0,0,1,.339-10.968s3.309-18.721,3.36-18.984c.076-.5-.1-1.086-.956-.916M-400.1-23.045l1.684,1.323c.432.305.618.492,1.033,0,.779-.908,1.642-2.053,2.971-2.053,1.921,0,2.895,2.29,5.865,2.29,2.531,0,5.307-2.061,6.526-4.224.3-.551.178-.679-.245-1.043l-1.693-1.323a.594.594,0,0,0-.965.178c-1.024,1.4-1.879,1.943-2.844,1.943-1.634,0-3.326-2.307-6.043-2.307-2.793,0-4.655,1.815-6.17,3.944-.364.475-.66.84-.118,1.272M-213.79-20.5c.347.645.855.619,1.473.356l9.894-4.055a1.169,1.169,0,0,0,.618-1.663l-1.176-2.367c-.406-.78-.99-1.12-2.023-.517l-8.76,5.539c-.753.45-.906.874-.592,1.612ZM-280.426-3.221l7.99-16.058,3,16.058Zm13.271-22.7a1.251,1.251,0,0,0-1.32-1.12h-5.662a1.282,1.282,0,0,0-1.286.874c-1.879,3.707-19.568,38.757-19.958,39.538a1.289,1.289,0,0,0,1.219,1.943h3.707a1.238,1.238,0,0,0,1.227-.789c.22-.441,5.984-12.113,5.984-12.113h14.879s1.964,11.078,2.108,11.782a1.3,1.3,0,0,0,1.32,1.12h3.9a1.255,1.255,0,0,0,1.32-1.552c-.11-.679-6.78-36.179-7.44-39.682M-109.5-17.557c-5.1.509-9.386,3.368-12.814,8.568,0,0,.965-5.59,1.05-6.218.161-.874-.135-1.5-1.185-1.5h-3.936a1.154,1.154,0,0,0-1.295,1.128c-.076.45-3.995,25.609-4.579,29.316a1.245,1.245,0,0,0,1.253,1.578h3.885a1.254,1.254,0,0,0,1.261-1.154c.11-.619.491-2.91.491-2.91,1.21-7.151,3.4-12.945,6.636-17.432,2.649-3.7,4.782-5.319,7.431-5.556a10.577,10.577,0,0,1,1.464-.008,1,1,0,0,0,1.2-.874c.186-1,.533-3.2.576-3.5.186-1.145-.567-1.518-1.439-1.434M-428.119-6.843a29.584,29.584,0,0,1-3.411.11c-.728-.025-1-.254-.88-.874.423-2.519,2.1-12.546,2.15-12.877.085-.424.169-1.043,1.033-1.043h1.583c6.873,0,10.182,1.807,10.351,5.785.22,5.03-4.079,8.347-10.825,8.9m14.185-16.745q-3.9-3.461-10.944-3.452H-434.94a1.161,1.161,0,0,0-1.261,1.018c-.1.526-6.085,35.466-6.8,39.792a1.208,1.208,0,0,0,1.134,1.544h4.249a1.332,1.332,0,0,0,1.287-1.128c.118-.67,1.964-11.655,2.5-14.76.076-.4.144-.568.686-.534,2.328.17,11.113.356,16.631-3.732,3.927-2.9,5.916-6.5,5.984-10.985a9.748,9.748,0,0,0-3.394-7.762M-388.22-9.337c-.042.3-.626,3.605-.626,3.605A30.51,30.51,0,0,1-393.07,5.593c-1.972,3.028-4.054,4.521-6.221,4.521a3.415,3.415,0,0,1-2.565-1.569,9.183,9.183,0,0,1-1.557-5.692,22.179,22.179,0,0,1,.237-3.122,17.933,17.933,0,0,1,3.826-8.856c1.837-2.044,3.741-3.054,5.747-3.054a7.209,7.209,0,0,1,5.036,2.036.869.869,0,0,1,.347.806M-382.1-16.7c-.449,0-2.641-.008-3.538-.008a1.331,1.331,0,0,0-1.38,1.179c-.051.365-.135.95-.135.95q-5.129-3.054-8.007-3.062c-3.589,0-6.712,1.62-9.344,4.861A25.5,25.5,0,0,0-409.667-.532a35.285,35.285,0,0,0-.313,4.394c0,3.707.838,6.633,2.505,8.805A8.561,8.561,0,0,0-400.3,15.9a10.6,10.6,0,0,0,5.544-1.985A20.144,20.144,0,0,0-389.6,9.045c0,.976.237,4.072.415,5.166a1.219,1.219,0,0,0,1.21,1.1h3.8a1.136,1.136,0,0,0,1.109-1.442c-.686-2.9-.829-9.246.059-14.751,0,0,2.124-13.666,2.217-14.234A1.3,1.3,0,0,0-382.1-16.7" transform="translate(443.032 29.053)"/>
    </g>
    <g id="Grupo_4" data-name="Grupo 4" transform="translate(-102.626 254.095)">
      <g id="g2706" transform="translate(140.957 -254.095)">
        <path id="path2708" class="cls-2" d="M0-70.581c.719-69.092,48.686-149.041,101.779-149.041,48.136,0,73.354,70.457,73.354,116.272,0,67.454-45.6,84.191-57.467,84.191-15.227,0-23.061-20.129-.135-61.55,20.718-37.434,50.894-59.778,80.266-59.778,44.946,0,76.653,61.338,77.575,101.86.457,19.841-11.074,26.016-24.652,25.346-16.869-.831-46.275-9.348-105.315-7.312-40.522,1.4-65.935,8.669-96.305,8.669C22.05-11.923-.52-20.389,0-70.581" transform="translate(0.013 219.622)"/>
      </g>
      <g id="g2710" transform="translate(247.809 -163.589)">
        <path id="path2712" class="cls-3" d="M-2.242-32.784c7.21-19.052,18.849-35.169,27.111-44.823,15.8-18.475,29.452-24.4,29.452-24.4s9.187,40.98-6.693,72.459C41.257-16.938,26.277,2.818,3.272,4.4-8.723,5.227-9.681-13.112-2.242-32.784" transform="translate(6.977 102.011)"/>
      </g>
      <g id="g2714" transform="translate(274.293 -170.966)">
        <path id="path2716" class="cls-4" d="M-65.295-45.452c-1.171-38.435-31.174-96.626-76.225-95.973-7.974.11-14.531,2-22.708,5.471a156.96,156.96,0,0,1,2.587,27.34c0,48.674-23.819,70.924-41.531,79.551,34.838-2.74,68.158-1.8,104.015,4.53,28.841,5.1,34.346-5.463,33.863-20.918" transform="translate(203.172 141.431)"/>
      </g>
      <g id="g2718" transform="translate(145.443 -249.326)">
        <path id="path2720" class="cls-1" d="M-53.688-63.528c13.487-24.3,30.97-42.193,49.615-51.8a.119.119,0,0,0,.034-.059,163.853,163.853,0,0,0-7.8-27.721C-21.08-167.492-40.752-198-71.637-197.674c-21.258.212-42.235,15.311-60.516,39.835-20.893,27.976-34.05,68.625-34.855,101.563C-168.153-9.731-148.889.482-118.4.932c13.25.2,26.415-1.7,34.389-2.5,6.871-.7,14.828-1.705,22.708-2.63-9.382-6.243-10.994-25.813,7.617-59.328" transform="translate(167.057 197.676)"/>
      </g>
    </g>
  </g>
</svg>
