<svg xmlns="http://www.w3.org/2000/svg" width="740.986" height="618.364" viewBox="0 0 740.986 618.364">
  <defs>
    <style>
      .cls-1 {
        fill: #e6e6e6;
      }

      .cls-2 {
        fill: #184d47;
      }

      .cls-3, .cls-6 {
        fill: #96bb7c;
      }

      .cls-4 {
        fill: #fff;
      }

      .cls-5, .cls-6 {
        opacity: 0.2;
      }

      .cls-7 {
        fill: #ffb8b8;
      }

      .cls-8 {
        fill: #eebb4d;
      }

      .cls-9 {
        fill: #2f2e41;
      }

      .cls-10 {
        fill: #3f3d56;
      }
    </style>
  </defs>
  <g id="shopping" transform="translate(0 0)">
    <g id="geladeira" transform="translate(0 0)">
      <path id="Caminho_3" data-name="Caminho 3" class="cls-1" d="M461.32,224.986h-3.364V132.819a53.344,53.344,0,0,0-53.344-53.344H209.344A53.344,53.344,0,0,0,156,132.819V638.454A53.344,53.344,0,0,0,209.343,691.8H404.612a53.344,53.344,0,0,0,53.344-53.344V290.592h3.364Z" transform="translate(-156 -79.476)"/>
      <path id="Caminho_4" data-name="Caminho 4" class="cls-2" d="M409.684,96.107H384.2a18.926,18.926,0,0,1-17.523,26.074H254.806a18.926,18.926,0,0,1-17.523-26.074H213.477a39.836,39.836,0,0,0-39.837,39.837V640.836a39.836,39.836,0,0,0,39.837,39.836H409.684a39.836,39.836,0,0,0,39.837-39.836V135.944a39.837,39.837,0,0,0-39.837-39.837Z" transform="translate(-158.92 -82.229)"/>
      <path id="Caminho_5" data-name="Caminho 5" class="cls-1" d="M267.04,219.111H255.325a1.553,1.553,0,0,0-1.553,1.553v5.142a1.553,1.553,0,0,0,1.553,1.553h1.941v7.7H265.1v-7.7h1.941a1.553,1.553,0,0,0,1.553-1.553v-5.142A1.553,1.553,0,0,0,267.04,219.111Z" transform="translate(-172.187 -102.593)"/>
      <path id="Caminho_6" data-name="Caminho 6" class="cls-3" d="M276.634,267.73a60.229,60.229,0,0,1-10.478-35.709,1.27,1.27,0,0,0-.991-1.268v-2.222H252.792v2.191h-.17a1.27,1.27,0,0,0-1.268,1.271q0,.046,0,.092a54.966,54.966,0,0,1-9.874,36.555,3.5,3.5,0,0,0-.633,2.12L242.2,312.61a3.623,3.623,0,0,0,3.592,3.5h27.985a3.624,3.624,0,0,0,3.594-3.558l.521-40.631A7.333,7.333,0,0,0,276.634,267.73Z" transform="translate(-170.047 -104.153)"/>
      <path id="Caminho_7" data-name="Caminho 7" class="cls-4" d="M273.1,292.166H248.738a2.5,2.5,0,0,0-2.472,2.881l3.681,23.926h21.137l4.471-23.846a2.5,2.5,0,0,0-2.458-2.962Z" transform="translate(-170.939 -114.688)"/>
      <path id="Caminho_8" data-name="Caminho 8" class="cls-1" d="M423.324,369.345H411.609a1.553,1.553,0,0,0-1.553,1.553v5.142a1.553,1.553,0,0,0,1.553,1.553h1.941v7.7h7.832v-7.7h1.941a1.553,1.553,0,0,0,1.553-1.553V370.9a1.553,1.553,0,0,0-1.553-1.553Z" transform="translate(-198.06 -127.465)"/>
      <path id="Caminho_9" data-name="Caminho 9" class="cls-3" d="M432.919,417.965a60.229,60.229,0,0,1-10.478-35.709,1.27,1.27,0,0,0-.991-1.268v-2.222H409.076v2.191h-.171a1.27,1.27,0,0,0-1.268,1.271q0,.046,0,.092a54.966,54.966,0,0,1-9.874,36.555,3.5,3.5,0,0,0-.633,2.12l1.353,41.849a3.623,3.623,0,0,0,3.592,3.5h27.985a3.624,3.624,0,0,0,3.594-3.558l.521-40.631a7.333,7.333,0,0,0-1.26-4.187Z" transform="translate(-195.921 -129.025)"/>
      <path id="Caminho_10" data-name="Caminho 10" class="cls-4" d="M429.381,442.4H405.022a2.5,2.5,0,0,0-2.472,2.881l3.681,23.926h21.137l4.471-23.846a2.5,2.5,0,0,0-2.458-2.962Z" transform="translate(-196.813 -139.56)"/>
      <path id="Caminho_11" data-name="Caminho 11" class="cls-1" d="M248.686,581.733h-5.557a.737.737,0,0,0-.737.737v2.439a.737.737,0,0,0,.737.737h.921V589.3h3.715v-3.655h.921a.737.737,0,0,0,.737-.737V582.47a.737.737,0,0,0-.737-.737Z" transform="translate(-170.303 -162.627)"/>
      <path id="Caminho_12" data-name="Caminho 12" class="cls-3" d="M253.237,604.795a28.569,28.569,0,0,1-4.97-16.938.6.6,0,0,0-.47-.6V586.2h-5.869v1.039h-.081a.6.6,0,0,0-.6.6c0,.015,0,.029,0,.044a26.073,26.073,0,0,1-4.684,17.34,1.659,1.659,0,0,0-.3,1.006l.642,19.851a1.718,1.718,0,0,0,1.7,1.659h13.275a1.719,1.719,0,0,0,1.7-1.688l.247-19.273A3.479,3.479,0,0,0,253.237,604.795Z" transform="translate(-169.288 -163.367)"/>
      <rect id="Retângulo_8" data-name="Retângulo 8" class="cls-4" width="12.666" height="6.333" transform="translate(69.373 448.725)"/>
      <path id="Caminho_13" data-name="Caminho 13" class="cls-1" d="M279.686,581.733h-5.557a.737.737,0,0,0-.737.737v2.439a.737.737,0,0,0,.737.737h.921V589.3h3.715v-3.655h.921a.737.737,0,0,0,.737-.737V582.47a.737.737,0,0,0-.737-.737Z" transform="translate(-175.435 -162.627)"/>
      <path id="Caminho_14" data-name="Caminho 14" class="cls-3" d="M284.237,604.795a28.569,28.569,0,0,1-4.97-16.938.6.6,0,0,0-.47-.6V586.2h-5.869v1.039h-.081a.6.6,0,0,0-.6.6c0,.015,0,.029,0,.044a26.073,26.073,0,0,1-4.684,17.34,1.659,1.659,0,0,0-.3,1.006l.642,19.851a1.718,1.718,0,0,0,1.7,1.659h13.275a1.719,1.719,0,0,0,1.7-1.688l.247-19.273A3.479,3.479,0,0,0,284.237,604.795Z" transform="translate(-174.42 -163.367)"/>
      <rect id="Retângulo_9" data-name="Retângulo 9" class="cls-4" width="12.666" height="6.333" transform="translate(95.241 448.725)"/>
      <path id="Caminho_15" data-name="Caminho 15" class="cls-1" d="M310.686,581.733h-5.557a.737.737,0,0,0-.737.737v2.439a.737.737,0,0,0,.737.737h.921V589.3h3.715v-3.655h.921a.737.737,0,0,0,.737-.737V582.47a.737.737,0,0,0-.737-.737Z" transform="translate(-180.567 -162.627)"/>
      <path id="Caminho_16" data-name="Caminho 16" class="cls-3" d="M315.237,604.795a28.568,28.568,0,0,1-4.97-16.938.6.6,0,0,0-.47-.6V586.2h-5.869v1.039h-.081a.6.6,0,0,0-.6.6c0,.015,0,.029,0,.044a26.073,26.073,0,0,1-4.684,17.34,1.66,1.66,0,0,0-.3,1.006l.642,19.851a1.718,1.718,0,0,0,1.7,1.659h13.275a1.719,1.719,0,0,0,1.7-1.688l.247-19.273A3.479,3.479,0,0,0,315.237,604.795Z" transform="translate(-179.552 -163.367)"/>
      <rect id="Retângulo_10" data-name="Retângulo 10" class="cls-4" width="12.666" height="6.333" transform="translate(121.109 448.725)"/>
      <path id="Caminho_17" data-name="Caminho 17" class="cls-1" d="M398.935,523.613H387.22a1.553,1.553,0,0,0-1.553,1.553v5.142a1.553,1.553,0,0,0,1.553,1.553h1.941v7.7h7.832v-7.7h1.941a1.553,1.553,0,0,0,1.553-1.553v-5.142A1.553,1.553,0,0,0,398.935,523.613Z" transform="translate(-194.023 -153.005)"/>
      <path id="Caminho_18" data-name="Caminho 18" class="cls-3" d="M408.529,572.233a60.229,60.229,0,0,1-10.478-35.709,1.27,1.27,0,0,0-.992-1.268v-2.222H384.687v2.191h-.171a1.27,1.27,0,0,0-1.268,1.271q0,.046,0,.092a54.966,54.966,0,0,1-9.874,36.555,3.5,3.5,0,0,0-.633,2.12l1.353,41.848a3.623,3.623,0,0,0,3.592,3.5h27.985a3.624,3.624,0,0,0,3.594-3.558l.521-40.631a7.333,7.333,0,0,0-1.261-4.187Z" transform="translate(-191.883 -154.565)"/>
      <path id="Caminho_19" data-name="Caminho 19" class="cls-4" d="M404.991,596.668H380.633a2.5,2.5,0,0,0-2.472,2.881l3.681,23.926h21.137l4.471-23.846a2.5,2.5,0,0,0-2.458-2.962Z" transform="translate(-192.775 -165.1)"/>
      <path id="Caminho_20" data-name="Caminho 20" class="cls-3" d="M395.377,321.576H325.544c4.882-26.4,3.759-58.271,0-92.549h69.833C391.718,263.306,390.624,295.18,395.377,321.576Z" transform="translate(-184.069 -104.235)"/>
      <circle id="Elipse_2" data-name="Elipse 2" class="cls-4" cx="16.827" cy="16.827" r="16.827" transform="translate(159.985 151.716)"/>
      <path id="Caminho_21" data-name="Caminho 21" class="cls-3" d="M318.747,468.786H248.914c4.882-26.4,3.759-58.271,0-92.549h69.833C315.088,410.515,313.995,442.39,318.747,468.786Z" transform="translate(-171.382 -128.606)"/>
      <circle id="Elipse_3" data-name="Elipse 3" class="cls-4" cx="16.827" cy="16.827" r="16.827" transform="translate(96.041 274.554)"/>
      <path id="Caminho_22" data-name="Caminho 22" class="cls-1" d="M442.766,328.634H372.933c4.882-26.4,3.759-58.271,0-92.549h69.833C439.107,270.364,438.014,302.238,442.766,328.634Z" transform="translate(-191.914 -105.403)"/>
      <circle id="Elipse_4" data-name="Elipse 4" class="cls-4" cx="16.827" cy="16.827" r="16.827" transform="translate(199.528 157.605)"/>
      <path id="Caminho_23" data-name="Caminho 23" class="cls-3" d="M442.766,323.593H372.933c4.882-26.4,3.759-58.271,0-92.549h69.833C439.107,265.322,438.014,297.2,442.766,323.593Z" transform="translate(-191.914 -104.569)"/>
      <circle id="Elipse_5" data-name="Elipse 5" class="cls-4" cx="16.827" cy="16.827" r="16.827" transform="translate(199.528 153.398)"/>
      <path id="Caminho_24" data-name="Caminho 24" class="cls-3" d="M442.766,328.634H372.933c4.882-26.4,3.759-58.271,0-92.549h69.833C439.107,270.364,438.014,302.238,442.766,328.634Z" transform="translate(-191.914 -105.403)"/>
      <circle id="Elipse_6" data-name="Elipse 6" class="cls-4" cx="16.827" cy="16.827" r="16.827" transform="translate(199.528 157.605)"/>
      <rect id="Retângulo_11" data-name="Retângulo 11" class="cls-1" width="228.85" height="25.241" transform="translate(37.988 212.294)"/>
      <rect id="Retângulo_12" data-name="Retângulo 12" class="cls-1" width="228.85" height="25.241" transform="translate(37.988 337.656)"/>
      <rect id="Retângulo_13" data-name="Retângulo 13" class="cls-1" width="228.85" height="25.241" transform="translate(37.988 463.018)"/>
    </g>
    <path id="Caminho_25" data-name="Caminho 25" class="cls-3" d="M941.543,734.083,884.53,693.758c19.229-18.731,36.717-45.4,53.443-75.56l57.013,40.325C972.2,684.4,952.905,709.788,941.543,734.083Z" transform="translate(-276.612 -168.664)"/>
    <circle id="Elipse_7" data-name="Elipse 7" class="cls-4" cx="16.827" cy="16.827" r="16.827" transform="translate(648.119 488.831)"/>
    <path id="Caminho_26" data-name="Caminho 26" class="cls-1" d="M621.856,536.554H615.6a.83.83,0,0,0-.83.83v2.747a.83.83,0,0,0,.83.83h1.037v4.116h4.184V540.96h1.037a.83.83,0,0,0,.83-.83v-2.747a.83.83,0,0,0-.83-.83Z" transform="translate(-231.952 -155.148)"/>
    <path id="Caminho_27" data-name="Caminho 27" class="cls-3" d="M626.981,562.527a32.175,32.175,0,0,1-5.6-19.076.678.678,0,0,0-.53-.677v-1.187h-6.61v1.171h-.091a.678.678,0,0,0-.677.679q0,.025,0,.049a29.363,29.363,0,0,1-5.275,19.528,1.868,1.868,0,0,0-.338,1.133l.723,22.356a1.935,1.935,0,0,0,1.919,1.868h14.95a1.936,1.936,0,0,0,1.92-1.9l.279-21.706A3.918,3.918,0,0,0,626.981,562.527Z" transform="translate(-230.809 -155.981)"/>
    <path id="Caminho_28" data-name="Caminho 28" class="cls-5" d="M620.989,537.627a1.79,1.79,0,0,1-3.58,0" transform="translate(-232.389 -155.325)"/>
    <rect id="Retângulo_14" data-name="Retângulo 14" class="cls-4" width="12.62" height="8.414" transform="translate(380.641 410.854)"/>
    <path id="Caminho_29" data-name="Caminho 29" class="cls-3" d="M857.97,641.218H846.255a1.553,1.553,0,0,0-1.553,1.553v5.142a1.553,1.553,0,0,0,1.553,1.553H848.2v7.7h7.832v-7.7h1.941a1.553,1.553,0,0,0,1.553-1.553v-5.142a1.553,1.553,0,0,0-1.553-1.553Z" transform="translate(-270.018 -172.475)"/>
    <path id="Caminho_30" data-name="Caminho 30" class="cls-3" d="M867.564,689.838a60.23,60.23,0,0,1-10.478-35.709,1.27,1.27,0,0,0-.991-1.268V650.64H843.722v2.191h-.17a1.27,1.27,0,0,0-1.268,1.271c0,.031,0,.062,0,.092a54.965,54.965,0,0,1-9.874,36.555,3.5,3.5,0,0,0-.633,2.12l1.353,41.849a3.623,3.623,0,0,0,3.592,3.5h27.985a3.624,3.624,0,0,0,3.594-3.558l.521-40.631A7.333,7.333,0,0,0,867.564,689.838Z" transform="translate(-267.879 -174.035)"/>
    <path id="Caminho_31" data-name="Caminho 31" class="cls-6" d="M856.346,643.226a3.351,3.351,0,0,1-6.7,0" transform="translate(-270.837 -172.808)"/>
    <path id="Caminho_32" data-name="Caminho 32" class="cls-4" d="M864.026,714.273H839.668a2.5,2.5,0,0,0-2.472,2.881l3.681,23.926h21.137l4.471-23.846a2.5,2.5,0,0,0-2.458-2.962Z" transform="translate(-268.771 -184.57)"/>
    <path id="Caminho_33" data-name="Caminho 33" class="cls-3" d="M806.691,738.634H736.858c4.882-26.4,3.759-58.271,0-92.549h69.833C803.032,680.363,801.939,712.237,806.691,738.634Z" transform="translate(-252.164 -173.281)"/>
    <circle id="Elipse_8" data-name="Elipse 8" class="cls-4" cx="16.827" cy="16.827" r="16.827" transform="translate(503.204 499.726)"/>
    <path id="Caminho_34" data-name="Caminho 34" class="cls-7" d="M322.243,321.4l15.677-1.425,9.977-24.227-17.815-9.977Z" transform="translate(-53.349 -47.31)"/>
    <path id="Caminho_35" data-name="Caminho 35" class="cls-7" d="M643.6,484.959h0a8.839,8.839,0,0,0-7.678-12.113l-24.341-1.451-3.584,11.918,25.057,6.882A8.84,8.84,0,0,0,643.6,484.959Z" transform="translate(-230.83 -144.36)"/>
    <path id="Caminho_36" data-name="Caminho 36" class="cls-8" d="M595.552,477.609l-.268-22.363-54.066-8.627-41.651-47.77a13.633,13.633,0,0,0-17.769-2.43h0a13.633,13.633,0,0,0-2.375,20.8L513.784,459.5Z" transform="translate(-208.921 -131.576)"/>
    <path id="Caminho_37" data-name="Caminho 37" class="cls-9" d="M463.726,747.857h14.252l35.349-159.824,36.622,49.373,21.378,106.888h13.539l-2.85-114.726L534.272,507H487.241c-12.852,23.26-22.934,47.236-11.4,71.971Z" transform="translate(-206.946 -150.255)"/>
    <path id="Caminho_38" data-name="Caminho 38" class="cls-8" d="M582.17,804.008a3.72,3.72,0,0,0,2.9,4.772l34.874,6.189a5.738,5.738,0,0,0,6.509-3.933h0a5.7,5.7,0,0,0-2.789-6.781,53.321,53.321,0,0,1-19.232-16.721c-3.833,3.569-8.117,3.233-12.666.6l-4.825.6Z" transform="translate(-226.527 -196.699)"/>
    <path id="Caminho_39" data-name="Caminho 39" class="cls-8" d="M455.784,804.008a3.72,3.72,0,0,0,2.9,4.772l34.874,6.189a5.738,5.738,0,0,0,6.509-3.933h0a5.7,5.7,0,0,0-2.789-6.781,53.322,53.322,0,0,1-19.233-16.721c-3.833,3.569-8.117,3.233-12.666.6l-4.825.6Z" transform="translate(-205.603 -196.699)"/>
    <circle id="Elipse_9" data-name="Elipse 9" class="cls-7" cx="19.952" cy="19.952" r="19.952" transform="translate(274.951 217.436)"/>
    <path id="Caminho_40" data-name="Caminho 40" class="cls-8" d="M484.9,492.836l52.018-1.425-15.277-48.08c9.494-15.22-.061-30.424-13.583-45.625l-10.689-7.126-17.1-1.425h0A41.984,41.984,0,0,0,468.963,418.4,188.408,188.408,0,0,0,484.9,492.836Z" transform="translate(-207.812 -130.745)"/>
    <path id="Caminho_41" data-name="Caminho 41" class="cls-7" d="M624.926,547.219h0a8.839,8.839,0,0,0-2.294-14.157l-21.806-10.91-7.983,9.547,20.33,16.184A8.84,8.84,0,0,0,624.926,547.219Z" transform="translate(-228.322 -152.763)"/>
    <path id="Caminho_42" data-name="Caminho 42" class="cls-8" d="M583.293,522.127l8.551-20.665-46.313-29.2-19.5-60.3a13.633,13.633,0,0,0-15.38-9.224h0a13.633,13.633,0,0,0-10.365,18.185l14.956,52.4Z" transform="translate(-212.856 -132.957)"/>
    <path id="Caminho_43" data-name="Caminho 43" class="cls-9" d="M470.13,349.853c0,7.764,5.042,19.787,11.4,24.941,4.279,3.468,9.934,3.322,12.114-1.425,2.237-4.869,9.946-16.315,23.515-23.515,18.089-9.6-6.415-26.019-23.515-23.515C480.795,328.219,470.13,336.865,470.13,349.853Z" transform="translate(-208.006 -120.303)"/>
    <circle id="Elipse_10" data-name="Elipse 10" class="cls-9" cx="14.252" cy="14.252" r="14.252" transform="translate(259.987 190.358)"/>
    <path id="Caminho_44" data-name="Caminho 44" class="cls-9" d="M501.673,315.875a14.243,14.243,0,0,0-13.183-14.2c.354-.026.708-.054,1.069-.054a14.252,14.252,0,1,1,0,28.5c-.361,0-.715-.028-1.069-.054a14.243,14.243,0,0,0,13.183-14.2Z" transform="translate(-211.046 -116.254)"/>
    <ellipse id="Elipse_11" data-name="Elipse 11" class="cls-7" cx="3.207" cy="4.276" rx="3.207" ry="4.276" transform="translate(292.053 235.964)"/>
    <path id="Caminho_45" data-name="Caminho 45" class="cls-10" d="M776.459,638.805H554.6l-46.98-222.088H467.529v-9.965H515.7l46.98,222.087H776.459Z" transform="translate(-77.402 -67.34)"/>
    <circle id="Elipse_12" data-name="Elipse 12" class="cls-10" cx="21.355" cy="21.355" r="21.355" transform="translate(488.358 569.329)"/>
    <circle id="Elipse_13" data-name="Elipse 13" class="cls-10" cx="21.355" cy="21.355" r="21.355" transform="translate(647.805 569.329)"/>
    <path id="Caminho_46" data-name="Caminho 46" class="cls-10" d="M938.522,721.356H722.669L684.584,533.145H974.262a10.235,10.235,0,0,1,10.11,11.821L948.63,712.711a10.183,10.183,0,0,1-10.108,8.645Zm-213.508-2.847H938.522a7.348,7.348,0,0,0,7.295-6.24l35.742-167.744a7.385,7.385,0,0,0-7.3-8.532H688.04Z" transform="translate(-243.51 -154.583)"/>
    <path id="Caminho_47" data-name="Caminho 47" class="cls-10" d="M619.564,641.513,594.623,455.561l2.809-.464,24.942,185.953Z" transform="translate(-98.443 -75.344)"/>
    <path id="Caminho_48" data-name="Caminho 48" class="cls-10" d="M790.154,640.087l-2.811-.456L811.556,455.1l2.811.456Z" transform="translate(-130.349 -75.345)"/>
    <rect id="Retângulo_15" data-name="Retângulo 15" class="cls-10" width="2.847" height="185.953" transform="translate(590.883 379.985)"/>
    <rect id="Retângulo_16" data-name="Retângulo 16" class="cls-10" width="2.847" height="275.614" transform="translate(455.611 432.657) rotate(-89.861)"/>
    <rect id="Retângulo_17" data-name="Retângulo 17" class="cls-10" width="242.137" height="2.847" transform="translate(469.655 519.423) rotate(-0.392)"/>
    <ellipse id="Elipse_14" data-name="Elipse 14" class="cls-10" cx="15.66" cy="8.542" rx="15.66" ry="8.542" transform="translate(378.738 334.429)"/>
  </g>
</svg>
