<svg id="twitter" xmlns="http://www.w3.org/2000/svg" width="116.92" height="116.92" viewBox="0 0 116.92 116.92">
  <defs>
    <style>
      .cls-1 {
        fill: #d6efc7;
      }
    </style>
  </defs>
  <path id="Caminho_54" data-name="Caminho 54" class="cls-1" d="M58.46,0a58.46,58.46,0,1,0,58.46,58.46A58.46,58.46,0,0,0,58.46,0ZM93.811,42.87q.041,1.035.042,2.076c0,24.973-19,50.8-50.8,50.8A50.6,50.6,0,0,1,15.68,87.726a.431.431,0,0,1-.173-.511.437.437,0,0,1,.458-.283,35.342,35.342,0,0,0,4.171.245A34.863,34.863,0,0,0,40.914,80.4,18.13,18.13,0,0,1,25.172,67.869a.432.432,0,0,1,.493-.557,17.4,17.4,0,0,0,6.028.086A18.193,18.193,0,0,1,18.945,50.074l0-.232a.433.433,0,0,1,.218-.366.427.427,0,0,1,.425,0,17.335,17.335,0,0,0,6.329,2.047,18.152,18.152,0,0,1-4.372-23.306.43.43,0,0,1,.34-.213.424.424,0,0,1,.37.158,50.01,50.01,0,0,0,35.61,18.307,18.353,18.353,0,0,1-.348-3.57A18.145,18.145,0,0,1,88.726,30.31a34.963,34.963,0,0,0,10.873-4.2.432.432,0,0,1,.632.5,18.109,18.109,0,0,1-6.375,8.958,34.866,34.866,0,0,0,8.171-2.478.433.433,0,0,1,.535.638A36.147,36.147,0,0,1,93.811,42.87Z"/>
</svg>
